<svg width="23" height="23" viewBox="0 0 23 23" fill="none" xmlns="http://www.w3.org/2000/svg">
<path d="M17.3341 11.6179C16.3924 11.6179 15.5029 11.9249 14.7616 12.5057C14.6153 12.6203 14.5897 12.8318 14.7043 12.9779C14.8188 13.1242 15.0304 13.1498 15.1766 13.0352C15.7983 12.5481 16.5443 12.2906 17.3341 12.2906C19.2653 12.2906 20.8364 13.8618 20.8364 15.793C20.8364 17.7242 19.2653 19.2953 17.3341 19.2953C15.4029 19.2953 13.8317 17.7242 13.8317 15.793C13.8317 15.1326 14.0173 14.4887 14.3683 13.9309C14.4672 13.7737 14.4199 13.566 14.2628 13.4671C14.1055 13.3681 13.8978 13.4154 13.7989 13.5726C13.3803 14.2379 13.1589 15.0057 13.1589 15.793C13.1589 18.0951 15.0319 19.9681 17.3341 19.9681C19.6363 19.9681 21.5092 18.0952 21.5092 15.793C21.5092 13.4909 19.6363 11.6179 17.3341 11.6179Z" fill="black"/>
<path d="M19.9722 15.9585H17.6703V13.6566C17.6703 13.4708 17.5197 13.3202 17.3339 13.3202C17.1482 13.3202 16.9976 13.4708 16.9976 13.6566V16.2949C16.9976 16.4806 17.1482 16.6312 17.3339 16.6312H19.9722C20.1579 16.6312 20.3086 16.4806 20.3086 16.2949C20.3086 16.1091 20.1579 15.9585 19.9722 15.9585Z" fill="black"/>
<path d="M20.5535 11.1334V5.29842C20.5535 4.42163 19.8402 3.70827 18.9633 3.70827H18.2414V2.88041C18.2414 2.14185 17.6406 1.54102 16.902 1.54102C16.1634 1.54102 15.5626 2.14185 15.5626 2.88041V3.70823H13.8246V2.88041C13.8246 2.14185 13.2238 1.54102 12.4852 1.54102C11.7467 1.54102 11.1458 2.14185 11.1458 2.88041V3.70823H9.40785V2.88041C9.40785 2.14185 8.80702 1.54102 8.06846 1.54102C7.3299 1.54102 6.72907 2.14185 6.72907 2.88041V3.70823H4.99109V2.88041C4.99109 2.14185 4.39026 1.54102 3.6517 1.54102C2.91314 1.54102 2.31217 2.14185 2.31217 2.88041V3.70823H1.59014C0.713359 3.70823 0 4.42154 0 5.29842V5.46436C0 5.65011 0.150623 5.80073 0.336375 5.80073C0.522127 5.80073 0.67275 5.65011 0.67275 5.46436V5.29842C0.67275 4.7926 1.08432 4.38102 1.59014 4.38102H2.31208C2.31208 4.38102 2.31208 5.2088 2.31208 5.20884C2.31208 5.9474 2.91291 6.54823 3.65147 6.54823C4.39004 6.54823 4.99087 5.9474 4.99087 5.2088V4.38102H6.72885C6.72885 4.38102 6.72885 5.2088 6.72885 5.20884C6.72885 5.9474 7.32968 6.54823 8.06824 6.54823C8.8068 6.54823 9.40763 5.9474 9.40763 5.2088V4.38102H11.1456C11.1456 4.38102 11.1456 5.2088 11.1456 5.20884C11.1456 5.9474 11.7464 6.54823 12.485 6.54823C13.2236 6.54823 13.8244 5.9474 13.8244 5.2088V4.38102H15.5624C15.5624 4.38102 15.5624 5.2088 15.5624 5.20884C15.5624 5.9474 16.1632 6.54823 16.9018 6.54823C17.6403 6.54823 18.2412 5.9474 18.2412 5.2088V4.38102H18.9631C19.469 4.38102 19.8805 4.7926 19.8805 5.29842V7.67254H0.67275V6.80986C0.67275 6.6241 0.522127 6.47348 0.336375 6.47348C0.150623 6.47348 0 6.62406 0 6.80986V18.4187C0 19.2955 0.713359 20.0088 1.59014 20.0088H13.5526C14.5563 20.91 15.8821 21.4591 17.334 21.4591C18.5463 21.4591 19.7028 21.0813 20.6786 20.3666C20.8285 20.2568 20.861 20.0463 20.7512 19.8965C20.6414 19.7465 20.4308 19.7141 20.281 19.8239C19.4213 20.4535 18.4023 20.7863 17.3339 20.7863C14.5806 20.7863 12.3407 18.5463 12.3407 15.7931C12.3407 13.0398 14.5807 10.7998 17.3339 10.7998C17.8321 10.7998 18.3283 10.8743 18.8045 11.0209C18.8139 11.0238 18.8232 11.0268 18.8326 11.0297C20.8559 11.6678 22.3272 13.5617 22.3272 15.7931C22.3272 16.9443 21.9259 18.0677 21.1973 18.9564C21.0795 19.1001 21.1005 19.3121 21.2441 19.4298C21.3878 19.5476 21.5998 19.5266 21.7175 19.383C22.5445 18.3744 23 17.0994 23 15.7931C23 13.8639 22.0305 12.157 20.5535 11.1334ZM4.31812 5.2088C4.31812 5.57639 4.01907 5.87544 3.65147 5.87544C3.28388 5.87544 2.98483 5.57644 2.98483 5.2088V2.88041C2.98483 2.51281 3.28383 2.21377 3.65147 2.21377C4.01907 2.21377 4.31812 2.51277 4.31812 2.88041V5.2088ZM8.73492 5.2088C8.73492 5.57639 8.43588 5.87544 8.06828 5.87544C7.70069 5.87544 7.40164 5.57644 7.40164 5.2088V2.88041C7.40164 2.51281 7.70069 2.21377 8.06828 2.21377C8.43588 2.21377 8.73492 2.51277 8.73492 2.88041V5.2088ZM13.1518 5.2088C13.1518 5.57639 12.8527 5.87544 12.4851 5.87544C12.1175 5.87544 11.8185 5.57644 11.8185 5.2088V2.88041C11.8185 2.51281 12.1175 2.21377 12.4851 2.21377C12.8527 2.21377 13.1518 2.51277 13.1518 2.88041V5.2088ZM17.5686 5.2088C17.5686 5.57639 17.2695 5.87544 16.9019 5.87544C16.5343 5.87544 16.2353 5.57644 16.2353 5.2088V2.88041C16.2353 2.51281 16.5343 2.21377 16.9019 2.21377C17.2695 2.21377 17.5686 2.51277 17.5686 2.88041V5.2088ZM8.62504 8.34529H11.9284V11.5603H8.62504V8.34529ZM3.97613 19.3361H1.59014C1.08432 19.3361 0.67275 18.9245 0.67275 18.4186V16.1209H3.97608L3.97613 19.3361ZM3.97613 15.4482H0.67275V12.2331H3.97608L3.97613 15.4482ZM3.97613 11.5603H0.67275V8.34529H3.97608L3.97613 11.5603ZM4.64887 12.2331H7.9522V15.4482H4.64887V12.2331ZM7.95229 19.3361H4.64896V16.121H7.95229V19.3361ZM7.95229 11.5603H4.64896V8.34529H7.95229V11.5603ZM8.625 12.2331H11.9284V14.0938C11.7924 14.5254 11.707 14.9793 11.6787 15.4482H8.625V12.2331ZM12.9108 19.3361H8.62504V16.121H11.6774C11.7441 17.3084 12.1721 18.4197 12.9108 19.3361ZM12.6012 12.6816V12.2331H12.9296C12.8131 12.377 12.7035 12.5267 12.6012 12.6816ZM15.9045 10.3099C15.0263 10.539 14.2305 10.9742 13.5718 11.5603H12.6012V8.34529H15.9045V10.3099ZM19.8807 10.7305C19.5639 10.5709 19.2335 10.4426 18.8937 10.3454C18.8865 10.3434 18.8792 10.3413 18.872 10.3392C18.3724 10.1981 17.8533 10.127 17.334 10.127C17.0775 10.127 16.8249 10.1445 16.5773 10.1777V8.3452H19.8807V10.7305Z" fill="black"/>
</svg>
