<svg width="271" height="25" viewBox="0 0 271 25" fill="none" xmlns="http://www.w3.org/2000/svg">
<path fill-rule="evenodd" clip-rule="evenodd" d="M0 20.7223V24.1767V24.1807H6.94984V20.7263H10.4248V17.2719H13.8997V6.90878H10.4248V3.45439H6.94984V0H0V3.45033H3.47492V6.90472H6.94984V17.2679H3.47492V20.7223H0ZM55.5908 20.7223V24.1767H55.5949H76.4403V20.7223H69.4905V0H62.5406V3.45439H59.0657V6.90878H62.5406V20.7223H55.5908ZM107.71 24.1767V0H128.556V3.45439H132.031V13.8176H128.556V17.2719H114.656V24.1807H107.706L107.71 24.1767ZM114.656 13.8176H125.081V3.45439H114.656V13.8176ZM138.98 0V24.1767H138.985H159.83V20.7223H145.93V0H138.98ZM163.301 24.1767V6.90878H166.776V3.45439H170.251V0H180.676V3.45439H184.151V6.90878H187.625V24.1767H180.676V17.2679H170.251V24.1767H163.301ZM170.251 13.8176H180.676V6.90878H177.201V3.45439H173.726V6.90878H170.251V13.8176ZM201.521 13.8135V24.1767V24.1807H208.471V13.8176H211.946V10.3632H215.421V0H208.471V10.3632H201.521V0H194.571V10.3591H198.046V13.8135H201.521ZM218.891 24.1767V0H243.212V3.45439H225.841V10.3632H239.741V13.8176H225.841V20.7263H243.212V24.1807H218.891V24.1767ZM246.687 0V24.1767L246.683 24.1807H253.633V17.2719H257.108V20.7263H260.582V24.1807H271.007V20.7263H267.532V17.2719H264.057V13.8176H271.007V3.45439H267.532V0H246.687ZM260.587 13.8176H253.637V3.45439H264.061V10.3632H260.587V13.8176Z" fill="#FF8000"/>
</svg>
