<svg width="220" height="25" viewBox="0 0 220 25" fill="none" xmlns="http://www.w3.org/2000/svg">
<path fill-rule="evenodd" clip-rule="evenodd" d="M0.221436 24.7047V17.7959H3.69636V14.3415H7.17128V10.8872H14.1211V7.43277H17.596V3.97838H7.17128V7.43277H0.221436V3.97838H3.69636V0.523987H21.0669V3.97838H24.5418V10.8872H21.0669V14.3415H17.592V17.7959H10.6421V21.2503H24.5418V24.7047H0.221436ZM55.8163 24.7047V0.528053H76.6618V3.98244H80.1367V14.3456H76.6618V17.8H62.7621V24.7088H55.8122L55.8163 24.7047ZM62.7621 14.3415H73.1868V3.97838H62.7621V14.3415ZM87.0864 0.528053V24.7047H87.0905H107.936V21.2503H94.0363V0.528053H87.0864ZM111.407 24.7047V7.43683H114.881V3.98244H118.356V0.528053H128.781V3.98244H132.256V7.43683H135.731V24.7047H128.781V17.7959H118.356V24.7047H111.407ZM118.356 14.3415H128.781V7.43277H125.306V3.97838H121.831V7.43277H118.356V14.3415ZM149.627 14.3415V24.7047H156.576V14.3415H160.051V10.8872H163.526V0.523987H156.576V10.8872H149.627V0.523987H142.677V10.8872H146.152V14.3415H149.627ZM166.997 24.7047V0.528053H191.318V3.98244H173.947V10.8912H187.847V14.3456H173.947V21.2544H191.318V24.7088H166.997V24.7047ZM194.792 0.528053V24.7047L194.788 24.7088H201.738V17.8H205.213V21.2544H208.688V24.7088H219.113V21.2544H215.638V17.8H212.163V14.3456H219.113V3.98244H215.638V0.528053H194.792ZM208.692 14.3415H201.742V3.97838H212.167V10.8872H208.692V14.3415Z" fill="#FF8000"/>
</svg>
