<svg width="61" height="19" viewBox="0 0 61 19" fill="none" xmlns="http://www.w3.org/2000/svg">
<path fill-rule="evenodd" clip-rule="evenodd" d="M0 19V13.5714H2.65217V10.8571H5.30435V8.14286H10.6087V5.42857H13.2609V2.71429H5.30435V5.42857H0V2.71429H2.65217V0H15.913V2.71429H18.5652V8.14286H15.913V10.8571H13.2609V13.5714H7.95652V16.2857H18.5652V19H0ZM23.8695 19V16.2857H21.2173V0H26.5216V16.2857H34.4782V0H39.7825V16.2857H37.1303V19H23.8695ZM42.4348 0V19H47.7392V13.5714H58.3479V10.8571H61V2.71429H58.3479V0H42.4348ZM55.6957 10.8571H47.7392V2.71429H55.6957V10.8571Z" fill="#FF8000"/>
</svg>
