<svg width="375" height="51" viewBox="0 0 375 51" fill="none" xmlns="http://www.w3.org/2000/svg">
<g clip-path="url(#clip0_113_104)">
<path fill-rule="evenodd" clip-rule="evenodd" d="M96.342 0H56.9079V5.45844H51.4155V44.6492H56.9079V50.1076H96.342V44.6492H101.834V5.45844H96.342V0ZM95.8482 38.6999H90.3558V44.1584H62.8941V38.6999H57.4017V11.4077H62.8941V5.94926H90.3558V11.4077H95.8482V38.6999ZM133.292 0.892395H139.278H156.249V51H133.292V45.5416H128.787V51H105.83V0.892395H128.787V6.35084H133.292V0.892395ZM139.278 45.0508H150.263V6.84165H139.278V23.217H133.786V17.7585H128.293V12.3001H122.801V6.84165H111.816V45.0508H122.801V28.6754H128.293V34.1339H133.786V39.5923H139.278V45.0508ZM84.8635 38.6999H68.3865V11.4077H84.8635V38.6999ZM78.8773 17.3569H74.3727V32.7506H78.8773V17.3569ZM10.9847 0.746643H44.9265V6.20509H50.4188V23.562H22.9571V28.0389H50.4188V45.3958H44.9265V50.8543H10.9847V45.3958H5.49235V39.9374H0V11.6635H5.49235V6.20509H10.9847V0.746643ZM33.4479 17.6128H44.4326V12.1543H38.9403V6.6959H16.9709V12.1543H11.4786V17.6128H5.98621V33.9881H11.4786V39.4466H16.9709V44.905H38.9403V39.4466H44.4326V33.9881H33.4479V39.4466H22.4632V33.9881H16.9709V17.6128H22.4632V12.1543H33.4479V17.6128ZM317.598 0.746643H283.657V6.20509H278.164V11.6635H272.672V39.9374H278.164V45.3958H283.657V50.8543H317.598V45.3958H323.091V28.0389H295.629V23.562H323.091V6.20509H317.598V0.746643ZM306.12 17.6128V12.1543H295.135V17.6128H289.643V33.9881H295.135V39.4466H306.12V33.9881H317.104V39.4466H311.612V44.905H289.643V39.4466H284.15V33.9881H278.658V17.6128H284.15V12.1543H289.643V6.6959H311.612V12.1543H317.104V17.6128H306.12ZM220.711 0.746643H226.698H265.638V50.8543H220.711V0.746643ZM237.685 12.1543H259.655V6.6959H226.701V44.905H259.655V39.4466H237.685V28.5297H259.655V23.0712H237.685V12.1543ZM196.746 0.892395H190.76V6.35084H186.255V0.892395H163.298V51H186.255V45.5416H190.76V51H213.717V0.892395H196.746ZM207.73 45.0508H196.746V39.5923H191.253V34.1339H185.761V28.6754H180.269V45.0508H169.284V6.84165H180.269V12.3001H185.761V17.7585H191.253V23.217H196.746V6.84165H207.73V45.0508ZM330.073 0H369.014H369.017H375.003V17.357H364.018V50.1076H341.094L341.088 44.1643L341.064 17.357H330.073V0ZM358.029 11.4077H369.014V5.94926H336.06V11.4077H347.044L347.071 44.1584H358.029V11.4077Z" fill="#25133D"/>
<path fill-rule="evenodd" clip-rule="evenodd" d="M86.7641 2.3797H59.3024V7.83814H53.8101V35.1304H59.3024V40.5888H86.7641V35.1304H92.2565V7.83814H86.7641V2.3797ZM81.2718 35.1304H64.7947V7.83814H81.2718V35.1304ZM135.686 19.6474H130.194V14.189H124.702V8.73054H119.209V3.27209H108.222V41.4812H119.209V25.1059H124.702V30.5643H130.194V36.0228H135.686V41.4812H146.671V3.27209H135.686V19.6474ZM13.3792 3.12634H35.3486V8.58479H40.841V14.0432H29.8563V8.58479H18.8716V14.0432H13.3792V30.4186H18.8716V35.877H29.8563V30.4186H40.841V35.877H35.3486V41.3354H13.3792V35.877H7.88688V30.4186H2.39453V14.0432H7.88688V8.58479H13.3792V3.12634ZM308.02 3.12634H286.051V8.58479H280.559V14.0432H275.066V30.4186H280.559V35.877H286.051V41.3354H308.02V35.877H313.513V30.4186H302.528V35.877H291.543V30.4186H286.051V14.0432H291.543V8.58479H302.528V14.0432H313.513V8.58479H308.02V3.12634ZM256.063 41.3354H223.106V3.12634H256.063V8.58479H234.091V19.5017H256.063V24.9601H234.091V35.877H256.063V41.3354ZM193.154 19.6474H187.662V14.189H182.169V8.73054H176.677V3.27209H165.689V41.4812H176.677V25.1059H182.169V30.5643H187.662V36.0228H193.154V41.4812H204.139V3.27209H193.154V19.6474ZM332.468 7.83814V2.3797H365.422V7.83814H354.437V40.5888H343.48L343.453 7.83814H332.468Z" fill="url(#paint0_linear_113_104)"/>
<path fill-rule="evenodd" clip-rule="evenodd" d="M86.7641 2.08224H59.3024V7.54069H53.8101V34.8329H59.3024V40.2913H86.7641V34.8329H92.2565V7.54069H86.7641V2.08224ZM91.0592 8.73054V33.6431H85.5669V39.1015H60.4996V33.6431H55.0073V8.73054H60.4996V3.2721H85.5669V8.73054H91.0592ZM130.194 19.35H135.686V2.97464H146.671V41.1837H135.686V35.7253H130.194V30.2669H124.702V24.8084H119.209V41.1837H108.225V2.97464H119.209V8.43308H124.702V13.8915H130.194V19.35ZM136.884 4.16449V19.35V20.5398H128.997V15.0814H123.504V9.62293H118.012V4.16449H109.422V39.9939H118.012V23.6186H125.899V29.077H131.391V34.5354H136.884V39.9939H145.474V4.16449H136.884ZM63.5974 6.35083H64.7947H82.4689V36.0227H63.5974V6.35083ZM64.7947 34.8329H81.2717V7.54068H64.7947V34.8329ZM13.3792 2.82886H35.3486V8.2873H40.841V13.7457H29.8563V8.2873H18.8716V13.7457H13.3792V30.1211H18.8716V35.5795H29.8563V30.1211H40.841V35.5795H35.3486V41.038H13.3792V35.5795H7.88688V30.1211H2.39453V13.7457H7.88688V8.2873H13.3792V2.82886ZM39.6437 12.5559V9.47715H34.1514V4.01871H14.5765V9.47715H9.08412V14.9356H3.59177V28.9312H9.08412V34.3897H14.5765V39.8481H34.1514V34.3897H39.6437V31.3109H31.0535V36.7694H17.6743V31.3109H12.182V12.5559H17.6743V7.09745H31.0535V12.5559H39.6437ZM308.02 2.82886H286.051V8.2873H280.559V13.7457H275.066V30.1211H280.559V35.5795H286.051V41.038H308.02V35.5795H313.513V30.1211H302.528V35.5795H291.543V30.1211H286.051V13.7457H291.543V8.2873H302.528V13.7457H313.513V8.2873H308.02V2.82886ZM312.315 9.47715V12.5559H303.725V7.09745H290.346V12.5559H284.854V31.3109H290.346V36.7694H303.725V31.3109H312.315V34.3897H306.823V39.8481H287.248V34.3897H281.756V28.9312H276.263V14.9356H281.756V9.47715H287.248V4.01871H306.823V9.47715H312.315ZM256.06 41.038H223.106V2.82886H256.06V8.2873H234.091V19.2042H256.06V24.6626H234.091V35.5795H256.06V41.038ZM254.863 4.01871H224.303V39.8481H254.863V36.7694H232.893V23.4728H254.863V20.394H232.893V7.09745H254.863V4.01871ZM193.154 19.35H187.662V13.8915H182.169V8.43308H176.677V2.97464H165.692V41.1837H176.677V24.8084H182.169V30.2669H187.662V35.7253H193.154V41.1837H204.139V2.97464H193.154V19.35ZM194.351 19.35V4.16449H202.942V39.9939H194.351V34.5354H188.859V29.077H183.367V23.6186H175.48V39.9939H166.89V4.16449H175.48V9.62293H180.972V15.0814H186.465V20.5398H194.351V19.35ZM332.468 7.54069V2.08224H365.422V7.54069H354.437V40.2913H343.48L343.453 7.54069H332.468ZM353.24 6.35084H364.225V6.34786V3.26912H333.665V6.34786H344.65V7.53771L344.677 39.1015H353.24V6.35084Z" fill="#F6FA00"/>
<path fill-rule="evenodd" clip-rule="evenodd" d="M88.2607 6.05338V0.59494H57.8058V6.05338H52.3135V36.3202H57.8058V41.7787H88.2607V36.3202H93.753V6.05338H88.2607ZM92.2565 34.8329H86.7641V40.2914H59.3024V34.8329H53.81V7.5407H59.3024V2.08225H86.7641V7.5407H92.2565V34.8329ZM36.8451 1.34155V6.8H42.3375V15.2331H28.3597V9.77462H20.3681V15.2331H14.8757V28.6338H20.3681V34.0922H28.3597V28.6338H42.3375V37.0668H36.8451V42.5253H11.8826V37.0668H6.3903V31.6084H0.897949V12.2584H6.3903V6.8H11.8826V1.34155H36.8451ZM29.8562 13.7458H40.8409V8.28731H35.3486V2.82887H13.3792V8.28731H7.88685V13.7458H2.3945V30.1211H7.88685V35.5795H13.3792V41.038H35.3486V35.5795H40.8409V30.1211H29.8562V35.5795H18.8715V30.1211H13.3792V13.7458H18.8715V8.28731H29.8562V13.7458ZM309.517 1.34155V6.8H315.009V15.2331H301.031V9.77462H293.04V15.2331H287.547V28.6338H293.04V34.0922H301.031V28.6338H315.009V37.0668H309.517V42.5253H284.554V37.0668H279.062V31.6084H273.57V12.2584H279.062V6.8H284.554V1.34155H309.517ZM302.528 13.7458H313.513V8.28731H308.02V2.82887H286.051V8.28731H280.558V13.7458H275.066V30.1211H280.558V35.5795H286.051V41.038H308.02V35.5795H313.513V30.1211H302.528V35.5795H291.543V30.1211H286.051V13.7458H291.543V8.28731H302.528V13.7458ZM223.106 1.34155H221.609V42.5253H257.557V34.0922H235.587V26.15H257.557V17.7169H235.587V9.77462H257.557V1.34155H223.106ZM256.063 8.28731H234.094V19.2042H256.063V24.6626H234.094V35.5795H256.063V41.038H223.109V2.82887H256.063V8.28731ZM134.19 1.4873H135.686H148.168V42.671H134.19V37.2126H128.697V31.7541H123.205V26.2957H120.706V42.671H106.728V1.4873H120.706V6.94575H126.198V12.4042H131.691V17.8626H134.19V1.4873ZM135.686 41.1837H146.671V2.97462H135.686V19.3499H130.194V13.8915H124.702V8.43306H119.209V2.97462H108.225V41.1837H119.209V24.8084H124.702V30.2668H130.194V35.7253H135.686V41.1837ZM193.154 1.4873H191.658V17.8626H189.158V12.4042H183.666V6.94575H178.174V1.4873H164.196V42.671H178.174V26.2957H180.673V31.7541H186.165V37.2126H191.658V42.671H205.635V1.4873H193.154ZM204.139 41.1837H193.154V35.7253H187.662V30.2668H182.169V24.8084H176.677V41.1837H165.692V2.97462H176.677V8.43306H182.169V13.8915H187.662V19.3499H193.154V2.97462H204.139V41.1837ZM81.2717 34.8329H64.7947V7.54068H81.2717V34.8329ZM79.7752 9.02799H66.2912V33.3456H79.7752V9.02799ZM330.971 0.59494H365.422H365.425H366.922V9.02801H355.937V41.7816H341.986V40.2943L341.959 9.02801H330.971V0.59494ZM354.437 7.5407H365.422V2.08225H332.468V7.5407H343.453L343.48 40.2914H354.437V7.5407Z" fill="#F24532"/>
</g>
<defs>
<linearGradient id="paint0_linear_113_104" x1="348.945" y1="40.5888" x2="348.945" y2="2.3797" gradientUnits="userSpaceOnUse">
<stop stop-color="#FF8300"/>
<stop offset="1" stop-color="#FFD200"/>
</linearGradient>
<clipPath id="clip0_113_104">
<rect width="375" height="51" fill="white"/>
</clipPath>
</defs>
</svg>
