<svg width="228" height="21" viewBox="0 0 228 21" fill="none" xmlns="http://www.w3.org/2000/svg">
<path fill-rule="evenodd" clip-rule="evenodd" d="M5.76755 20.8833V17.9H2.88378V14.9167H0V5.96667H2.88378V2.98333H5.76755V0H17.3027V2.98333H20.1864V5.96667H14.4189V2.98333H8.65133V5.96667H5.76755V14.9167H8.65133V17.9H14.4189V14.9167H20.1864V17.9H17.3027V20.8833H5.76755ZM23.0702 20.8833V0H40.3728V2.98333H43.2566V11.9333H37.489V14.9167H40.3728V17.9H43.2566V20.8833H34.6053V17.9H31.7215V14.9167H28.8377V20.8833H23.0702ZM28.8377 11.9333H34.6053V8.95H37.489V2.98333H28.8377V11.9333ZM46.1403 0V20.8833H66.3267V17.9H51.9079V11.9333H63.443V8.95H51.9079V2.98333H66.3267V0H46.1403ZM69.2109 20.8833V0H83.6298V2.98333H86.5135V5.96667H89.3973V14.9167H86.5135V17.9H83.6298V20.8833H69.2109ZM74.9784 17.9H80.746V14.9167H83.6298V5.96667H80.746V2.98333H74.9784V17.9ZM95.1644 17.9V20.8833H112.467V17.9H106.7V2.98333H112.467V0H95.1644V2.98333H100.932V17.9H95.1644ZM124.003 2.98333H118.235V0H135.538V2.98333H129.77V20.8833H124.003V2.98333ZM167.259 17.9V20.8833H175.91V17.9H178.794V14.9167H181.678V5.96667H178.794V2.98333H175.91V0H167.259V2.98333H164.375V5.96667H161.491V14.9167H164.375V17.9H167.259ZM167.259 2.98333V14.9167H170.143V17.9H175.91V5.96667H173.026V2.98333H167.259ZM187.445 20.8833V17.9H193.213V5.96667H190.329V2.98333H193.213V0H198.98V17.9H204.748V20.8833H187.445ZM210.516 14.9167H207.632V20.8833H227.818V17.9H216.283V14.9167H222.051V11.9333H224.935V8.95H227.818V2.98333H224.935V0H210.516V2.98333H207.632V5.96667H213.4V2.98333H222.051V5.96667H219.167V8.95H213.4V11.9333H210.516V14.9167Z" fill="#FFD0A1"/>
</svg>
