<svg width="44" height="44" viewBox="0 0 44 44" fill="none" xmlns="http://www.w3.org/2000/svg">
<g clip-path="url(#clip0_104_977)">
<path d="M22 44C34.1503 44 44 34.1503 44 22C44 9.84974 34.1503 0 22 0C9.84974 0 0 9.84974 0 22C0 34.1503 9.84974 44 22 44Z" fill="url(#paint0_linear_104_977)"/>
<path d="M31.6476 13.1834C29.8196 12.3433 27.8993 11.7524 25.9144 11.4108C25.6652 11.854 25.379 12.4448 25.1851 12.9157C23.0802 12.6018 20.9384 12.6018 18.8335 12.9157C18.6119 12.3987 18.3534 11.9001 18.0764 11.4108C16.0915 11.7432 14.162 12.3433 12.3433 13.1926C8.72435 18.5841 7.74575 23.8464 8.23505 29.0348C10.3584 30.6135 12.7403 31.8137 15.2699 32.5799C15.8423 31.8044 16.3408 30.992 16.7747 30.1334C15.9531 29.8288 15.1591 29.4503 14.4021 28.9979C14.5959 28.8502 14.7898 28.7025 14.9745 28.5455C19.4243 30.6504 24.585 30.6504 29.0441 28.5455C29.2288 28.7025 29.4319 28.8502 29.6257 28.9979C28.8687 29.4503 28.0748 29.8288 27.2531 30.1334C27.687 30.9828 28.1948 31.8044 28.7579 32.5707C31.2875 31.8044 33.6694 30.6043 35.7928 29.0256C36.3651 23.0155 34.8049 17.7994 31.6568 13.1742L31.6476 13.1834ZM17.384 25.8498C16.0084 25.8498 14.8914 24.5942 14.8914 23.0525C14.8914 21.5107 15.99 20.2459 17.384 20.2459C18.7781 20.2459 19.8951 21.5015 19.8859 23.0432C19.8767 24.585 18.7873 25.8498 17.384 25.8498ZM26.6161 25.8498C25.2405 25.8498 24.1234 24.5942 24.1234 23.0525C24.1234 21.5107 25.222 20.2459 26.6161 20.2459C28.0101 20.2459 29.1272 21.5015 29.1087 23.0432C29.0903 24.585 28.0101 25.8498 26.6161 25.8498Z" fill="white"/>
</g>
<defs>
<linearGradient id="paint0_linear_104_977" x1="6.44398" y1="6.44398" x2="37.556" y2="37.556" gradientUnits="userSpaceOnUse">
<stop stop-color="#5865F2"/>
<stop offset="0.71" stop-color="#641EE1"/>
<stop offset="1" stop-color="#6A00DB"/>
</linearGradient>
<clipPath id="clip0_104_977">
<rect width="44" height="44" fill="white"/>
</clipPath>
</defs>
</svg>
