<svg width="44" height="44" viewBox="0 0 44 44" fill="none" xmlns="http://www.w3.org/2000/svg">
<g clip-path="url(#clip0_247_155)">
<path d="M13.5388 3.38464L6.76943 6.76931L3.38477 13.5386V30.462L6.76943 37.2306L13.5388 40.6153H30.4621L37.2314 37.2306L40.6161 30.462V13.5386L37.2314 6.76931L30.4621 3.38464H13.5388Z" fill="url(#paint0_linear_247_155)"/>
<path d="M6.76929 3.38464V6.76931H10.154H13.5386V3.38464H10.154H6.76929Z" fill="#000600"/>
<path d="M27.0772 0H23.6926H20.3079H16.9232H13.5386V3.38467H16.9232H20.3079H23.6926H27.0772H30.4619V0H27.0772Z" fill="#000600"/>
<path d="M33.8466 3.38464H30.4619V6.76931H33.8466H37.2313V3.38464H33.8466Z" fill="#000600"/>
<path d="M30.4619 37.2307V40.6154H33.8466H37.2313V37.2307H33.8466H30.4619Z" fill="#000600"/>
<path d="M23.6928 40.6154H20.3081V44H23.6928H27.0774H30.4621V40.6154H27.0774H23.6928Z" fill="#000600"/>
<path d="M13.5386 40.6154V44H16.9232H20.3079V40.6154H16.9232H13.5386Z" fill="#000600"/>
<path d="M10.154 37.2307H6.76929V40.6154H10.154H13.5386V37.2307H10.154Z" fill="#000600"/>
<path d="M6.76943 30.462H3.38477V33.8467V37.2307H6.76943V33.8467V30.462Z" fill="#000600"/>
<path d="M3.38467 23.6927V20.308H0V23.6927V27.0773V30.462H3.38467V27.0773V23.6927Z" fill="#000600"/>
<path d="M0 16.9234V20.308H3.38467V16.9234V13.5387H0V16.9234Z" fill="#000600"/>
<path d="M3.38477 10.154V13.5386H6.76943V10.154V6.76929H3.38477V10.154Z" fill="#000600"/>
<path d="M40.616 13.5387V16.9234V20.308H44V16.9234V13.5387H40.616Z" fill="#000600"/>
<path d="M40.6161 6.76929H37.2314V10.154V13.5386H40.6161V10.154V6.76929Z" fill="#000600"/>
<path d="M40.616 23.6927V27.0773V30.462H44V27.0773V23.6927V20.308H40.616V23.6927Z" fill="#000600"/>
<path d="M37.2314 33.8467V37.2307H40.6161V33.8467V30.462H37.2314V33.8467Z" fill="#000600"/>
<path d="M33.2264 22.2451V20.8077H32.6621V19.328H32.0923V18.1039H31.5859V16.8682H31.0372V15.5057H30.2773V14.8726H29.1588V14.3478H27.8271V13.7923H26.5607V13.4801H25.0415V14.0404C24.8868 14.3362 24.7287 14.6722 24.6135 14.9523C22.99 14.7103 21.3385 14.7103 19.715 14.9523C19.5474 14.5618 19.3524 14.1849 19.1439 13.8148V13.3527H17.6247V13.7916H16.1054V14.3471H14.7968V15.107H13.797V16.584H12.8366V17.9771H12.2771V19.4418H11.5171V20.6052H10.916V22.0065H10.5786V23.5257H10.7579V24.9271H11.1061V26.4463H11.4749C11.4899 26.7591 11.5117 27.0713 11.541 27.3834C11.648 27.4632 11.7564 27.5415 11.8654 27.6186V28.0643H12.4352V28.6552H13.1952V29.1194H14.3872V29.6047H15.4184V30.0265H16.6793C16.7747 30.0572 16.8702 30.0879 16.9656 30.1165C17.4072 29.5181 17.7916 28.8917 18.1263 28.2299C17.4924 27.9948 16.8804 27.7031 16.2963 27.3541C16.4237 27.2567 16.5505 27.1592 16.6739 27.0576V27.3044H17.4222C17.4263 27.3057 17.4297 27.3071 17.4338 27.3091V27.5627H18.1236C18.1467 27.5709 18.1706 27.5777 18.1938 27.5858V27.7481H18.7199C18.7792 27.7644 18.8385 27.7801 18.8978 27.7958V28.065H19.7668V28.1706H21.0093C21.0093 28.1706 21.0148 28.1706 21.0175 28.1713V28.3608H23.9864V28.1706H25.3605V27.896H26.1204V27.5899C26.1477 27.5811 26.1749 27.5722 26.2022 27.5634H26.7958V27.3473C26.832 27.333 26.8681 27.3194 26.9042 27.305H27.5551V27.0222C27.5667 27.0167 27.5783 27.012 27.5899 27.0065C27.7323 27.1278 27.8891 27.2417 28.0383 27.3555C27.4542 27.7044 26.8422 27.9962 26.2083 28.2313C26.543 28.8863 26.9349 29.5201 27.369 30.1111C27.457 30.0845 27.5449 30.0559 27.6328 30.0279H29.075V29.606H29.7082V29.2686H30.8266V28.6566H31.7972V28.0664H31.7979H32.7466V27.4127C32.7623 27.4011 32.7787 27.3896 32.7943 27.378C32.8127 27.1858 32.827 26.9949 32.84 26.8055H33.1058V25.2862H33.281V23.767H33.4227V22.2478H33.2271L33.2264 22.2451ZM19.7668 21.0421V21.5669H20.1219V22.0631H20.417V22.9137H20.2576V23.5257H20.1219V24.0758H19.6578V24.5242H19.1439V24.709H18.1945V24.5242H17.6983V24.0758H17.076V23.063H16.862V22.0631H17.0385V21.5669H17.4345V21.143H17.9695V20.8077H19.3627V21.0162H19.7348C19.7457 21.0251 19.7566 21.0339 19.7675 21.0428L19.7668 21.0421ZM24.0566 21.721H24.394V21.3038H24.7457V20.9617H25.3155V20.8083H26.2015V20.9617H26.6684V21.3038H27.0671V21.721H27.4086C27.4154 21.7346 27.4215 21.7482 27.4283 21.7625V22.4809H27.5551V23.232H27.2389V23.7643H26.8804V24.3545H26.4796V24.5822H26.0366V24.709H25.4027V24.5822H25.0238V24.2646H24.5569V23.8222H24.2638V23.0623H23.8419V22.3262H24.0573V21.7203L24.0566 21.721Z" fill="white"/>
</g>
<defs>
<linearGradient id="paint0_linear_247_155" x1="3.38477" y1="22.0003" x2="40.6161" y2="22.0003" gradientUnits="userSpaceOnUse">
<stop stop-color="#5865F2"/>
<stop offset="0.71" stop-color="#641EE1"/>
<stop offset="1" stop-color="#6A00DB"/>
</linearGradient>
<clipPath id="clip0_247_155">
<rect width="44" height="44" fill="white"/>
</clipPath>
</defs>
</svg>
