<svg width="254" height="47" viewBox="0 0 254 47" fill="none" xmlns="http://www.w3.org/2000/svg">
<g clip-path="url(#clip0_113_141)">
<path fill-rule="evenodd" clip-rule="evenodd" d="M10.106 0H15.6134H46.3858V45.9125H10.106V40.911H5.05301V35.9096H0V10.0029H5.05301V5.00145H10.106V0ZM20.6664 10.4526H40.8785V5.45117H15.6134V10.4526H10.5604V15.4541H5.50737V30.4584H10.5604V35.4599H15.6134V40.4613H40.8785V20.4555H25.7194V25.457H30.7724V35.4599H20.6664V30.4584H15.6134V15.4541H20.6664V10.4526ZM248.493 0.545105H212.667V46.4576H254V0.545105H248.493ZM248.493 10.9977H228.281V21.0006H248.493V26.0021H228.281V36.005H248.493V41.0064H218.175V5.99628H248.493V10.9977ZM90.1143 5.81914H95.1673V10.8206H100.22V46.7302H79.0995V36.7273H74.9552V46.7302H53.8345V10.8206H58.8875V5.81914H63.9405V0.817688H90.1143V5.81914ZM84.6069 31.2761V41.279H94.7129V16.2718H89.6599V11.2703H84.6069V6.26886H69.4479V11.2703H64.3949V16.2718H59.3418V41.279H69.4479V31.2761H84.6069ZM74.501 11.2703H79.554V16.2718H84.607V26.2747H69.448V16.2718H74.501V11.2703ZM128.905 30.9599V0.951233H107.785V46.8637H149.117V30.9599H128.905ZM143.613 41.4153H113.295V6.4024H123.401V36.4111H143.613V41.4126V41.4153ZM181.991 1.08752H187.499H203.112V21.9928H198.059V26.0948H203.112V47H181.991V41.9986H177.847V47H156.726V26.0948H161.779V21.9928H156.726V1.08752H177.847V6.08897H181.991V1.08752ZM192.552 16.5416H197.605V6.5387H187.499V11.5401H182.445V16.5416H177.392V11.5401H172.339V6.5387H162.233V16.5416H167.286V21.543H172.339V26.5445H167.286V31.5459H162.233V41.5488H172.339V36.5474H177.392V31.5459H182.445V36.5474H187.499V41.5488H197.605V31.5459H192.552V26.5445H187.499V21.543H192.552V16.5416Z" fill="#25133D"/>
<path fill-rule="evenodd" clip-rule="evenodd" d="M7.25589 6.90935H12.3089V1.9079H37.574V6.90935H17.3619V11.9108H12.3089V26.9151H17.3619V31.9166H27.4679V21.9137H22.4149V16.9122H37.574V36.918H12.3089V31.9166H7.25589V26.9151H2.20288V11.9108H7.25589V6.90935ZM245.188 7.45445V2.453H214.87V37.4632H245.188V32.4617H224.976V22.4588H245.188V17.4574H224.976V7.45445H245.188ZM86.3557 7.72704H81.3027V2.72559H66.1436V7.72704H61.0906V12.7285H56.0376V37.7357H66.1436V27.7328H81.3027V37.7357H91.4087V12.7285H86.3557V7.72704ZM81.3027 22.7314H66.1436V12.7285H71.1966V7.72704H76.2496V12.7285H81.3027V22.7314ZM120.094 2.85913H109.988V37.872H140.309V32.8706H120.094V2.85913ZM179.141 7.99687H184.194V2.99542H194.3V12.9983H189.247V17.9998H184.194V23.0012H189.247V28.0027H194.3V38.0056H184.194V33.0041H179.141V28.0027H174.088V33.0041H169.035V38.0056H158.929V28.0027H163.982V23.0012H169.035V17.9998H163.982V12.9983H158.929V2.99542H169.035V7.99687H174.088V12.9983H179.141V7.99687Z" fill="url(#paint0_linear_113_141)"/>
<path fill-rule="evenodd" clip-rule="evenodd" d="M7.25589 6.90935H12.3089V1.9079H37.574V6.90935H17.3619V11.9108H12.3089V26.9151H17.3619V31.9166H27.4679V21.9137H22.4149V16.9122H37.574V36.918H12.3089V31.9166H7.25589V26.9151H2.20288V11.9108H7.25589V6.90935ZM13.4104 2.99813V6.90935V7.99958H8.35737V13.001H3.30436V25.8249H8.35737V30.8264H13.4104V35.8278H36.4725V18.0025H23.5164V20.8235H28.5694V33.0068H16.2604V28.0054H11.2074V10.8206H16.2604V5.81911H36.4725V2.99813H13.4104ZM245.188 7.45445V2.453H214.87V37.4632H245.188V32.4617H224.976V22.4588H245.188V17.4574H224.976V7.45445H245.188ZM224.976 18.5476H244.087V21.3686H223.875V33.5519H244.087V36.3729H215.972V3.54324H244.087V6.36422H223.875V18.5476H224.976ZM81.3027 7.72704H86.3557V12.7285H91.4087V37.7357H81.3027V27.7328H66.1436V37.7357H56.0376V12.7285H61.0906V7.72704H66.1436V2.72559H81.3027V7.72704ZM90.3072 36.6455V13.8187H85.2542V8.81727H80.2012V3.81582H67.2451V8.81727H62.1921V13.8187H57.1391V36.6455H65.0422V26.6426H82.4041V36.6455H90.3072ZM77.351 6.63678V11.6382H82.404V23.8216H65.042V11.6382H70.095V6.63678H77.351ZM66.1435 22.7314H81.3025V12.7285H76.2495V7.72701H71.1965V12.7285H66.1435V22.7314ZM120.094 2.85913H109.988V37.8693H140.306V32.8678H120.094V2.85913ZM139.207 33.9608V36.7818H111.092V3.94937H118.995V33.9581H139.207V33.9608ZM179.141 7.99687H184.194V2.99542H194.3V12.9983H189.247V17.9998H184.194V23.0012H189.247V28.0027H194.3V38.0056H184.194V33.0041H179.141V28.0027H174.088V33.0041H169.035V38.0056H158.929V28.0027H163.982V23.0012H169.035V17.9998H163.982V12.9983H158.929V2.99542H169.035V7.99687H174.088V12.9983H179.141V7.99687ZM185.296 4.08566V7.99687V9.08711H180.242V14.0886H172.987V9.08711H167.934V4.08566H160.03V11.9081H165.083V16.9095H170.136V24.0915H165.083V29.0929H160.03V36.9153H167.934V31.9139H172.987V26.9124H180.242V31.9139H185.296V36.9153H193.199V29.0929H188.146V24.0915H183.093V16.9095H188.146V11.9081H193.199V4.08566H185.296Z" fill="#F6FA00"/>
<path fill-rule="evenodd" clip-rule="evenodd" d="M10.9322 0.545105H12.309H38.951V8.27214H18.7389V13.2736H13.6859V25.5524H18.7389V30.5538H26.0912V23.2765H21.0382V15.5495H38.951V38.2808H10.9322V33.2794H5.87919V28.2779H0.826172V10.548H5.87919V5.54656H10.9322V0.545105ZM17.3621 6.90935H37.5741V1.9079H12.309V6.90935H7.25603V11.9108H2.20301V26.9151H7.25603V31.9166H12.309V36.918H37.5741V16.9122H22.4151V21.9137H27.4681V31.9166H17.3621V26.9151H12.309V11.9108H17.3621V6.90935ZM245.188 1.09021H213.493V38.8259H246.565V31.0989H226.353V23.8216H246.565V16.0946H226.353V8.81724H246.565V1.09021H245.188ZM245.188 7.45445H224.976V17.4574H245.188V22.4588H224.976V32.4617H245.188V37.4632H214.87V2.453H245.188V7.45445ZM87.7324 6.36424V11.3657H92.7854V39.0985H79.9257V29.0956H67.5204V39.0985H54.6606V11.3657H59.7137V6.36424H64.7667V1.36279H82.6794V6.36424H87.7324ZM81.3026 37.7357H91.4086V12.7285H86.3556V7.72704H81.3026V2.72559H66.1435V7.72704H61.0905V12.7285H56.0375V37.7357H66.1435V27.7328H81.3026V37.7357ZM71.1966 7.72705H76.2496V12.7285H81.3026V22.7314H66.1436V12.7285H71.1966V7.72705ZM79.9258 21.3686V14.0913H74.8727V9.08984H72.5734V14.0913H67.5204V21.3686H79.9258ZM121.471 31.505V1.49634H108.611V39.2321H141.683V31.505H121.471ZM140.309 37.872H109.99V2.85913H120.096V32.8678H140.309V37.8693V37.872ZM182.817 1.63263H184.194H195.677V14.3611H190.624V19.3626H185.571V21.6384H190.624V26.6399H195.677V39.3684H182.817V34.3669H177.764V29.3655H175.465V34.3669H170.412V39.3684H157.552V26.6399H162.605V21.6384H167.658V19.3626H162.605V14.3611H157.552V1.63263H170.412V6.63408H175.465V11.6355H177.764V6.63408H182.817V1.63263ZM189.247 12.9983H194.3V2.99542H184.194V7.99687H179.141V12.9983H174.088V7.99687H169.035V2.99542H158.929V12.9983H163.982V17.9998H169.035V23.0012H163.982V28.0027H158.929V38.0056H169.035V33.0041H174.088V28.0027H179.141V33.0041H184.194V38.0056H194.3V28.0027H189.247V23.0012H184.194V17.9998H189.247V12.9983Z" fill="#F24532"/>
</g>
<defs>
<linearGradient id="paint0_linear_113_141" x1="19.8898" y1="36.918" x2="19.8898" y2="1.9079" gradientUnits="userSpaceOnUse">
<stop stop-color="#FF8300"/>
<stop offset="1" stop-color="#FFD200"/>
</linearGradient>
<clipPath id="clip0_113_141">
<rect width="254" height="47" fill="white"/>
</clipPath>
</defs>
</svg>
