<svg width="155" height="45" viewBox="0 0 155 45" fill="none" xmlns="http://www.w3.org/2000/svg">
<path fill-rule="evenodd" clip-rule="evenodd" d="M0 17.0728V0H4.85778V7.31812H12.1444V0H17.0022V17.0728H12.1444V9.75463H4.85778V17.0728H0ZM21.8572 17.0728V14.6334H26.715V2.43937H21.8572V0H36.4277V2.43937H31.5699V14.6334H36.4277V17.0728H21.8572ZM41.2854 7.31812V9.7575H55.8559V7.31812H41.2854ZM60.7136 17.0728V14.6334H58.2847V12.194H63.1424V14.6334H70.4291V9.75463H60.7136V7.31526H58.2847V2.43937H60.7136V0H72.8551V2.43937H75.284V4.87875H70.4263V2.43937H63.1396V7.31812H72.8551V9.7575H75.284V14.6362H72.8551V17.0756H60.7136V17.0728ZM82.5709 14.6334V17.0728V17.0756H92.2865V14.6362H94.7154V12.1969H89.8576V14.6362H84.9998V12.1969H82.5709V4.87875H84.9998V2.43937H89.8576V4.87875H94.7154V2.43937H92.2865V0H82.5709V2.43651H80.142V4.87588H77.7131V12.194H80.142V14.6334H82.5709ZM99.5729 17.0728V14.6334H97.144V2.43937H99.5729V0H111.715V2.43937H114.143V14.6334H111.715V17.0728H99.5729ZM101.999 14.6334H109.286V2.43937H101.999V14.6334ZM116.572 0V17.0728L116.57 17.0756H121.427V12.1969H123.856V14.6362H126.285V17.0756H133.572V14.6362H131.143V12.1969H128.714V9.7575H133.572V2.43937H131.143V0H116.572ZM126.288 9.7575H121.43V2.43937H128.717V7.31812H126.288V9.7575ZM136.001 17.0728V0H153V2.43937H140.859V7.31812H150.574V9.7575H140.859V14.6362H153V17.0756H136.001V17.0728ZM3.51124 25H151.489V27.3649H3.51124V25ZM3.51124 42.6774H0V27.3649L3.51124 27.3649V42.6774ZM3.51124 42.6774V45H151.489V42.6774L3.51124 42.6774ZM151.489 27.318V42.6774H155V27.318H151.489ZM4.96631 28.2303H11.0642V41.7697H4.96631V28.2303ZM12.6663 28.231H18.7642V41.7705H12.6663V28.231ZM26.4634 28.2326H20.3655V41.7721H26.4634V28.2326ZM28.0654 28.2334H34.1633V41.7729H28.0654V28.2334ZM41.8625 28.235H35.7646V41.7744H41.8625V28.235ZM43.4646 28.2357H49.5625V41.7752H43.4646V28.2357ZM57.2617 28.2373H51.1638V41.7768H57.2617V28.2373ZM58.8638 28.2381H64.9617V41.7775H58.8638V28.2381ZM72.6606 28.2397H66.5627V41.7791H72.6606V28.2397ZM74.2627 28.2404H80.3606V41.7799H74.2627V28.2404Z" fill="#FF8000"/>
</svg>