<svg width="36" height="35" viewBox="0 0 36 35" fill="none" xmlns="http://www.w3.org/2000/svg">
<path fill-rule="evenodd" clip-rule="evenodd" d="M22.5417 7.48016V9.97076H25.0492V12.4656V14.952V17.4468H22.5417V19.9374H20.0385V22.428V24.9228H17.5352H15.0278V22.428V19.9374H17.5352V17.4468H20.0385V14.952V12.4656H17.5352H15.0278H12.5203V14.952H10.0171V12.4656V9.97076H12.5203V7.48016H15.0278H17.5352H20.0385H22.5417ZM15.0277 29.9082V27.4134H17.5352H20.0384V29.9082H17.5352H15.0277Z" fill="#7D423F"/>
<path fill-rule="evenodd" clip-rule="evenodd" d="M30.4266 2.49478V4.98538V7.4802V9.97079V12.4656V14.952V17.4468H30.0558V19.9374H30.4266V22.428V24.9228V27.4134V29.9082V32.3988H32.9341V29.9082V27.4134V24.9228V22.428V19.9374H32.5632V17.4468H32.9341V14.952V12.4656V9.97079V7.4802V4.98538V2.49478H30.4266ZM27.5525 29.9082H25.0493H22.9127V32.3988H25.4201H27.5525H30.0558V29.9082V27.4134H27.5525V29.9082ZM15.0279 29.9082H17.5354H20.0386H22.5419V32.3988H20.0386H17.5354H15.0279H12.5205H10.0172H7.51398H5.01074V29.9082H7.51398H10.0172H12.5205H15.0279Z" fill="#C47A41"/>
<path d="M27.5524 4.98538H7.5138V7.4802H5.00635V29.9082H15.0235V27.4176H20.0342V29.9082H27.5482V27.4176H30.0556V4.98538H27.5482H27.5524ZM17.5352 24.9228H15.0277V19.9374H17.5352V17.4426H20.0384V12.4614H12.5245V14.952H10.017V9.9708H12.5245V7.4802H22.5459V9.9708H25.0534V17.4468H22.5459V19.9416H20.0384V24.927H17.5352V24.9228Z" fill="#F2BF33"/>
<path d="M27.5524 2.49478H25.0492H22.5417H20.0385H17.5352H15.0278H12.5203H10.0171H7.51381H5.01057H2.50732V4.98538V7.4802V9.9708V12.4656V14.952V17.4468V19.9374V22.428V24.9228V27.4134V29.9082V32.3988H5.01057V29.9082V27.4134V24.9228V22.428V19.9374V17.4468V14.952V12.4656V9.9708V7.4802H7.51381V4.98538H10.0171H12.5203H15.0278H17.5352H20.0385H22.5417H25.0492H27.5524H30.0556V2.49478H27.5524Z" fill="#F2D072"/>
<path fill-rule="evenodd" clip-rule="evenodd" d="M7.51388 2.49481H10.0171H12.5204H15.0278H17.5353H20.0385H22.5418H25.0492H27.5525H30.0557L32.5631 2.4948V4.9854V7.48022V9.97082V12.4656V14.952V17.4468V19.9374V22.428V24.9228V27.4134V29.9083V32.3989H35.0664V29.9083V27.4134V24.9228V22.428V19.9374V17.4468V14.952V12.4656V9.97082V7.48022V4.9854V2.4948L32.5632 2.49481V0H30.0557H27.5525H25.0492H22.5418H20.0385H17.5353H15.0278H12.5204H10.0171H7.51388H5.01063H2.50739V2.4948H0V4.9854V7.48022V9.97082V12.4656V14.952V17.4468V19.9374V22.428V24.9228V27.4134V29.9083V32.3989H2.50746V29.9083V27.4134V24.9228V22.428V19.9374V17.4468V14.952V12.4656V9.97082V7.48022V4.9854V2.49481H5.01063H7.51388ZM25.0492 32.3989H27.5525H30.0557H32.5632V34.8937H30.0557H27.5525H25.0492H22.5418H20.0385H17.5353H15.0278H12.5204H10.0171H7.51388H5.01063H2.50739V32.3989H5.01063H7.51388H10.0171H12.5204H15.0278H17.5353H20.0385H22.5418H25.0492Z" fill="#202126"/>
</svg>
