<svg width="29" height="360" viewBox="0 0 29 360" fill="none" xmlns="http://www.w3.org/2000/svg">
<path fill-rule="evenodd" clip-rule="evenodd" d="M1.55671e-06 348.129L4.57633e-05 11.019L3.47387 11.019L3.47387 3.08035L6.94784 3.08035L6.94783 11.0225L3.47401 11.0225L3.47396 348.129L1.55671e-06 348.129ZM7 3.07694L7 -2.95996e-05L22 -2.76326e-05L22 3.07694L7 3.07694ZM25.5262 11.019L25.5261 348.129L29.0001 348.129L29.0001 11.019L25.5262 11.019ZM22.0505 11.0225L22.0505 3.08036L25.5245 3.08036L25.5245 11.0225L22.0505 11.0225ZM6.94946 360L6.94946 356.923L22.0519 356.923L22.0519 360L6.94946 360ZM3.47388 348.132L3.47388 356.074L6.94784 356.074L6.94784 348.132L3.47388 348.132ZM22.0505 356.075L22.0505 348.132L25.5245 348.132L25.5245 356.075L22.0505 356.075Z" fill="#FFFBF7"/>
</svg>
