<svg width="44" height="44" viewBox="0 0 44 44" fill="none" xmlns="http://www.w3.org/2000/svg">
<g clip-path="url(#clip0_104_973)">
<path d="M37.5577 37.5563C46.1493 28.9648 46.1493 15.0352 37.5577 6.44365C28.9662 -2.14788 15.0366 -2.14788 6.44502 6.44365C-2.14651 15.0352 -2.14651 28.9648 6.44502 37.5563C15.0366 46.1479 28.9662 46.1479 37.5577 37.5563Z" fill="black"/>
<path d="M28.5306 32.4323H30.9056L15.5811 11.4509H13.0333L28.5306 32.4298V32.4323ZM30.0344 8.93616H34.3196L24.9592 20.0136L35.9706 35.0867H27.3495L20.5953 25.9448L12.8682 35.0867H8.5805L18.5937 23.237L8.0293 8.93616H16.8715L22.9754 17.2932L30.0344 8.93616Z" fill="white"/>
</g>
<defs>
<clipPath id="clip0_104_973">
<rect width="44" height="44" fill="white"/>
</clipPath>
</defs>
</svg>
