<svg width="44" height="44" viewBox="0 0 44 44" fill="none" xmlns="http://www.w3.org/2000/svg">
<g clip-path="url(#clip0_245_121)">
<path d="M40.616 13.5387V10.154V6.76934H37.2313V3.38467H33.8467H30.462V0H27.0773H23.6927H20.308H16.9233H13.5387V3.38467H10.154H6.76934V6.76934H3.38467V10.154V13.5387H0V16.9233V20.308H3.38467H0V23.6927V27.0773V30.462H3.38467V33.8467V37.2313H6.76934V40.6153H10.154H13.5387V44H16.9233H20.308V40.6153V44H23.6927H27.0773H30.462V40.6153H33.8467H37.2313V37.2313H40.616V33.8467V30.462H44V27.0773V23.6927V20.308H40.616H44V16.9233V13.5387H40.616Z" fill="#000600"/>
<path d="M24.8752 20.8301V19.6019H26.1041V18.3731H27.3323V17.1449H28.5612V15.916H29.79V14.6878H31.0182V13.459H32.2471V12.2301H28.5618V13.459H27.333V14.6878H26.1048V15.916H24.8759V17.1449H23.6477V18.3731H21.1907V17.1449H19.9625V15.916H18.7336V14.6878H17.5054V13.459H16.2766V12.2301H10.1343V14.6872H11.3631V15.9153H12.5913V17.1442H13.8202V18.3724H15.0484V19.6013H16.2773V20.8294H17.5061V22.0583H18.7343V23.2872H17.5061V24.5154H16.2773V25.7442H15.0484V26.9724H13.8202V28.2013H12.5913V29.4302H11.3631V30.6583H10.1343V31.8872H13.8195V30.6583H15.0477V29.4302H16.2766V28.2013H17.5054V26.9724H18.7336V25.7442H21.1907V26.9724H22.4195V28.2013H23.6484V29.4302H24.8766V30.6583H26.1055V31.8872H32.2478V29.4302H31.0189V28.2013H29.7907V26.9724H28.5618V25.7442H27.333V24.5154H26.1048V23.2872H24.8759V22.0583H23.6477V20.8294H24.8759L24.8752 20.8301ZM24.8752 24.5154V25.7442H26.1041V26.9724H27.3323V28.2013H28.5612V29.4302H29.79V30.6583H27.333V29.4302H26.1048V28.2013H24.8759V26.9724H23.6477V25.7442H22.4189V24.5154H21.19V23.2872H19.9618V20.8301H18.7329V19.6019H17.5048V18.3731H16.2759V17.1449H15.047V15.916H13.8188V14.6878H12.59V13.459H15.047V14.6878H16.2759V15.916H17.5048V17.1449H18.7329V18.3731H19.9618V19.6019H21.19V20.8301H22.4189V23.2872H23.6477V24.5154H24.8759H24.8752Z" fill="white"/>
</g>
<defs>
<clipPath id="clip0_245_121">
<rect width="44" height="44" fill="white"/>
</clipPath>
</defs>
</svg>
