<svg width="59" height="16" viewBox="0 0 59 16" fill="none" xmlns="http://www.w3.org/2000/svg">
<g clip-path="url(#clip0_98_1002)">
<path d="M15.3197 1.88274H1.57031V14.3162H15.3197V1.88274Z" fill="#FFB600"/>
<path d="M13.5261 0.198967H3.36279V1.88274H13.5261V0.198967Z" fill="#FC8300"/>
<path d="M13.5261 14.3162H3.36279V16H13.5261V14.3162Z" fill="#FC8300"/>
<path d="M1.57031 12.5534L1.57031 3.64461H3.08752e-05L3.08752e-05 12.5534H1.57031Z" fill="#FC8300"/>
<path d="M16.8889 12.5534V3.64461H15.3186V12.5534H16.8889Z" fill="#FC8300"/>
<path d="M3.36289 1.88274H1.57031V3.64461H3.36289V1.88274Z" fill="#FC8300"/>
<path d="M15.3187 1.88274H13.5261V3.64461H15.3187V1.88274Z" fill="#FC8300"/>
<path d="M15.3187 12.5534H13.5261V14.3153H15.3187V12.5534Z" fill="#FC8300"/>
<path d="M3.36289 12.5534H1.57031V14.3153H3.36289V12.5534Z" fill="#FC8300"/>
<path d="M12.076 5.98012V5.24098H10.9191V4.24057H5.74191V5.2791H4.81299V7.56999H5.74191V8.76657H9.76316V10.9106H7.1003V10.097H4.81299V10.9106H5.72867V11.9575H10.5795V11.0426H12.076V8.75263H10.9191V7.56069H7.12679V5.28839H9.76316V5.98012H12.076Z" fill="#D36705"/>
<path d="M8.96205 3.01331H7.84204V12.7877H8.96205V3.01331Z" fill="#D36705"/>
<path d="M36.3312 1.68377H22.5818V14.1173H36.3312V1.68377Z" fill="#FFB600"/>
<path d="M34.5386 0H24.3752V1.68377H34.5386V0Z" fill="#FC8300"/>
<path d="M34.5386 14.1182H24.3752V15.802H34.5386V14.1182Z" fill="#FC8300"/>
<path d="M22.5818 12.3554V3.44657H21.0115V12.3554H22.5818Z" fill="#FC8300"/>
<path d="M37.9014 12.3554V3.44657H36.3311V12.3554H37.9014Z" fill="#FC8300"/>
<path d="M24.3744 1.68377H22.5818V3.44564H24.3744V1.68377Z" fill="#FC8300"/>
<path d="M36.3302 1.68377H34.5376V3.44564H36.3302V1.68377Z" fill="#FC8300"/>
<path d="M36.3302 12.3545H34.5376V14.1163H36.3302V12.3545Z" fill="#FC8300"/>
<path d="M24.3744 12.3545H22.5818V14.1163H24.3744V12.3545Z" fill="#FC8300"/>
<path d="M33.0875 5.78209V5.04294H31.9316V4.04253H26.7534V5.08106H25.8254V7.37102H26.7534V8.56854H30.7747V10.7125H28.1128V9.899H25.8254V10.7125H26.7411V11.7594H31.591V10.8446H33.0875V8.55366H31.9316V7.36266H28.1383V5.08943H30.7747V5.78209H33.0875Z" fill="#D36705"/>
<path d="M29.9745 2.81527H28.8545V12.5897H29.9745V2.81527Z" fill="#D36705"/>
<path d="M57.4306 1.88274H43.6812V14.3162H57.4306V1.88274Z" fill="#FFB600"/>
<path d="M55.6369 0.198967H45.4736V1.88274H55.6369V0.198967Z" fill="#FC8300"/>
<path d="M55.6369 14.3162H45.4736V16H55.6369V14.3162Z" fill="#FC8300"/>
<path d="M43.6812 12.5534V3.64461H42.1109V12.5534H43.6812Z" fill="#FC8300"/>
<path d="M59 12.5534V3.64461H57.4297V12.5534H59Z" fill="#FC8300"/>
<path d="M45.4737 1.88274H43.6812V3.64461H45.4737V1.88274Z" fill="#FC8300"/>
<path d="M57.4295 1.88274H55.637V3.64461H57.4295V1.88274Z" fill="#FC8300"/>
<path d="M57.4295 12.5534H55.637V14.3153H57.4295V12.5534Z" fill="#FC8300"/>
<path d="M45.4737 12.5534H43.6812V14.3153H45.4737V12.5534Z" fill="#FC8300"/>
<path d="M54.1869 5.98012V5.24098H53.03V4.24057H47.8528V5.2791H46.9238V7.56999H47.8528V8.76657H51.8731V10.9106H49.2111V10.097H46.9238V10.9106H47.8395V11.9575H52.6904V11.0426H54.1869V8.75263H53.03V7.56069H49.2367V5.28839H51.8731V5.98012H54.1869Z" fill="#D36705"/>
<path d="M51.0729 3.01331H49.9529V12.7877H51.0729V3.01331Z" fill="#D36705"/>
</g>
<defs>
<clipPath id="clip0_98_1002">
<rect width="59" height="16" fill="white"/>
</clipPath>
</defs>
</svg>
