<svg width="44" height="44" viewBox="0 0 44 44" fill="none" xmlns="http://www.w3.org/2000/svg">
<g clip-path="url(#clip0_245_133)">
<path d="M13.5388 3.38464L6.76943 6.76931L3.38477 13.5386V30.462L6.76943 37.2306L13.5388 40.6153H30.4621L37.2314 37.2306L40.6161 30.462V13.5386L37.2314 6.76931L30.4621 3.38464H13.5388Z" fill="#2CB5E5"/>
<path d="M6.76929 3.38464V6.76931H10.154H13.5386V3.38464H10.154H6.76929Z" fill="#000600"/>
<path d="M27.0772 0H23.6926H20.3079H16.9232H13.5386V3.38467H16.9232H20.3079H23.6926H27.0772H30.4619V0H27.0772Z" fill="#000600"/>
<path d="M33.8466 3.38464H30.4619V6.76931H33.8466H37.2313V3.38464H33.8466Z" fill="#000600"/>
<path d="M30.4619 37.2307V40.6154H33.8466H37.2313V37.2307H33.8466H30.4619Z" fill="#000600"/>
<path d="M23.6928 40.6154H20.3081V44H23.6928H27.0774H30.4621V40.6154H27.0774H23.6928Z" fill="#000600"/>
<path d="M13.5386 40.6154V44H16.9232H20.3079V40.6154H16.9232H13.5386Z" fill="#000600"/>
<path d="M10.154 37.2307H6.76929V40.6154H10.154H13.5386V37.2307H10.154Z" fill="#000600"/>
<path d="M6.76943 30.462H3.38477V33.8467V37.2307H6.76943V33.8467V30.462Z" fill="#000600"/>
<path d="M0 23.6927V27.0773V30.462H3.38467V27.0773V23.6927V20.308H0V23.6927Z" fill="#000600"/>
<path d="M0 13.5387V16.9234V20.308H3.38467V16.9234V13.5387H0Z" fill="#000600"/>
<path d="M3.38477 10.154V13.5386H6.76943V10.154V6.76929H3.38477V10.154Z" fill="#000600"/>
<path d="M40.616 13.5387V16.9234V20.308H44V16.9234V13.5387H40.616Z" fill="#000600"/>
<path d="M40.6161 6.76929H37.2314V10.154V13.5386H40.6161V10.154V6.76929Z" fill="#000600"/>
<path d="M40.616 23.6927V27.0773V30.462H44V27.0773V23.6927V20.308H40.616V23.6927Z" fill="#000600"/>
<path d="M37.2314 33.8467V37.2307H40.6161V33.8467V30.462H37.2314V33.8467Z" fill="#000600"/>
<path d="M29.7981 12.8319H28.3116H26.8251V14.3177H25.3386H23.8521H22.3656V15.8049H20.8791H19.3919H17.9061V17.2907H16.4189H14.9331H13.4459V18.7779H11.9601H10.4729V20.2637V21.7509H11.9601V23.2374H13.4459V24.7239H14.9331H16.4189V23.2374H17.9061H19.3919V21.7509H20.8791H22.3656V20.2637H23.8521V18.7779H25.3386V17.2907H26.8251V18.7779H25.3386V20.2637H23.8521V21.7509H22.3656V23.2374V24.7239H20.8791V26.2104V27.6969H19.3919V29.1834V30.6699H20.8791V32.1564H22.3656V33.6429H23.8521H25.3386V32.1564V30.6699H26.8251V29.1834V27.6969V26.2104H28.3116V24.7239V23.2374V21.7509H29.7981V20.2637V18.7779V17.2907H31.2846V15.8049V14.3177V12.8319H29.7981Z" fill="white"/>
</g>
<defs>
<clipPath id="clip0_245_133">
<rect width="44" height="44" fill="white"/>
</clipPath>
</defs>
</svg>
