<svg width="46" height="44" viewBox="0 0 46 44" fill="none" xmlns="http://www.w3.org/2000/svg">
<g clip-path="url(#clip0_104_975)">
<path d="M23 44C35.7025 44 46 34.1503 46 22C46 9.84974 35.7025 0 23 0C10.2975 0 0 9.84974 0 22C0 34.1503 10.2975 44 23 44Z" fill="url(#paint0_linear_104_975)"/>
<path d="M9.81567 21.483C9.81567 21.483 21.3205 16.9685 25.3163 15.3714C26.8413 14.7343 32.0339 12.7033 32.0339 12.7033C32.0339 12.7033 34.4275 11.817 34.2248 13.9773C34.1573 14.8636 33.6264 17.984 33.0956 21.3537C32.2945 26.1267 31.4355 31.3428 31.4355 31.3428C31.4355 31.3428 31.3004 32.8107 30.1711 33.06C29.0419 33.3185 27.1791 32.1737 26.8413 31.9152C26.571 31.7213 21.8513 28.8594 20.1237 27.4654C19.6604 27.0868 19.1296 26.3206 20.1912 25.4251C22.5849 23.3294 25.4418 20.7167 27.1791 19.0642C27.9802 18.2979 28.7716 16.5161 25.4514 18.6857C20.7317 21.8061 16.07 24.7327 16.07 24.7327C16.07 24.7327 15.0083 25.3697 13.0104 24.7973C11.0125 24.2249 8.68642 23.4586 8.68642 23.4586C8.68642 23.4586 7.09389 22.5077 9.81567 21.483Z" fill="white"/>
</g>
<defs>
<linearGradient id="paint0_linear_104_975" x1="6.73689" y1="6.44398" x2="37.8182" y2="38.9381" gradientUnits="userSpaceOnUse">
<stop stop-color="#2CB5E5"/>
<stop offset="0.65" stop-color="#6C6EF5"/>
<stop offset="1" stop-color="#9146FF"/>
</linearGradient>
<clipPath id="clip0_104_975">
<rect width="46" height="44" fill="white"/>
</clipPath>
</defs>
</svg>
