<svg width="392" height="58" viewBox="0 0 392 58" fill="none" xmlns="http://www.w3.org/2000/svg">
<path d="M359.816 32.5437L359.816 49.235L392 49.235L392 56.9745L351.746 56.9745L351.746 1.026L391.531 1.026L391.531 8.76555L359.816 8.76555L359.816 24.8041L386.839 24.8041L386.839 32.5437L359.816 32.5437Z" fill="#00D0EC"/>
<path d="M324.792 58C317.473 58 311.812 56.4769 307.808 53.4309C303.867 50.3226 301.709 45.9089 301.334 40.1897L309.872 40.1897C310.248 47.1522 315.19 50.6334 324.698 50.6334C328.576 50.6334 331.641 49.9185 333.893 48.4887C336.208 46.9968 337.365 44.9142 337.365 42.2411C337.365 40.314 336.74 38.7288 335.488 37.4855C334.237 36.1801 332.642 35.1543 330.703 34.4083C328.764 33.6624 326.168 32.8542 322.915 31.9839C318.724 30.8028 315.377 29.6838 312.875 28.627C310.373 27.508 308.215 25.8917 306.401 23.7781C304.587 21.6645 303.68 18.8671 303.68 15.3858C303.68 12.3398 304.524 9.66666 306.213 7.36656C307.902 5.00428 310.279 3.2015 313.344 1.9582C316.409 0.652731 319.975 -1.27579e-06 324.041 -1.55406e-06C330.296 -1.98218e-06 335.301 1.39871 339.054 4.19613C342.807 6.9314 344.903 10.91 345.341 16.1318L336.802 16.1318C336.364 10.2883 332.173 7.36656 324.229 7.36656C320.475 7.36656 317.504 8.08145 315.315 9.51125C313.188 10.941 312.124 12.8682 312.124 15.2926C312.124 17.1576 312.75 18.7117 314.001 19.955C315.252 21.1983 316.785 22.1929 318.599 22.9389C320.413 23.6227 322.978 24.4309 326.293 25.3633C330.422 26.4823 333.768 27.6013 336.333 28.7202C338.96 29.8392 341.181 31.4866 342.995 33.6624C344.872 35.8381 345.81 38.6977 345.81 42.2411C345.81 47.09 343.871 50.9442 339.992 53.8038C336.114 56.6013 331.047 58 324.792 58Z" fill="#00D0EC"/>
<path d="M303.094 56.9745L294.743 56.9745L290.146 41.4022L261.996 41.4022L257.398 56.9745L249.235 56.9745L266.031 1.026L286.205 1.026L303.094 56.9745ZM271.849 8.39256L264.342 33.6627L287.8 33.6626L280.293 8.39256L271.849 8.39256Z" fill="#00D0EC"/>
<path d="M239.638 27.6016C242.578 28.4097 244.955 30.026 246.769 32.4504C248.646 34.8749 249.584 37.7655 249.584 41.1225C249.584 44.0442 248.802 46.7173 247.238 49.1417C245.675 51.5662 243.423 53.4933 240.483 54.9231C237.542 56.2907 234.071 56.9745 230.067 56.9745L205.296 56.9745L205.296 1.026L230.067 1.026C235.384 1.026 239.638 2.36255 242.828 5.03564C246.081 7.64658 247.708 11.0657 247.708 15.2929C247.708 18.0281 246.988 20.4526 245.549 22.5662C244.111 24.6798 242.14 26.2339 239.638 27.2286L239.638 27.6016ZM213.365 8.11281L213.365 24.6176L229.41 24.6176C232.538 24.6176 234.946 23.8717 236.635 22.3797C238.387 20.8877 239.263 18.8674 239.263 16.3186C239.263 13.832 238.387 11.8427 236.635 10.3508C234.946 8.85879 232.538 8.11281 229.41 8.11281L213.365 8.11281ZM229.786 49.8877C233.414 49.8877 236.198 49.0485 238.137 47.37C240.138 45.6916 241.139 43.4226 241.139 40.563C241.139 37.7655 240.17 35.5276 238.231 33.8491C236.291 32.1707 233.539 31.3315 229.973 31.3315L213.365 31.3315L213.365 49.8877L229.786 49.8877Z" fill="#00D0EC"/>
<path d="M170.51 58C165.067 58 160.125 56.7567 155.684 54.2701C151.243 51.7213 147.74 48.2401 145.175 43.8264C142.61 39.4126 141.328 34.4705 141.328 29C141.328 23.5295 142.61 18.5873 145.175 14.1736C147.74 9.75991 151.243 6.30975 155.684 3.82314C160.125 1.27438 165.067 -1.6247e-06 170.51 -1.99716e-06C175.952 -2.36962e-06 180.894 1.27438 185.335 3.82314C189.776 6.30975 193.279 9.75991 195.844 14.1736C198.409 18.5873 199.691 23.5295 199.691 29C199.691 34.4705 198.409 39.4126 195.844 43.8264C193.279 48.2401 189.776 51.7213 185.335 54.2701C180.894 56.7567 175.952 58 170.51 58ZM170.51 50.2604C174.45 50.2604 177.985 49.359 181.113 47.5563C184.24 45.7535 186.711 43.2358 188.525 40.0032C190.339 36.7706 191.246 33.1029 191.246 29C191.246 24.8971 190.339 21.2294 188.525 17.9968C186.711 14.7642 184.24 12.2465 181.113 10.4437C177.985 8.64094 174.45 7.73954 170.51 7.73955C166.569 7.73955 163.034 8.64094 159.907 10.4437C156.779 12.2465 154.308 14.7642 152.494 17.9968C150.68 21.2294 149.773 24.8971 149.773 29C149.773 33.1029 150.68 36.7706 152.494 40.0032C154.308 43.2358 156.779 45.7535 159.907 47.5563C163.034 49.359 166.569 50.2604 170.51 50.2604Z" fill="#00D0EC"/>
<path d="M131.26 56.9745L116.903 36.2736L103.392 36.2736L103.392 56.9745L95.322 56.9745L95.322 1.026L118.686 1.026C125.192 1.026 130.259 2.64229 133.887 5.87487C137.578 9.04529 139.423 13.3036 139.423 18.6498C139.423 22.9392 138.203 26.5758 135.763 29.5598C133.386 32.5437 129.977 34.533 125.536 35.5276L140.643 56.9745L131.26 56.9745ZM103.392 8.39256L103.392 28.907L118.405 28.907C122.533 28.907 125.661 28.0367 127.788 26.2961C129.915 24.4933 130.978 21.9445 130.978 18.6498C130.978 15.4172 129.915 12.8995 127.788 11.0967C125.661 9.29395 122.533 8.39256 118.405 8.39256L103.392 8.39256Z" fill="#00D0EC"/>
<path d="M57.7512 32.5437L57.7512 49.235L89.9354 49.235L89.9354 56.9745L49.6816 56.9745L49.6816 1.026L89.4663 1.026L89.4663 8.76555L57.7512 8.76555L57.7512 24.8041L84.7747 24.8041L84.7747 32.5437L57.7512 32.5437Z" fill="#00D0EC"/>
<path d="M44.9454 56.9745L3.84393e-06 56.9745L3.10077e-06 46.1578L35.2807 10.444L35.2807 8.76555L1.31364 8.76555L1.31364 1.026L44.3824 1.026L44.3824 11.8427L9.10167 47.5565L9.10167 49.235L44.9454 49.235L44.9454 56.9745Z" fill="#00D0EC"/>
<path fill-rule="evenodd" clip-rule="evenodd" d="M158.832 36.1619L170.148 16.5673L181.464 36.1619L158.832 36.1619Z" fill="#00D0EC"/>
</svg>
