<svg width="119" height="40" viewBox="0 0 119 40" fill="none" xmlns="http://www.w3.org/2000/svg">
<g clip-path="url(#clip0_265_215)">
<path d="M45.4177 0.399337C45.4177 0.177797 45.238 0 45.0173 0C44.7966 0 44.6169 0.179208 44.6169 0.399337V39.5993C44.6169 39.8208 44.7966 39.9986 45.0173 39.9986C45.238 39.9986 45.4177 39.8194 45.4177 39.5993V0.399337Z" fill="#002C4D"/>
<path d="M39.8482 23.178C41.6073 12.2729 34.1698 2.01032 23.2361 0.255802C12.3023 -1.49872 2.01269 5.91927 0.253554 16.8243C-1.50558 27.7294 5.93192 37.992 16.8657 39.7465C27.7994 41.5011 38.0891 34.0831 39.8482 23.178Z" fill="#0A7697"/>
<path d="M39.0499 21.405C39.8278 10.9402 31.9527 1.82781 21.4603 1.05198C10.9679 0.276144 1.83161 8.13063 1.05373 18.5955C0.275857 29.0603 8.151 38.1726 18.6434 38.9485C29.1357 39.7243 38.2721 31.8698 39.0499 21.405Z" fill="white"/>
<path d="M33.2378 33.1512C40.5205 25.8877 40.5205 14.1111 33.2378 6.84756C25.9551 -0.415997 14.1476 -0.415998 6.86491 6.84756C-0.417763 14.1111 -0.417763 25.8877 6.86491 33.1512C14.1476 40.4148 25.9551 40.4148 33.2378 33.1512Z" fill="#002C4D"/>
<path d="M30.9847 25.0107C33.7593 18.9887 31.1139 11.8637 25.0761 9.09641C19.0382 6.32916 11.8944 8.96763 9.11992 14.9896C6.34539 21.0115 8.9908 28.1366 15.0286 30.9038C21.0664 33.6711 28.2102 31.0326 30.9847 25.0107Z" fill="white"/>
<path d="M25.9232 21.9128C25.909 21.9664 25.8538 22.0101 25.7972 22.0101H14.3063C14.2511 22.0101 14.1945 21.9664 14.1803 21.9128L14.0275 21.3032C14.0134 21.2496 14.0488 21.2058 14.1039 21.2058H25.9981C26.0533 21.2058 26.0873 21.2496 26.0745 21.3032L25.9217 21.9128H25.9232Z" fill="#002C4D"/>
<path d="M26.7538 20.609C26.7269 20.7162 26.6137 20.8037 26.5033 20.8037H13.6004C13.49 20.8037 13.3768 20.7162 13.35 20.609L13.0444 19.3898C13.0175 19.2826 13.0868 19.1951 13.1972 19.1951H26.9065C27.0169 19.1951 27.0862 19.2826 27.0593 19.3898L26.7538 20.609Z" fill="#002C4D"/>
<path d="M6.88859 12.0846C7.10222 12.2497 7.33849 12.3682 7.59174 12.4346C7.75586 12.4783 7.92422 12.4995 8.08833 12.4995C8.17605 12.4995 8.2666 12.4938 8.35432 12.4811C8.60898 12.4458 8.86223 12.3513 9.10982 12.2003C9.35599 12.0507 9.57953 11.8461 9.77619 11.5935C10.0096 11.293 10.2176 10.936 10.3959 10.5296C10.4114 10.4929 10.4015 10.4492 10.369 10.4252L8.99522 9.36262C8.97683 9.34851 8.95419 9.34145 8.93014 9.34428C8.9075 9.3471 8.88628 9.3598 8.87072 9.37814L8.46891 9.8946C8.4392 9.9327 8.44628 9.98773 8.48448 10.0188L9.39844 10.7257C9.30789 10.8767 9.21168 11.0192 9.11123 11.1491C8.88203 11.444 8.61181 11.6133 8.30621 11.6514C8.00062 11.6895 7.70634 11.602 7.43045 11.3875C7.12627 11.1519 6.9664 10.888 6.94376 10.5832C6.92113 10.2784 7.04563 9.94963 7.31302 9.60533C7.44036 9.44164 7.63843 9.2328 7.90017 8.98586C7.93554 8.952 7.93695 8.89696 7.90441 8.86169L7.49978 8.42989C7.46865 8.39603 7.4163 8.39179 7.37952 8.42143C7.10788 8.63732 6.85746 8.89273 6.63392 9.17918C6.38492 9.4995 6.22505 9.84098 6.15572 10.1966C6.0864 10.555 6.11611 10.9035 6.24061 11.2351C6.36653 11.5653 6.58299 11.8518 6.88576 12.086L6.88859 12.0846Z" fill="white"/>
<path d="M9.90508 8.98443C10.031 9.15658 10.1866 9.2991 10.3663 9.40916C10.546 9.51782 10.7398 9.59119 10.9421 9.62647C11.0199 9.64058 11.102 9.64622 11.1841 9.64622C11.3142 9.64622 11.45 9.62929 11.5887 9.59543C11.8122 9.54039 12.0287 9.43738 12.2296 9.29063C12.4305 9.14388 12.5932 8.97032 12.712 8.77559C12.8323 8.57945 12.9059 8.37766 12.9342 8.17446C12.9625 7.97127 12.9497 7.76666 12.8988 7.56346C12.8479 7.36027 12.7573 7.16977 12.6328 6.99762L11.3312 5.22107C11.3029 5.18156 11.2463 5.17309 11.2081 5.20131L10.6464 5.61052C10.628 5.62464 10.6153 5.6458 10.6111 5.66838C10.6068 5.69096 10.6139 5.71495 10.6266 5.73329L11.9353 7.51972C12.0839 7.72151 12.139 7.92047 12.1037 8.12649C12.0683 8.33392 11.9551 8.50466 11.7585 8.64718C11.5618 8.7897 11.3609 8.84755 11.1558 8.81933C10.9506 8.79111 10.7766 8.67681 10.6266 8.4722L9.31794 6.68577C9.30379 6.66743 9.28257 6.65473 9.25993 6.65049C9.2373 6.64767 9.21324 6.65332 9.19485 6.66602L8.62327 7.08229C8.60488 7.0964 8.59215 7.11756 8.5879 7.14014C8.58366 7.16272 8.59073 7.18671 8.60347 7.20505L9.90508 8.9816V8.98443Z" fill="white"/>
<path d="M13.967 8.0433C13.9769 8.06447 13.9953 8.0814 14.0165 8.08845C14.0264 8.09269 14.0363 8.0941 14.0462 8.0941C14.0589 8.0941 14.0717 8.09128 14.0844 8.08563L14.7267 7.78648C14.7706 7.76532 14.7904 7.7131 14.7692 7.66936L13.2115 4.34908C13.1902 4.30534 13.1379 4.28558 13.094 4.30675L12.4517 4.6059C12.4305 4.61578 12.4135 4.63412 12.4065 4.65529C12.398 4.67786 12.3994 4.70185 12.4093 4.72302L13.967 8.0433Z" fill="white"/>
<path d="M18.6895 6.62648C18.7023 6.60673 18.7065 6.58274 18.7009 6.56016L17.8831 2.9873C17.8718 2.93932 17.8251 2.90969 17.777 2.92098L17.0993 3.07479C17.0767 3.08043 17.0569 3.09454 17.0441 3.1143C17.0314 3.13405 17.0272 3.15804 17.0328 3.18062L17.5421 5.40166L15.3902 3.50234C15.369 3.484 15.3393 3.47553 15.3124 3.48259L14.6446 3.63499C14.622 3.64063 14.6022 3.65474 14.5895 3.6745C14.5767 3.69425 14.5725 3.71824 14.5781 3.74082L15.3959 7.31368C15.4016 7.33626 15.4157 7.35602 15.4355 7.36871C15.4497 7.37718 15.4666 7.38283 15.4822 7.38283C15.4893 7.38283 15.4949 7.38283 15.502 7.38L16.1698 7.22761C16.2179 7.21632 16.2476 7.16975 16.2363 7.12178L15.727 4.89932L17.8845 6.79864C17.9057 6.81698 17.934 6.82404 17.9623 6.81839L18.6344 6.66458C18.657 6.65894 18.6768 6.64483 18.6895 6.62507V6.62648Z" fill="white"/>
<path d="M22.7274 6.85795C22.7274 6.85795 22.7317 6.85795 22.7345 6.85795C22.7798 6.85795 22.8194 6.82267 22.8222 6.77611L23.1137 3.12281C23.1151 3.09882 23.108 3.07625 23.0924 3.0579C23.0769 3.03956 23.0557 3.02968 23.0316 3.02686L22.3384 2.97182C22.2874 2.96618 22.2464 3.00428 22.2436 3.05226L22.0625 5.32269L20.5783 2.8674C20.5642 2.84342 20.5373 2.82789 20.509 2.82507L19.8271 2.77145C19.7776 2.76722 19.7351 2.80391 19.7323 2.85188L19.4409 6.50518C19.4394 6.52917 19.4465 6.55175 19.4621 6.57009C19.4776 6.58843 19.4989 6.59831 19.5229 6.60113L20.2048 6.65475C20.2558 6.65899 20.2968 6.6223 20.2996 6.57432L20.4807 4.30248L21.9691 6.75917C21.9832 6.78316 22.0101 6.79869 22.0384 6.80151L22.726 6.85654L22.7274 6.85795Z" fill="white"/>
<path d="M23.4999 7.0781L25.9758 7.98684C25.9857 7.99107 25.9956 7.99249 26.0069 7.99249C26.0196 7.99249 26.0324 7.98966 26.0437 7.98402C26.0649 7.97414 26.0819 7.9558 26.0889 7.93463L26.2983 7.36738C26.3153 7.32222 26.2913 7.27142 26.246 7.25449L24.5185 6.62091L24.7986 5.86034L26.4172 6.4544C26.4639 6.47134 26.5134 6.44735 26.5304 6.40219L26.7398 5.83494C26.7482 5.81236 26.7468 5.78837 26.7369 5.76721C26.727 5.74604 26.7086 5.72911 26.6874 5.72205L25.0689 5.12799L25.308 4.48171L27.0354 5.11529C27.0567 5.12375 27.0821 5.12234 27.1034 5.11246C27.1246 5.10259 27.1416 5.08424 27.15 5.06308L27.3594 4.49582C27.3679 4.47324 27.3665 4.44925 27.3566 4.42809C27.3467 4.40692 27.3283 4.38999 27.3071 4.38293L24.8312 3.47419C24.7859 3.45726 24.735 3.48125 24.718 3.5264L23.4489 6.96663C23.4404 6.9892 23.4419 7.01319 23.4518 7.03436C23.4617 7.05553 23.4801 7.07246 23.5013 7.07951L23.4999 7.0781Z" fill="white"/>
<path d="M28.8054 8.86879C28.6596 8.84903 28.4842 8.76578 28.2847 8.62185C27.9607 8.38902 27.6466 8.06024 27.3552 7.6482C27.341 7.62845 27.3198 7.61575 27.2958 7.61151C27.2717 7.60869 27.2477 7.61434 27.2279 7.62986L26.7822 7.98545C26.7482 8.01226 26.7383 8.06024 26.761 8.09834C26.8756 8.30012 27.034 8.51037 27.2321 8.72204C27.4288 8.9337 27.6325 9.11432 27.8376 9.26107C28.2154 9.53341 28.5875 9.67311 28.944 9.67734H28.961C29.3218 9.67734 29.6075 9.53482 29.8127 9.25119C29.8608 9.18487 29.9004 9.12137 29.9301 9.06352C29.9627 9.00002 29.9867 8.93511 30.0009 8.86738C30.0136 8.80529 30.0207 8.74461 30.0235 8.69099C30.0263 8.63032 30.0164 8.564 29.9938 8.4878C29.974 8.42006 29.9528 8.35798 29.9301 8.30153C29.9075 8.24368 29.8707 8.1703 29.8226 8.08423C29.7745 7.99956 29.7292 7.92336 29.6868 7.85422C29.6443 7.78649 29.5892 7.69759 29.5198 7.59176C29.517 7.58611 29.5128 7.57906 29.5085 7.57483C29.2609 7.19383 29.1081 6.9356 29.0544 6.80861C29.0105 6.7056 29.0162 6.62093 29.0728 6.54332C29.1265 6.46854 29.1902 6.44455 29.2793 6.4643C29.3897 6.48829 29.5594 6.58142 29.7816 6.74229C30.0957 6.96806 30.3928 7.23758 30.6644 7.54237C30.68 7.56071 30.7026 7.57059 30.7266 7.572C30.7493 7.572 30.7748 7.56354 30.7917 7.54802L31.2091 7.14868C31.2416 7.11763 31.2459 7.06684 31.2176 7.03015C31.1002 6.88057 30.9474 6.71689 30.762 6.54332C30.5781 6.37117 30.3998 6.2216 30.2315 6.10165C29.8169 5.80392 29.4519 5.64587 29.1492 5.63317C28.8337 5.61906 28.5648 5.75876 28.3569 6.04803C28.2932 6.13552 28.2437 6.22301 28.2097 6.30626C28.1744 6.39375 28.1546 6.48547 28.1531 6.5786C28.1517 6.66891 28.1602 6.75781 28.1786 6.84388C28.197 6.92855 28.2324 7.02733 28.2847 7.13739C28.3342 7.24322 28.3908 7.34905 28.4531 7.45206C28.5139 7.55366 28.5931 7.67783 28.6879 7.81894C28.9185 8.16184 29.0614 8.39608 29.1124 8.51461C29.1534 8.61056 29.1477 8.68817 29.0954 8.76014C29.0289 8.85186 28.9369 8.88431 28.811 8.86738L28.8054 8.86879Z" fill="white"/>
<path d="M31.5303 10.1796C31.5614 10.2967 31.6053 10.4364 31.6576 10.5959C31.7878 10.9881 31.8613 11.252 31.8783 11.379C31.891 11.482 31.8656 11.5554 31.7963 11.6104C31.7085 11.681 31.6123 11.6894 31.4935 11.6372C31.3591 11.5794 31.2119 11.4524 31.0577 11.2605C30.8073 10.9486 30.5951 10.5493 30.4239 10.0738C30.4154 10.0512 30.3984 10.0328 30.3758 10.023C30.3532 10.0131 30.3277 10.0131 30.3051 10.023L29.7802 10.2459C29.7406 10.2628 29.7179 10.3066 29.7292 10.3489C29.7858 10.5733 29.882 10.8174 30.015 11.0756C30.148 11.331 30.2952 11.561 30.4522 11.7572C30.7436 12.1198 31.0648 12.3555 31.4058 12.4543C31.5175 12.4867 31.6265 12.5036 31.7312 12.5036C31.9575 12.5036 32.1669 12.4274 32.3551 12.2779C32.4188 12.2271 32.4739 12.1777 32.5192 12.1283C32.5687 12.0761 32.6083 12.0182 32.6395 11.9576C32.6678 11.9011 32.6918 11.8461 32.7088 11.7925C32.7272 11.736 32.7357 11.6669 32.7343 11.5893C32.7328 11.5187 32.7286 11.4524 32.7229 11.3931C32.7173 11.331 32.7017 11.2534 32.6777 11.1546C32.6536 11.0601 32.631 10.974 32.6083 10.8978C32.5871 10.8216 32.556 10.72 32.5192 10.6001C32.5178 10.593 32.515 10.5846 32.5136 10.5803C32.3777 10.1457 32.2999 9.85645 32.2829 9.72099C32.2688 9.60951 32.2971 9.53049 32.3721 9.46981C32.4442 9.41196 32.5107 9.40632 32.5914 9.44865C32.6918 9.50227 32.8291 9.63773 33.0017 9.85081C33.2436 10.1528 33.4572 10.4914 33.6369 10.8583C33.6468 10.8795 33.6666 10.8964 33.6892 10.9035C33.7119 10.9105 33.7374 10.9091 33.7586 10.8978L34.2679 10.6255C34.3075 10.6043 34.3245 10.5563 34.3075 10.514C34.2354 10.339 34.1307 10.1401 34.0005 9.92418C33.8689 9.70829 33.7374 9.51638 33.6086 9.35552C33.2889 8.95759 32.9804 8.70783 32.6918 8.61329C32.3919 8.51592 32.0948 8.57942 31.8175 8.79955C31.7326 8.86728 31.6618 8.93784 31.6067 9.00839C31.5487 9.08318 31.5062 9.16643 31.4779 9.25533C31.4525 9.34141 31.4355 9.42889 31.4312 9.51779C31.4256 9.60669 31.4341 9.70829 31.4539 9.82823C31.4737 9.94253 31.4991 10.0596 31.5303 10.1768V10.1796Z" fill="white"/>
<path d="M6.58309 22.5012H6.58592C6.63543 22.5012 6.67363 22.4617 6.67363 22.4137C6.67363 22.4052 6.67363 22.3982 6.6708 22.3897L6.65948 21.718C6.65948 21.6771 6.63119 21.6432 6.59157 21.6334L4.49485 21.1479L6.57884 20.4481C6.61563 20.4354 6.63968 20.4015 6.63968 20.3634L6.63119 19.8639C6.63119 19.8258 6.60572 19.7919 6.56894 19.7806L4.46513 19.1484L6.54347 18.5953C6.58309 18.5854 6.60997 18.5487 6.60855 18.5092L6.59723 17.8164C6.59723 17.7896 6.58309 17.7642 6.56186 17.7472C6.54064 17.7303 6.51235 17.7261 6.48546 17.7331L2.8268 18.7279C2.78718 18.7392 2.76172 18.7745 2.76172 18.814L2.77021 19.3799C2.77021 19.418 2.79709 19.4518 2.83387 19.4631L5.09755 20.139L2.85651 20.8925C2.81973 20.9052 2.79567 20.9391 2.79567 20.9772L2.80416 21.5388C2.80416 21.5797 2.83246 21.6136 2.87207 21.6235L6.56186 22.4998C6.56186 22.4998 6.57601 22.5026 6.58167 22.5026L6.58309 22.5012Z" fill="white"/>
<path d="M6.26329 27.0054C6.5986 26.884 6.88439 26.6921 7.11217 26.4339C7.33995 26.1757 7.48992 25.8751 7.55924 25.5393C7.62716 25.2034 7.60027 24.8648 7.48002 24.5303C7.35976 24.1959 7.16169 23.9179 6.89429 23.702C6.62689 23.4861 6.31705 23.3493 5.97609 23.2956C5.63512 23.242 5.29274 23.2759 4.95602 23.3972C4.62071 23.5186 4.33492 23.7105 4.10855 23.9687C3.88077 24.2284 3.73222 24.5289 3.66572 24.8662C3.59923 25.2034 3.62752 25.5421 3.74778 25.8765C3.86804 26.2095 4.0647 26.4875 4.33068 26.7034C4.59666 26.9179 4.90367 27.0534 5.24464 27.107C5.34792 27.1239 5.45261 27.131 5.55731 27.131C5.79216 27.131 6.02985 27.0886 6.26329 27.004V27.0054ZM6.67783 25.6268C6.53352 25.8808 6.29442 26.0684 5.9676 26.187C5.79216 26.2505 5.6238 26.2815 5.46535 26.2815C5.32669 26.2815 5.19087 26.2575 5.06354 26.2081C4.79332 26.1051 4.60798 25.9076 4.49904 25.6056C4.3901 25.3036 4.40566 25.0355 4.54714 24.7843C4.69004 24.5332 4.92772 24.3455 5.25596 24.227C5.4328 24.1635 5.60258 24.131 5.76245 24.131C5.89969 24.131 6.03409 24.155 6.16001 24.2016C6.43165 24.3032 6.61558 24.4993 6.72593 24.8013C6.83487 25.1032 6.81931 25.3728 6.67641 25.6253L6.67783 25.6268Z" fill="white"/>
<path d="M9.29104 30.0519C9.56127 29.8501 9.72397 29.5778 9.77349 29.2448C9.82301 28.9103 9.7367 28.5928 9.516 28.2979L8.37001 26.7669C8.35586 26.7486 8.33464 26.7359 8.312 26.733C8.28937 26.7288 8.26531 26.7359 8.24692 26.75L5.30273 28.9442C5.28434 28.9583 5.2716 28.9795 5.26877 29.0021C5.26594 29.0246 5.2716 29.0486 5.28575 29.067L5.71019 29.6328C5.7399 29.6723 5.79508 29.6794 5.83328 29.6512L6.86325 28.8835L7.32023 29.4931L6.83778 31.0778C6.8293 31.1046 6.83495 31.1342 6.85193 31.1554L7.37116 31.8482C7.38814 31.8708 7.41502 31.8835 7.4419 31.8835C7.44756 31.8835 7.45181 31.8835 7.45746 31.8835C7.49001 31.8778 7.51689 31.8539 7.52679 31.8214L8.02055 30.1676C8.20731 30.2622 8.40821 30.3059 8.6176 30.296C8.86377 30.2833 9.09156 30.2015 9.29387 30.0519H9.29104ZM8.24975 27.8492L8.84397 28.6422C8.93027 28.7565 8.96422 28.8765 8.94866 29.0105C8.9331 29.1418 8.86943 29.2476 8.75342 29.3351C8.63316 29.424 8.51149 29.4578 8.37991 29.4381C8.24834 29.4183 8.14081 29.3506 8.05309 29.2321L7.45888 28.439L8.24975 27.8492Z" fill="white"/>
<path d="M9.55002 32.6793L11.4119 30.3581C11.443 30.32 11.4359 30.265 11.3977 30.2339L10.8446 29.7923C10.8262 29.7782 10.8035 29.7711 10.7795 29.7739C10.7554 29.7768 10.7342 29.788 10.7201 29.8064L8.42526 32.6695C8.41111 32.6878 8.40404 32.7104 8.40686 32.7344C8.40969 32.757 8.42101 32.7795 8.43941 32.7936L10.4046 34.3614C10.4215 34.3741 10.4399 34.3811 10.4597 34.3811C10.4852 34.3811 10.5121 34.3698 10.5291 34.3487L10.9082 33.876C10.9224 33.8576 10.9294 33.835 10.9266 33.811C10.9238 33.7885 10.9125 33.7673 10.8941 33.7518L9.55144 32.6808L9.55002 32.6793Z" fill="white"/>
<path d="M14.7902 32.5961C14.5327 32.2956 14.1918 32.043 13.7744 31.8454L13.0246 31.4898C12.9807 31.4687 12.9284 31.487 12.9071 31.5322L11.3282 34.8426C11.3183 34.8637 11.3169 34.8877 11.3254 34.9103C11.3339 34.9329 11.3494 34.9512 11.3707 34.9611L12.1205 35.3167C12.5365 35.5143 12.9496 35.6201 13.3457 35.6286C13.367 35.6286 13.3868 35.6286 13.408 35.6286C13.7829 35.6286 14.1196 35.5439 14.4111 35.3774C14.7195 35.201 14.9572 34.9428 15.1156 34.6083C15.2741 34.2739 15.3264 33.9282 15.2684 33.5782C15.2118 33.2297 15.0506 32.8995 14.7902 32.5961ZM13.5509 32.6215C13.7192 32.702 13.8692 32.7993 13.9965 32.9108C14.1225 33.0223 14.2229 33.1465 14.2965 33.2805C14.3686 33.4117 14.4054 33.5599 14.4082 33.7208C14.4111 33.8816 14.3715 34.0496 14.2908 34.2175C14.2102 34.3854 14.1055 34.5209 13.9781 34.621C13.8522 34.7212 13.7136 34.7847 13.565 34.8115C13.4136 34.8398 13.2524 34.8398 13.0882 34.8115C12.9213 34.7833 12.7515 34.7297 12.5832 34.6493L12.4346 34.5787L13.4023 32.5496L13.5509 32.6201V32.6215Z" fill="white"/>
<path d="M20.6462 35.7188C20.8372 35.6313 20.9942 35.5001 21.1159 35.3293C21.2588 35.129 21.3338 34.899 21.3394 34.6478C21.3479 34.3105 21.2333 34.0156 20.9999 33.7701C20.7664 33.5246 20.4622 33.3962 20.0944 33.3877L18.1788 33.3425H18.1759C18.1278 33.3425 18.0882 33.3806 18.0882 33.4286L18.0005 37.0932C18.0005 37.1412 18.0387 37.1821 18.0868 37.1835L18.7956 37.2004C18.8197 37.2004 18.8423 37.192 18.8593 37.1764C18.8762 37.1595 18.8862 37.1383 18.8862 37.1144L18.9173 35.8331L19.6813 35.8514L20.6334 37.2089C20.649 37.2315 20.6759 37.2456 20.7042 37.247L21.5714 37.2682H21.5728C21.6054 37.2682 21.6351 37.2498 21.6507 37.2216C21.6662 37.192 21.6634 37.1567 21.645 37.1299L20.6447 35.7216L20.6462 35.7188ZM18.9597 34.1045L19.9515 34.1285C20.0944 34.1313 20.2104 34.1793 20.3066 34.2738C20.4014 34.367 20.4453 34.4827 20.441 34.628C20.4368 34.7776 20.3887 34.8933 20.2925 34.9836C20.1991 35.0711 20.0859 35.1134 19.9458 35.1134L18.9371 35.0895L18.9611 34.1059L18.9597 34.1045Z" fill="white"/>
<path d="M25.4891 35.6921C25.4777 35.6455 25.431 35.6159 25.3815 35.6272L23.5946 36.0674L23.3994 35.2814L25.0731 34.868C25.1198 34.8567 25.1495 34.8087 25.1382 34.7608L24.9925 34.1737C24.9868 34.1512 24.9726 34.1314 24.9528 34.1201C24.933 34.1074 24.909 34.1046 24.8863 34.1102L23.2126 34.5237L23.0471 33.8548L24.834 33.4146C24.8821 33.4033 24.9104 33.3553 24.8991 33.3073L24.7534 32.7203C24.7477 32.6977 24.7335 32.678 24.7137 32.6667C24.6939 32.654 24.6699 32.6512 24.6472 32.6568L22.0865 33.289C22.0638 33.2946 22.044 33.3087 22.0327 33.3285C22.02 33.3483 22.0171 33.3722 22.0228 33.3948L22.9056 36.9522C22.9155 36.9917 22.9523 37.0185 22.9919 37.0185C22.999 37.0185 23.0061 37.0185 23.0132 37.0157L25.5739 36.3835C25.5966 36.3779 25.6164 36.3637 25.6277 36.344C25.6404 36.3242 25.6433 36.3002 25.6376 36.2777L25.4919 35.6907L25.4891 35.6921Z" fill="white"/>
<path d="M29.2765 33.7236C29.2609 33.7067 29.2383 33.6968 29.2142 33.6954C29.1916 33.6954 29.1675 33.7025 29.1506 33.7194C29.0374 33.8252 28.9369 33.9099 28.8506 33.972C28.7643 34.0341 28.6554 34.1018 28.5281 34.1723C28.1531 34.3784 27.8093 34.4433 27.5037 34.3671C27.1953 34.2909 26.9605 34.0976 26.785 33.7801C26.6096 33.464 26.5728 33.1634 26.6704 32.8643C26.7681 32.5665 27.0086 32.3111 27.3835 32.1037C27.6084 31.9795 27.849 31.8864 28.1008 31.8243C28.1234 31.8187 28.1432 31.8031 28.156 31.7834C28.1673 31.7636 28.1715 31.7382 28.1645 31.7156L28.0074 31.1427C27.9961 31.099 27.9522 31.0722 27.907 31.0792C27.6042 31.13 27.2703 31.2556 26.918 31.449C26.5629 31.6437 26.2799 31.8963 26.079 32.1968C25.8767 32.4988 25.7664 32.8304 25.7522 33.1804C25.7381 33.5303 25.8244 33.876 26.0083 34.2062C26.1922 34.5378 26.4398 34.7946 26.744 34.9696C27.034 35.1361 27.3566 35.2208 27.7032 35.2208H27.7542C28.1178 35.2123 28.4814 35.1079 28.8379 34.9118C29.176 34.7255 29.4576 34.5068 29.6726 34.2627C29.7023 34.2288 29.7023 34.178 29.6712 34.1441L29.2765 33.7222V33.7236Z" fill="white"/>
<path d="M32.1188 29.6583C31.8698 29.4029 31.577 29.2223 31.2487 29.1207C30.9191 29.0191 30.5824 29.0064 30.2485 29.0812C29.9132 29.1574 29.6146 29.321 29.3586 29.568C29.1039 29.8149 28.9299 30.1084 28.8422 30.4414C28.7544 30.7731 28.7559 31.1103 28.8478 31.4433C28.9384 31.7749 29.111 32.0727 29.3586 32.3295C29.6076 32.5849 29.9004 32.7655 30.2301 32.8657C30.4154 32.9221 30.605 32.9504 30.7932 32.9504C30.9389 32.9504 31.086 32.9334 31.2332 32.8996C31.5685 32.8219 31.867 32.6569 32.1231 32.4099C32.3792 32.163 32.5518 31.8695 32.6395 31.5393C32.7272 31.2091 32.7244 30.8747 32.6338 30.5416C32.5433 30.21 32.3707 29.9137 32.1217 29.6583H32.1188ZM31.5642 31.837C31.3336 32.0614 31.0818 32.1573 30.7946 32.1305C30.506 32.1037 30.2372 31.964 29.9938 31.7142C29.7505 31.4645 29.6189 31.1907 29.5991 30.9015C29.5807 30.6136 29.684 30.3653 29.9146 30.1409C30.1211 29.9405 30.3447 29.8432 30.5979 29.8432C30.6276 29.8432 30.6588 29.8432 30.6885 29.8474C30.9799 29.8742 31.2501 30.0139 31.4921 30.2637C31.734 30.5134 31.8656 30.7858 31.8826 31.075C31.8995 31.3629 31.7948 31.6126 31.5628 31.8356L31.5642 31.837Z" fill="white"/>
<path d="M36.0066 26.5439L34.2919 26.7725C34.3018 26.5637 34.2593 26.3633 34.1645 26.177C34.0528 25.9583 33.8844 25.7848 33.6637 25.662C33.3694 25.4983 33.0525 25.4616 32.7271 25.5534C32.4017 25.6451 32.1456 25.8539 31.966 26.1742L31.035 27.8435C31.011 27.8859 31.0265 27.9395 31.069 27.9635L34.2806 29.7443C34.2933 29.7513 34.3089 29.7556 34.323 29.7556C34.3315 29.7556 34.34 29.7556 34.3471 29.7527C34.3697 29.7471 34.3881 29.7316 34.3994 29.7104L34.7432 29.0923C34.7673 29.05 34.7517 28.9964 34.7092 28.9724L33.5859 28.3487L33.9566 27.6827L35.6034 27.4738C35.6317 27.4696 35.6557 27.4541 35.6699 27.4287L36.0915 26.6723C36.1085 26.6427 36.1057 26.6074 36.0873 26.5792C36.0689 26.551 36.0363 26.5369 36.0024 26.5411L36.0066 26.5439ZM32.0749 27.5105L32.5573 26.6455C32.6267 26.5214 32.7229 26.4409 32.8516 26.4C32.9775 26.3605 33.102 26.3746 33.228 26.4452C33.3595 26.5185 33.4402 26.6159 33.4741 26.7429C33.5095 26.8713 33.4911 26.9955 33.4204 27.1253L32.9379 27.9903L32.0749 27.5119V27.5105Z" fill="white"/>
<path d="M36.3193 22.2021C36.0802 21.9397 35.776 21.7647 35.4153 21.6814C35.0545 21.5982 34.7036 21.6236 34.374 21.7548C34.0457 21.886 33.7571 22.1132 33.5152 22.4321C33.2761 22.7482 33.1021 23.1348 32.9988 23.5822L32.812 24.3893C32.8064 24.4119 32.812 24.4359 32.8234 24.4556C32.8361 24.4754 32.8559 24.4895 32.8785 24.4951L36.4594 25.3192C36.4594 25.3192 36.4721 25.322 36.4792 25.322C36.4962 25.322 36.5117 25.3178 36.5259 25.3079C36.5457 25.2952 36.5598 25.2755 36.5655 25.2529L36.7522 24.4472C36.8555 23.9984 36.8697 23.5751 36.7933 23.1871C36.7169 22.7948 36.557 22.4646 36.3193 22.2035V22.2021ZM33.7699 23.7924L33.8066 23.633C33.8491 23.4509 33.9113 23.2844 33.9934 23.1377C34.0754 22.9909 34.1745 22.8667 34.2905 22.7651C34.4037 22.6664 34.5409 22.5986 34.6965 22.5619C34.8536 22.5253 35.0262 22.5267 35.2073 22.569C35.3898 22.6113 35.544 22.6833 35.6699 22.7863C35.7944 22.8879 35.8878 23.0093 35.9458 23.1475C36.0052 23.2901 36.0406 23.4453 36.0505 23.6118C36.059 23.7811 36.0434 23.9589 36.001 24.1395L35.9642 24.299L33.7684 23.7938L33.7699 23.7924Z" fill="white"/>
<path d="M37.372 19.291C37.3536 18.8267 37.2348 18.4471 37.0183 18.1649C36.7948 17.8728 36.5033 17.7317 36.1482 17.7458C36.0676 17.7487 35.9926 17.7571 35.9275 17.7684C35.8568 17.7811 35.7903 17.8037 35.7294 17.8347C35.6728 17.863 35.6205 17.894 35.5766 17.9265C35.5271 17.9617 35.4804 18.0097 35.4352 18.0746C35.3941 18.1325 35.3573 18.1875 35.3276 18.2383C35.2965 18.2919 35.2611 18.3639 35.2229 18.457C35.1862 18.5473 35.1522 18.6292 35.1253 18.7054C35.097 18.7802 35.0617 18.8789 35.0206 18.9961C35.0178 19.0031 35.015 19.0102 35.0121 19.0172C34.8636 19.4476 34.7532 19.727 34.6867 19.8455C34.6316 19.9443 34.5622 19.9909 34.4533 19.9951C34.3684 19.9951 34.3146 19.9598 34.2764 19.8822C34.2269 19.7792 34.1972 19.5887 34.1859 19.3164C34.1703 18.9297 34.2 18.5304 34.275 18.1296C34.2793 18.1057 34.275 18.0817 34.2595 18.0619C34.2453 18.0422 34.2241 18.0295 34.2 18.0266L33.6285 17.9448C33.5846 17.9392 33.5407 17.9674 33.5294 18.0111C33.4827 18.196 33.4488 18.4161 33.4261 18.6687C33.4035 18.9199 33.3964 19.1513 33.4035 19.3587C33.4233 19.8681 33.5224 20.2519 33.6992 20.4974C33.8845 20.7557 34.1618 20.8784 34.5141 20.8657C34.6231 20.8615 34.7221 20.8474 34.8084 20.822C34.8989 20.7966 34.9838 20.7543 35.0588 20.6992C35.131 20.6456 35.1961 20.5835 35.2526 20.5158C35.3092 20.4481 35.3644 20.3592 35.4196 20.2519C35.4719 20.1475 35.5215 20.0374 35.5653 19.926C35.6092 19.8145 35.6573 19.6804 35.711 19.5153C35.8398 19.1216 35.9374 18.8662 35.9997 18.7548C36.0506 18.6645 36.1143 18.6207 36.2161 18.6165C36.3222 18.6165 36.4 18.6659 36.4623 18.7745C36.5359 18.9001 36.5783 19.0892 36.5882 19.3361C36.6038 19.7355 36.5373 20.1828 36.3916 20.6668C36.3845 20.6908 36.3873 20.7148 36.4 20.7359C36.4128 20.7571 36.4326 20.7726 36.4566 20.7783L37.0127 20.9095C37.0127 20.9095 37.0268 20.9123 37.0325 20.9123C37.0678 20.9123 37.1004 20.8911 37.1145 20.8573C37.2037 20.6428 37.2716 20.3888 37.3168 20.1023C37.3621 19.8173 37.3805 19.5464 37.3706 19.2952L37.372 19.291Z" fill="white"/>
<path d="M35.3882 33.6008V33.4004H36.4351V33.6008H36.0277V34.6182H35.7971V33.6008H35.3882Z" fill="#1C1C1B"/>
<path d="M36.6785 34.6182V33.4004H36.902L37.2996 34.1073L37.6957 33.4004H37.9192V34.6182H37.6957V33.8138L37.3632 34.4107H37.2331L36.902 33.8124V34.6182H36.6785Z" fill="#1C1C1B"/>
<path d="M15.6306 23.6272C15.5811 23.6512 15.54 23.7147 15.54 23.7698V28.8285C15.54 28.8835 15.5811 28.9484 15.6306 28.971L16.4498 29.3294C16.5007 29.3506 16.5431 29.3224 16.5431 29.2673V23.3295C16.5431 23.2745 16.5007 23.2463 16.4498 23.2674L15.6306 23.6258V23.6272Z" fill="#002C4D"/>
<path d="M17.6438 22.892C17.59 22.9047 17.5461 22.9598 17.5461 23.0148V29.5834C17.5461 29.6384 17.59 29.6934 17.6438 29.7061L18.4502 29.8684C18.504 29.8783 18.5492 29.8402 18.5492 29.7852V22.8102C18.5492 22.7551 18.5054 22.7185 18.4502 22.7269L17.6438 22.8892V22.892Z" fill="#002C4D"/>
<path d="M20.0518 22.6C19.8835 22.6 19.65 22.6084 19.65 22.6084C19.5948 22.6113 19.5496 22.6578 19.5496 22.7129V29.8868C19.5496 29.9418 19.5948 29.9884 19.65 29.9912C19.65 29.9912 19.8835 29.9997 20.0518 29.9997C20.2202 29.9997 20.4522 29.9912 20.4522 29.9912C20.5074 29.9884 20.5527 29.9418 20.5527 29.8868V22.7129C20.5527 22.6578 20.5074 22.6113 20.4522 22.6084C20.4522 22.6084 20.2188 22.6 20.0518 22.6Z" fill="#002C4D"/>
<path d="M21.6547 22.7298C21.6009 22.72 21.5557 22.7581 21.5557 22.8131V29.7881C21.5557 29.8431 21.5995 29.8798 21.6547 29.8713L22.4611 29.7091C22.5149 29.6964 22.5588 29.6413 22.5588 29.5863V23.0177C22.5588 22.9627 22.5149 22.9076 22.4611 22.8949L21.6547 22.7327V22.7298Z" fill="#002C4D"/>
<path d="M23.6539 23.2689C23.603 23.2477 23.5605 23.2759 23.5605 23.331V29.2688C23.5605 29.3238 23.6016 29.3521 23.6539 29.3309L24.4731 28.9725C24.5226 28.9485 24.5636 28.885 24.5636 28.83V23.7712C24.5636 23.7162 24.5226 23.6527 24.4731 23.6287L23.6539 23.2703V23.2689Z" fill="#002C4D"/>
<path d="M19.9683 10.1289C20.0135 10.0287 20.0885 10.0287 20.1338 10.1289L21.2628 12.6194C21.3081 12.7196 21.4354 12.8127 21.5458 12.8254L24.3824 13.1387C24.4928 13.1514 24.5154 13.2205 24.4319 13.2939L22.3508 15.1255C22.2673 15.1989 22.2192 15.347 22.2418 15.4557L22.8318 18.1946C22.8559 18.3033 22.7936 18.3498 22.696 18.299L20.2286 17.0178C20.131 16.967 19.9697 16.967 19.8706 17.0178L17.4075 18.2976C17.3084 18.3484 17.2476 18.3019 17.2702 18.1946L17.8545 15.4726C17.8772 15.364 17.8291 15.2158 17.7456 15.1424L15.6644 13.2981C15.581 13.2248 15.6036 13.1542 15.714 13.1429L18.552 12.8283C18.6624 12.8156 18.7897 12.7238 18.835 12.6222L19.9668 10.1303L19.9683 10.1289Z" fill="#CE9700"/>
<path d="M51.4717 17.0135C51.9428 17.4904 52.5144 17.8756 53.1695 18.155C53.8274 18.4358 54.5291 18.5798 55.2563 18.5798C56.2269 18.5798 57.1323 18.3385 57.9472 17.8615C58.7622 17.3846 59.4144 16.7284 59.8841 15.91C60.3538 15.0916 60.5929 14.1842 60.5929 13.212C60.5929 12.4867 60.4529 11.784 60.1756 11.1222C59.8997 10.4618 59.5191 9.88326 59.0465 9.40349C58.574 8.92372 57.9996 8.53708 57.3431 8.25628C56.6852 7.97406 55.9821 7.83154 55.2563 7.83154C54.2843 7.83154 53.3789 8.07566 52.5639 8.55543C51.7504 9.0352 51.101 9.69417 50.6356 10.514C50.1701 11.3324 49.9338 12.2412 49.9338 13.2148C49.9338 13.9444 50.0725 14.6471 50.347 15.3061C50.6214 15.9636 50.9992 16.5393 51.4703 17.0163L51.4717 17.0135ZM55.2563 10.2501C56.091 10.2501 56.7234 10.5154 57.1932 11.0615C57.6643 11.6104 57.9034 12.3329 57.9034 13.212C57.9034 14.0911 57.6643 14.8122 57.1946 15.3554C56.7249 15.8973 56.0925 16.1598 55.2577 16.1598C54.423 16.1598 53.792 15.8973 53.3279 15.3554C52.8625 14.8122 52.6262 14.0911 52.6262 13.212C52.6262 12.3329 52.8639 11.609 53.3322 11.0601C53.7991 10.514 54.4286 10.2487 55.2577 10.2487L55.2563 10.2501Z" fill="#002C4D"/>
<path d="M62.2567 18.4118H64.5232C64.6406 18.4118 64.7354 18.3173 64.7354 18.2002V14.2209H69.4452C69.5627 14.2209 69.6575 14.1264 69.6575 14.0092V12.0718C69.6575 11.9547 69.5627 11.8602 69.4452 11.8602H64.7354V10.339H69.9899C70.1074 10.339 70.2022 10.2445 70.2022 10.1274V8.18993C70.2022 8.07281 70.1074 7.97827 69.9899 7.97827H62.2567C62.1392 7.97827 62.0444 8.07281 62.0444 8.18993V18.2002C62.0444 18.3173 62.1392 18.4118 62.2567 18.4118Z" fill="#002C4D"/>
<path d="M71.9112 18.4118H74.1777C74.2951 18.4118 74.3899 18.3173 74.3899 18.2002V14.2209H79.0998C79.2172 14.2209 79.312 14.1264 79.312 14.0092V12.0718C79.312 11.9547 79.2172 11.8602 79.0998 11.8602H74.3899V10.339H79.6445C79.7619 10.339 79.8567 10.2445 79.8567 10.1274V8.18993C79.8567 8.07281 79.7619 7.97827 79.6445 7.97827H71.9112C71.7938 7.97827 71.699 8.07281 71.699 8.18993V18.2002C71.699 18.3173 71.7938 18.4118 71.9112 18.4118Z" fill="#002C4D"/>
<path d="M83.8974 7.97827H81.6309C81.5137 7.97827 81.4187 8.07304 81.4187 8.18993V18.2002C81.4187 18.3171 81.5137 18.4118 81.6309 18.4118H83.8974C84.0146 18.4118 84.1096 18.3171 84.1096 18.2002V8.18993C84.1096 8.07304 84.0146 7.97827 83.8974 7.97827Z" fill="#002C4D"/>
<path d="M91.3703 18.5798C92.4244 18.5798 93.4161 18.419 94.3188 18.1001C94.4221 18.0634 94.4801 17.9547 94.4546 17.8489L93.999 16.0201C93.9849 15.9651 93.9495 15.9171 93.8986 15.8875C93.8491 15.8593 93.7896 15.8508 93.7345 15.8677C93.0511 16.0625 92.3621 16.1612 91.6887 16.1612C90.5582 16.1612 89.6924 15.8861 89.1152 15.3442C88.5337 14.7981 88.2507 14.0968 88.2507 13.1994C88.2507 12.3019 88.5337 11.6034 89.1137 11.0616C89.691 10.5239 90.5568 10.2516 91.6873 10.2516C92.3649 10.2516 93.0539 10.3504 93.7331 10.5451C93.7882 10.5606 93.8462 10.5536 93.8957 10.5254C93.9453 10.4971 93.9821 10.4506 93.9962 10.3955L94.497 8.53149C94.5253 8.42425 94.4673 8.31419 94.3626 8.2775C93.5293 7.98258 92.522 7.83301 91.3703 7.83301C90.5342 7.83301 89.7433 7.97412 89.0204 8.25069C88.296 8.52867 87.6735 8.9139 87.1698 9.39649C86.6676 9.87908 86.2686 10.4534 85.9856 11.1053C85.7027 11.7586 85.5583 12.4628 85.5583 13.1979C85.5583 13.9331 85.7027 14.6387 85.9899 15.2934C86.2757 15.9467 86.676 16.5225 87.1811 17.0065C87.6862 17.4905 88.3087 17.8785 89.0303 18.1579C89.7504 18.4373 90.5384 18.5784 91.3703 18.5784V18.5798Z" fill="#002C4D"/>
<path d="M98.3723 7.97827H96.1058C95.9886 7.97827 95.8936 8.07304 95.8936 8.18993V18.2002C95.8936 18.3171 95.9886 18.4118 96.1058 18.4118H98.3723C98.4895 18.4118 98.5845 18.3171 98.5845 18.2002V8.18993C98.5845 8.07304 98.4895 7.97827 98.3723 7.97827Z" fill="#002C4D"/>
<path d="M100.165 18.4118H102.387C102.475 18.4118 102.554 18.3568 102.586 18.275L103.314 16.3502H106.728L107.441 18.2735C107.472 18.3568 107.551 18.4118 107.641 18.4118H109.855C109.924 18.4118 109.989 18.378 110.029 18.3201C110.068 18.2623 110.077 18.1903 110.053 18.1254L106.256 8.11515C106.224 8.0333 106.145 7.97827 106.057 7.97827H103.982C103.894 7.97827 103.815 8.03189 103.784 8.11515L99.9653 18.1254C99.9413 18.1903 99.9497 18.2637 99.9894 18.3201C100.029 18.378 100.094 18.4118 100.165 18.4118ZM104.005 14.2308L105.02 11.1278L106.025 14.2308H104.005Z" fill="#002C4D"/>
<path d="M118.788 16.0511H114.166V8.18993C114.166 8.07281 114.071 7.97827 113.953 7.97827H111.687C111.569 7.97827 111.475 8.07281 111.475 8.18993V18.2002C111.475 18.3173 111.569 18.4118 111.687 18.4118H118.788C118.905 18.4118 119 18.3173 119 18.2002V16.2627C119 16.1456 118.905 16.0511 118.788 16.0511Z" fill="#002C4D"/>
<path d="M56.1349 21.862C56.1038 21.7801 56.0245 21.7251 55.9368 21.7251H53.8981C53.8104 21.7251 53.7311 21.7787 53.7 21.862L49.948 31.6972C49.9239 31.7621 49.9324 31.8355 49.972 31.892C50.0116 31.9498 50.0767 31.9837 50.1475 31.9837H52.3305C52.4182 31.9837 52.4974 31.9286 52.5286 31.8468L53.243 29.9574H56.5919L57.2922 31.8454C57.3233 31.9286 57.4025 31.9837 57.4917 31.9837H59.6676C59.737 31.9837 59.802 31.9498 59.8417 31.892C59.8813 31.8341 59.8898 31.7621 59.8657 31.6972L56.1349 21.862ZM55.8986 27.8675H53.9236L54.9167 24.8351L55.8986 27.8675Z" fill="#002C4D"/>
<path d="M67.0247 21.7251H58.335C58.2176 21.7251 58.1228 21.8196 58.1228 21.9368V23.8403C58.1228 23.9574 58.2176 24.052 58.335 24.052H61.3613V31.772C61.3613 31.8891 61.4561 31.9837 61.5735 31.9837H63.8004C63.9178 31.9837 64.0126 31.8891 64.0126 31.772V24.052H67.0247C67.1421 24.052 67.2369 23.9574 67.2369 23.8403V21.9368C67.2369 21.8196 67.1421 21.7251 67.0247 21.7251Z" fill="#002C4D"/>
<path d="M77.4163 21.7251H68.7266C68.6092 21.7251 68.5144 21.8196 68.5144 21.9368V23.8403C68.5144 23.9574 68.6092 24.052 68.7266 24.052H71.7529V31.772C71.7529 31.8891 71.8477 31.9837 71.9651 31.9837H74.192C74.3094 31.9837 74.4042 31.8891 74.4042 31.772V24.052H77.4163C77.5337 24.052 77.6285 23.9574 77.6285 23.8403V21.9368C77.6285 21.8196 77.5337 21.7251 77.4163 21.7251Z" fill="#002C4D"/>
<path d="M86.3564 21.7251H79.1126C78.9952 21.7251 78.9004 21.8196 78.9004 21.9368V31.772C78.9004 31.8891 78.9952 31.9837 79.1126 31.9837H86.3564C86.4738 31.9837 86.5686 31.8891 86.5686 31.772V29.8685C86.5686 29.7513 86.4738 29.6568 86.3564 29.6568H81.5517V27.8661H86.0748C86.1923 27.8661 86.287 27.7716 86.287 27.6545V25.7509C86.287 25.6338 86.1923 25.5393 86.0748 25.5393H81.5517V24.052H86.3564C86.4738 24.052 86.5686 23.9574 86.5686 23.8403V21.9368C86.5686 21.8196 86.4738 21.7251 86.3564 21.7251Z" fill="#002C4D"/>
<path d="M98.3878 21.7251H96.2557C96.1808 21.7251 96.1114 21.7646 96.0732 21.8295L93.2196 26.6611L90.3659 21.8295C90.3277 21.7646 90.2584 21.7251 90.1834 21.7251H88.0513C87.9339 21.7251 87.8391 21.8196 87.8391 21.9368V31.772C87.8391 31.8891 87.9339 31.9837 88.0513 31.9837H90.1834C90.3009 31.9837 90.3957 31.8891 90.3957 31.772V26.6159L92.4287 30.0632C92.4669 30.1281 92.5362 30.1676 92.6112 30.1676H93.811C93.886 30.1676 93.9553 30.1281 93.9935 30.0646L96.0421 26.6244V31.7734C96.0421 31.8905 96.1369 31.9851 96.2543 31.9851H98.3864C98.5039 31.9851 98.5986 31.8905 98.5986 31.7734V21.9382C98.5986 21.8211 98.5039 21.7265 98.3864 21.7265L98.3878 21.7251Z" fill="#002C4D"/>
<path d="M107.229 22.1865C106.688 21.8803 106.072 21.7251 105.398 21.7251H100.219C100.101 21.7251 100.006 21.8196 100.006 21.9368V31.772C100.006 31.8891 100.101 31.9837 100.219 31.9837H102.409C102.526 31.9837 102.621 31.8891 102.621 31.772V28.6309H105.391C106.063 28.6309 106.681 28.4701 107.227 28.1512C107.775 27.8323 108.201 27.4033 108.497 26.877C108.791 26.352 108.939 25.7693 108.939 25.147C108.939 24.5247 108.789 23.9447 108.492 23.4297C108.195 22.9132 107.769 22.4955 107.229 22.1893V22.1865ZM102.642 23.908H105.025C105.36 23.908 105.64 24.0238 105.882 24.2636C106.123 24.5021 106.24 24.7914 106.24 25.1456C106.24 25.4997 106.121 25.7975 105.876 26.0487C105.633 26.2984 105.356 26.4198 105.026 26.4198H102.625L102.644 23.908H102.642Z" fill="#002C4D"/>
<path d="M118.754 21.7251H110.064C109.947 21.7251 109.852 21.8196 109.852 21.9368V23.8403C109.852 23.9574 109.947 24.052 110.064 24.052H113.09V31.772C113.09 31.8891 113.185 31.9837 113.302 31.9837H115.529C115.647 31.9837 115.742 31.8891 115.742 31.772V24.052H118.754C118.871 24.052 118.966 23.9574 118.966 23.8403V21.9368C118.966 21.8196 118.871 21.7251 118.754 21.7251Z" fill="#002C4D"/>
</g>
<defs>
<clipPath id="clip0_265_215">
<rect width="119" height="40" fill="white"/>
</clipPath>
</defs>
</svg>
