<svg width="319" height="24" viewBox="0 0 319 24" fill="none" xmlns="http://www.w3.org/2000/svg">
<path d="M8.32648 23.42C6.82648 23.42 5.48648 23.1 4.30648 22.46C3.12648 21.8 2.19648 20.84 1.51648 19.58C0.836484 18.32 0.496484 16.78 0.496484 14.96V10.04C0.496484 7.3 1.24648 5.21 2.74648 3.77C4.24648 2.31 6.27648 1.58 8.83648 1.58C11.3565 1.58 13.2965 2.27 14.6565 3.65C16.0165 5.01 16.6965 6.84 16.6965 9.14V9.29H13.4865V9.05C13.4865 8.19 13.3165 7.42 12.9765 6.74C12.6365 6.04 12.1265 5.49 11.4465 5.09C10.7665 4.69 9.89648 4.49 8.83648 4.49C7.23648 4.49 5.98648 4.98 5.08648 5.96C4.18648 6.92 3.73648 8.26 3.73648 9.98V15.02C3.73648 16.72 4.18648 18.07 5.08648 19.07C5.98648 20.05 7.24648 20.54 8.86648 20.54C10.4665 20.54 11.6365 20.1 12.3765 19.22C13.1165 18.34 13.4865 17.2 13.4865 15.8V15.41H7.84648V12.62H16.6965V23H13.6965V20.87H13.2165C13.0365 21.25 12.7665 21.64 12.4065 22.04C12.0665 22.44 11.5665 22.77 10.9065 23.03C10.2665 23.29 9.40648 23.42 8.32648 23.42ZM24.8305 23.27C23.7105 23.27 22.7105 23.02 21.8305 22.52C20.9505 22.02 20.2605 21.31 19.7605 20.39C19.2605 19.47 19.0105 18.37 19.0105 17.09V8.21H22.1005V16.88C22.1005 18.16 22.4205 19.11 23.0605 19.73C23.7005 20.33 24.5905 20.63 25.7305 20.63C26.9905 20.63 28.0005 20.21 28.7605 19.37C29.5405 18.51 29.9305 17.28 29.9305 15.68V8.21H33.0205V23H29.9905V20.78H29.5105C29.2305 21.38 28.7305 21.95 28.0105 22.49C27.2905 23.01 26.2305 23.27 24.8305 23.27ZM35.7882 23V8.21H38.8782V23H35.7882ZM37.3482 6.2C36.7482 6.2 36.2382 6.01 35.8182 5.63C35.4182 5.23 35.2182 4.72 35.2182 4.1C35.2182 3.48 35.4182 2.98 35.8182 2.6C36.2382 2.2 36.7482 2 37.3482 2C37.9682 2 38.4782 2.2 38.8782 2.6C39.2782 2.98 39.4782 3.48 39.4782 4.1C39.4782 4.72 39.2782 5.23 38.8782 5.63C38.4782 6.01 37.9682 6.2 37.3482 6.2ZM41.664 23V8.21H44.694V10.43H45.174C45.454 9.83 45.954 9.27 46.674 8.75C47.394 8.23 48.464 7.97 49.884 7.97C51.004 7.97 51.994 8.22 52.854 8.72C53.734 9.22 54.424 9.93 54.924 10.85C55.424 11.75 55.674 12.84 55.674 14.12V23H52.584V14.36C52.584 13.08 52.264 12.14 51.624 11.54C50.984 10.92 50.104 10.61 48.984 10.61C47.704 10.61 46.674 11.03 45.894 11.87C45.134 12.71 44.754 13.93 44.754 15.53V23H41.664ZM58.321 23V8.21H61.351V10.43H61.831C62.111 9.83 62.611 9.27 63.331 8.75C64.051 8.23 65.121 7.97 66.541 7.97C67.661 7.97 68.651 8.22 69.511 8.72C70.391 9.22 71.081 9.93 71.581 10.85C72.081 11.75 72.331 12.84 72.331 14.12V23H69.241V14.36C69.241 13.08 68.921 12.14 68.281 11.54C67.641 10.92 66.761 10.61 65.641 10.61C64.361 10.61 63.331 11.03 62.551 11.87C61.791 12.71 61.411 13.93 61.411 15.53V23H58.321ZM81.758 23.42C80.258 23.42 78.948 23.11 77.828 22.49C76.708 21.85 75.828 20.96 75.188 19.82C74.568 18.66 74.258 17.32 74.258 15.8V15.44C74.258 13.9 74.568 12.56 75.188 11.42C75.808 10.26 76.668 9.37 77.768 8.75C78.888 8.11 80.178 7.79 81.638 7.79C83.058 7.79 84.298 8.11 85.358 8.75C86.438 9.37 87.278 10.24 87.878 11.36C88.478 12.48 88.778 13.79 88.778 15.29V16.46H77.408C77.448 17.76 77.878 18.8 78.698 19.58C79.538 20.34 80.578 20.72 81.818 20.72C82.978 20.72 83.848 20.46 84.428 19.94C85.028 19.42 85.488 18.82 85.808 18.14L88.358 19.46C88.078 20.02 87.668 20.61 87.128 21.23C86.608 21.85 85.918 22.37 85.058 22.79C84.198 23.21 83.098 23.42 81.758 23.42ZM77.438 14.09H85.628C85.548 12.97 85.148 12.1 84.428 11.48C83.708 10.84 82.768 10.52 81.608 10.52C80.448 10.52 79.498 10.84 78.758 11.48C78.038 12.1 77.598 12.97 77.438 14.09ZM96.7576 23.42C94.8776 23.42 93.3176 23 92.0776 22.16C90.8376 21.32 90.0776 20.05 89.7976 18.35L92.6776 17.66C92.8376 18.48 93.1076 19.13 93.4876 19.61C93.8676 20.09 94.3376 20.43 94.8976 20.63C95.4776 20.83 96.0976 20.93 96.7576 20.93C97.7376 20.93 98.4876 20.74 99.0076 20.36C99.5476 19.98 99.8176 19.49 99.8176 18.89C99.8176 18.29 99.5676 17.85 99.0676 17.57C98.5676 17.29 97.8276 17.06 96.8476 16.88L95.8276 16.7C94.8276 16.52 93.9176 16.26 93.0976 15.92C92.2776 15.58 91.6276 15.11 91.1476 14.51C90.6676 13.91 90.4276 13.14 90.4276 12.2C90.4276 10.8 90.9476 9.72 91.9876 8.96C93.0276 8.18 94.4076 7.79 96.1276 7.79C97.7876 7.79 99.1476 8.17 100.208 8.93C101.288 9.67 101.988 10.68 102.308 11.96L99.4276 12.77C99.2476 11.87 98.8676 11.24 98.2876 10.88C97.7076 10.5 96.9876 10.31 96.1276 10.31C95.2876 10.31 94.6276 10.47 94.1476 10.79C93.6676 11.09 93.4276 11.52 93.4276 12.08C93.4276 12.68 93.6576 13.12 94.1176 13.4C94.5976 13.68 95.2376 13.89 96.0376 14.03L97.0876 14.21C98.1476 14.39 99.1176 14.64 99.9976 14.96C100.878 15.28 101.568 15.74 102.068 16.34C102.588 16.94 102.848 17.74 102.848 18.74C102.848 20.22 102.298 21.37 101.198 22.19C100.098 23.01 98.6176 23.42 96.7576 23.42ZM110.719 23.42C108.839 23.42 107.279 23 106.039 22.16C104.799 21.32 104.039 20.05 103.759 18.35L106.639 17.66C106.799 18.48 107.069 19.13 107.449 19.61C107.829 20.09 108.299 20.43 108.859 20.63C109.439 20.83 110.059 20.93 110.719 20.93C111.699 20.93 112.449 20.74 112.969 20.36C113.509 19.98 113.779 19.49 113.779 18.89C113.779 18.29 113.529 17.85 113.029 17.57C112.529 17.29 111.789 17.06 110.809 16.88L109.789 16.7C108.789 16.52 107.879 16.26 107.059 15.92C106.239 15.58 105.589 15.11 105.109 14.51C104.629 13.91 104.389 13.14 104.389 12.2C104.389 10.8 104.909 9.72 105.949 8.96C106.989 8.18 108.369 7.79 110.089 7.79C111.749 7.79 113.109 8.17 114.169 8.93C115.249 9.67 115.949 10.68 116.269 11.96L113.389 12.77C113.209 11.87 112.829 11.24 112.249 10.88C111.669 10.5 110.949 10.31 110.089 10.31C109.249 10.31 108.589 10.47 108.109 10.79C107.629 11.09 107.389 11.52 107.389 12.08C107.389 12.68 107.619 13.12 108.079 13.4C108.559 13.68 109.199 13.89 109.999 14.03L111.049 14.21C112.109 14.39 113.079 14.64 113.959 14.96C114.839 15.28 115.529 15.74 116.029 16.34C116.549 16.94 116.809 17.74 116.809 18.74C116.809 20.22 116.259 21.37 115.159 22.19C114.059 23.01 112.579 23.42 110.719 23.42ZM126.062 23L122.972 2H126.212L128.732 20.81H129.212L132.452 2H138.122L141.362 20.81H141.842L144.332 2H147.572L144.482 23H138.812L135.512 3.92H135.032L131.762 23H126.062ZM155.701 23.42C154.221 23.42 152.901 23.12 151.741 22.52C150.601 21.9 149.701 21.02 149.041 19.88C148.381 18.74 148.051 17.39 148.051 15.83V15.38C148.051 13.82 148.381 12.48 149.041 11.36C149.701 10.22 150.601 9.34 151.741 8.72C152.901 8.1 154.221 7.79 155.701 7.79C157.181 7.79 158.501 8.1 159.661 8.72C160.821 9.34 161.731 10.22 162.391 11.36C163.051 12.48 163.381 13.82 163.381 15.38V15.83C163.381 17.39 163.051 18.74 162.391 19.88C161.731 21.02 160.821 21.9 159.661 22.52C158.501 23.12 157.181 23.42 155.701 23.42ZM155.701 20.66C157.061 20.66 158.161 20.23 159.001 19.37C159.861 18.49 160.291 17.28 160.291 15.74V15.47C160.291 13.93 159.871 12.73 159.031 11.87C158.191 10.99 157.081 10.55 155.701 10.55C154.361 10.55 153.261 10.99 152.401 11.87C151.561 12.73 151.141 13.93 151.141 15.47V15.74C151.141 17.28 151.561 18.49 152.401 19.37C153.261 20.23 154.361 20.66 155.701 20.66ZM165.428 23V8.21H168.458V9.95H168.938C169.178 9.33 169.558 8.88 170.078 8.6C170.618 8.3 171.278 8.15 172.058 8.15H173.828V10.94H171.938C170.938 10.94 170.118 11.22 169.478 11.78C168.838 12.32 168.518 13.16 168.518 14.3V23H165.428ZM175.23 23V2H178.32V23H175.23ZM187.225 23.42C186.005 23.42 184.875 23.12 183.835 22.52C182.795 21.92 181.955 21.06 181.315 19.94C180.695 18.8 180.385 17.43 180.385 15.83V15.38C180.385 13.8 180.695 12.44 181.315 11.3C181.935 10.16 182.765 9.29 183.805 8.69C184.845 8.09 185.985 7.79 187.225 7.79C188.185 7.79 188.985 7.91 189.625 8.15C190.285 8.39 190.825 8.7 191.245 9.08C191.665 9.44 191.985 9.82 192.205 10.22H192.685V2H195.775V23H192.745V20.9H192.265C191.885 21.54 191.305 22.12 190.525 22.64C189.765 23.16 188.665 23.42 187.225 23.42ZM188.095 20.72C189.435 20.72 190.535 20.29 191.395 19.43C192.275 18.57 192.715 17.34 192.715 15.74V15.47C192.715 13.89 192.285 12.67 191.425 11.81C190.565 10.95 189.455 10.52 188.095 10.52C186.775 10.52 185.675 10.95 184.795 11.81C183.935 12.67 183.505 13.89 183.505 15.47V15.74C183.505 17.34 183.935 18.57 184.795 19.43C185.675 20.29 186.775 20.72 188.095 20.72ZM204.281 23V2H213.101C214.401 2 215.541 2.23 216.521 2.69C217.521 3.13 218.291 3.77 218.831 4.61C219.391 5.45 219.671 6.45 219.671 7.61V7.94C219.671 9.26 219.351 10.32 218.711 11.12C218.091 11.9 217.331 12.45 216.431 12.77V13.25C217.191 13.29 217.801 13.55 218.261 14.03C218.721 14.49 218.951 15.16 218.951 16.04V23H215.681V16.49C215.681 15.95 215.541 15.52 215.261 15.2C214.981 14.88 214.531 14.72 213.911 14.72H207.521V23H204.281ZM207.521 11.78H212.741C213.901 11.78 214.801 11.49 215.441 10.91C216.081 10.31 216.401 9.5 216.401 8.48V8.24C216.401 7.22 216.081 6.42 215.441 5.84C214.821 5.24 213.921 4.94 212.741 4.94H207.521V11.78ZM228.306 23.42C226.806 23.42 225.496 23.11 224.376 22.49C223.256 21.85 222.376 20.96 221.736 19.82C221.116 18.66 220.806 17.32 220.806 15.8V15.44C220.806 13.9 221.116 12.56 221.736 11.42C222.356 10.26 223.216 9.37 224.316 8.75C225.436 8.11 226.726 7.79 228.186 7.79C229.606 7.79 230.846 8.11 231.906 8.75C232.986 9.37 233.826 10.24 234.426 11.36C235.026 12.48 235.326 13.79 235.326 15.29V16.46H223.956C223.996 17.76 224.426 18.8 225.246 19.58C226.086 20.34 227.126 20.72 228.366 20.72C229.526 20.72 230.396 20.46 230.976 19.94C231.576 19.42 232.036 18.82 232.356 18.14L234.906 19.46C234.626 20.02 234.216 20.61 233.676 21.23C233.156 21.85 232.466 22.37 231.606 22.79C230.746 23.21 229.646 23.42 228.306 23.42ZM223.986 14.09H232.176C232.096 12.97 231.696 12.1 230.976 11.48C230.256 10.84 229.316 10.52 228.156 10.52C226.996 10.52 226.046 10.84 225.306 11.48C224.586 12.1 224.146 12.97 223.986 14.09ZM244.115 23.42C242.695 23.42 241.405 23.12 240.245 22.52C239.105 21.92 238.195 21.05 237.515 19.91C236.855 18.77 236.525 17.4 236.525 15.8V15.41C236.525 13.81 236.855 12.45 237.515 11.33C238.195 10.19 239.105 9.32 240.245 8.72C241.405 8.1 242.695 7.79 244.115 7.79C245.535 7.79 246.745 8.05 247.745 8.57C248.745 9.09 249.545 9.78 250.145 10.64C250.765 11.5 251.165 12.45 251.345 13.49L248.345 14.12C248.245 13.46 248.035 12.86 247.715 12.32C247.395 11.78 246.945 11.35 246.365 11.03C245.785 10.71 245.055 10.55 244.175 10.55C243.315 10.55 242.535 10.75 241.835 11.15C241.155 11.53 240.615 12.09 240.215 12.83C239.815 13.55 239.615 14.43 239.615 15.47V15.74C239.615 16.78 239.815 17.67 240.215 18.41C240.615 19.15 241.155 19.71 241.835 20.09C242.535 20.47 243.315 20.66 244.175 20.66C245.475 20.66 246.465 20.33 247.145 19.67C247.825 18.99 248.255 18.13 248.435 17.09L251.435 17.78C251.195 18.8 250.765 19.74 250.145 20.6C249.545 21.46 248.745 22.15 247.745 22.67C246.745 23.17 245.535 23.42 244.115 23.42ZM260.129 23.42C258.649 23.42 257.329 23.12 256.169 22.52C255.029 21.9 254.129 21.02 253.469 19.88C252.809 18.74 252.479 17.39 252.479 15.83V15.38C252.479 13.82 252.809 12.48 253.469 11.36C254.129 10.22 255.029 9.34 256.169 8.72C257.329 8.1 258.649 7.79 260.129 7.79C261.609 7.79 262.929 8.1 264.089 8.72C265.249 9.34 266.159 10.22 266.819 11.36C267.479 12.48 267.809 13.82 267.809 15.38V15.83C267.809 17.39 267.479 18.74 266.819 19.88C266.159 21.02 265.249 21.9 264.089 22.52C262.929 23.12 261.609 23.42 260.129 23.42ZM260.129 20.66C261.489 20.66 262.589 20.23 263.429 19.37C264.289 18.49 264.719 17.28 264.719 15.74V15.47C264.719 13.93 264.299 12.73 263.459 11.87C262.619 10.99 261.509 10.55 260.129 10.55C258.789 10.55 257.689 10.99 256.829 11.87C255.989 12.73 255.569 13.93 255.569 15.47V15.74C255.569 17.28 255.989 18.49 256.829 19.37C257.689 20.23 258.789 20.66 260.129 20.66ZM269.856 23V8.21H272.886V9.95H273.366C273.606 9.33 273.986 8.88 274.506 8.6C275.046 8.3 275.706 8.15 276.486 8.15H278.256V10.94H276.366C275.366 10.94 274.546 11.22 273.906 11.78C273.266 12.32 272.946 13.16 272.946 14.3V23H269.856ZM285.25 23.42C284.03 23.42 282.9 23.12 281.86 22.52C280.82 21.92 279.98 21.06 279.34 19.94C278.72 18.8 278.41 17.43 278.41 15.83V15.38C278.41 13.8 278.72 12.44 279.34 11.3C279.96 10.16 280.79 9.29 281.83 8.69C282.87 8.09 284.01 7.79 285.25 7.79C286.21 7.79 287.01 7.91 287.65 8.15C288.31 8.39 288.85 8.7 289.27 9.08C289.69 9.44 290.01 9.82 290.23 10.22H290.71V2H293.8V23H290.77V20.9H290.29C289.91 21.54 289.33 22.12 288.55 22.64C287.79 23.16 286.69 23.42 285.25 23.42ZM286.12 20.72C287.46 20.72 288.56 20.29 289.42 19.43C290.3 18.57 290.74 17.34 290.74 15.74V15.47C290.74 13.89 290.31 12.67 289.45 11.81C288.59 10.95 287.48 10.52 286.12 10.52C284.8 10.52 283.7 10.95 282.82 11.81C281.96 12.67 281.53 13.89 281.53 15.47V15.74C281.53 17.34 281.96 18.57 282.82 19.43C283.7 20.29 284.8 20.72 286.12 20.72ZM298.481 13V2.362H294.719V0.399999H304.403V2.362H300.641V13H298.481ZM305.013 13V0.399999H309.063L311.511 11.542H311.817L314.283 0.399999H318.315V13H316.227V1.966H315.921L313.473 13H309.873L307.425 1.966H307.119V13H305.013Z" fill="#00D0EC"/>
</svg>
