<svg width="16" height="17" viewBox="0 0 16 17" fill="none" xmlns="http://www.w3.org/2000/svg">
<g clip-path="url(#clip0_104_528)">
<path d="M14.1176 7.79168V7.08334H13.1765V7.79168V8.50001V9.20834H12.2353V8.50001V7.79168V7.08334V6.37501H11.2941H10.3529V7.08334V7.79168V8.50001V9.20834H9.41175V8.50001V7.79168V7.08334V6.37501V5.66668H8.47057H7.5294V6.37501V7.08334V7.79168V8.50001V9.20834H6.58822V8.50001V7.79168V7.08334V6.37501V5.66668V4.95834V4.25001V3.54168V2.83334V2.12501V1.41668V0.708344H5.64704H4.70587V1.41668V2.12501V2.83334V3.54168V4.25001V4.95834V5.66668V6.37501V7.08334V7.79168V8.50001V9.20834V9.91668V10.625H3.76469V9.91668H2.82351V9.20834H1.88234H0.941162V9.91668V10.625H1.88234V11.3333V12.0417H2.82351V12.75V13.4583H3.76469V14.1667V14.875H4.70587V15.5833V16.2917H5.64704H6.58822H7.5294H8.47057H9.41175H10.3529H11.2941H12.2353H13.1765V15.5833V14.875H14.1176V14.1667V13.4583V12.75H15.0588V12.0417V11.3333V10.625V9.91668V9.20834V8.50001V7.79168H14.1176Z" fill="white"/>
<path fill-rule="evenodd" clip-rule="evenodd" d="M6.58823 0.708333V0H5.64706H4.70588V0.708333H5.64706H6.58823ZM6.58824 2.83333V2.125V1.41667V0.708334H7.52942V1.41667V2.125V2.83333V3.54167V4.25V4.95833H8.47059H9.41177V5.66667H8.47059H7.52942V6.375V7.08333V7.79167V8.5V9.20833H6.58824V8.5V7.79167V7.08333V6.375V5.66667V4.95833V4.25V3.54167V2.83333ZM9.41177 5.66667H10.3529H11.2941H12.2353V6.375H11.2941H10.3529V7.08333V7.79167V8.5V9.20833H9.41176V8.5V7.79167V7.08333V6.375L9.41177 5.66667ZM12.2353 8.5V7.79167V7.08333V6.375H13.1765H14.1177V7.08333H13.1765V7.79167V8.5V9.20833H12.2353V8.5ZM14.1176 7.08333H15.0588V7.79167H14.1176V7.08333ZM15.0588 7.79167V8.5V9.20833V9.91667V10.625V11.3333V12.0417V12.75H16V12.0417V11.3333V10.625V9.91667V9.20833V8.5V7.79167H15.0588ZM14.1176 13.4583V14.1667V14.875H13.1765V15.5833V16.2917H12.2353H11.2941H10.3529H9.41176H8.47058H7.52941H6.58823H5.64705H4.70588V15.5833V14.875H3.7647V15.5833V16.2917V17H4.70588H5.64705H6.58823H7.52941H8.47058H9.41176H10.3529H11.2941H12.2353H13.1765H14.1176V16.2917V15.5833L14.1176 14.875H15.0588V14.1667V13.4583V12.75H14.1176V13.4583ZM2.82354 13.4583L3.7647 13.4583V14.1667V14.875H2.82352V14.1667V13.4583L1.88236 13.4583V12.75V12.0417H2.82354V12.75V13.4583ZM3.7647 9.91667V10.625H4.70587V9.91667V9.20833V8.5V7.79167V7.08333V6.375V5.66667V4.95833V4.25V3.54167V2.83333V2.125V1.41667V0.708334H3.7647V1.41667V2.125V2.83333V3.54167V4.25V4.95833V5.66667V6.375V7.08333V7.79167V8.5V9.20833H2.82353V8.5H1.88235H0.941176H0V9.20833V9.91667V10.625H0.941163V11.3333V12.0417H1.88234V11.3333V10.625H0.941176V9.91667V9.20833H1.88235H2.82352V9.91667H3.7647Z" fill="#25133D"/>
</g>
<defs>
<clipPath id="clip0_104_528">
<rect width="16" height="17" fill="white"/>
</clipPath>
</defs>
</svg>
