<svg width="181" height="27" viewBox="0 0 181 27" fill="none" xmlns="http://www.w3.org/2000/svg">
<path d="M166.14 15.1497L166.14 22.9198L181 22.9198L181 26.5227L162.414 26.5227L162.414 0.477661L180.784 0.47766L180.784 4.08055L166.14 4.08055L166.14 11.5468L178.617 11.5468L178.617 15.1497L166.14 15.1497Z" fill="#00D0EC"/>
<path d="M149.968 27C146.588 27 143.974 26.291 142.126 24.873C140.306 23.426 139.31 21.3714 139.136 18.709L143.079 18.709C143.252 21.9502 145.534 23.5707 149.924 23.5707C151.715 23.5707 153.13 23.2379 154.17 22.5723C155.239 21.8778 155.773 20.9084 155.773 19.664C155.773 18.7669 155.484 18.0289 154.907 17.4502C154.329 16.8424 153.592 16.3649 152.697 16.0177C151.802 15.6704 150.603 15.2942 149.101 14.8891C147.166 14.3392 145.621 13.8183 144.465 13.3264C143.31 12.8055 142.313 12.0531 141.476 11.0691C140.638 10.0852 140.219 8.78296 140.219 7.16238C140.219 5.74437 140.609 4.5 141.389 3.42926C142.169 2.32958 143.267 1.49035 144.682 0.911574C146.097 0.303858 147.744 -5.939e-07 149.621 -7.23442e-07C152.509 -9.22737e-07 154.82 0.651123 156.553 1.95337C158.286 3.22668 159.254 5.07877 159.456 7.50964L155.513 7.50964C155.311 4.78939 153.376 3.42926 149.708 3.42926C147.975 3.42926 146.603 3.76206 145.592 4.42765C144.61 5.09324 144.119 5.99035 144.119 7.11897C144.119 7.98714 144.407 8.71061 144.985 9.28939C145.563 9.86817 146.27 10.3312 147.108 10.6785C147.946 10.9968 149.13 11.373 150.661 11.8071C152.567 12.328 154.112 12.8489 155.297 13.3698C156.51 13.8907 157.535 14.6576 158.373 15.6704C159.239 16.6833 159.672 18.0145 159.672 19.664C159.672 21.9212 158.777 23.7154 156.986 25.0466C155.195 26.3489 152.856 27 149.968 27Z" fill="#00D0EC"/>
<path d="M139.949 26.5227L136.093 26.5227L133.97 19.2735L120.973 19.2735L118.85 26.5227L115.081 26.5227L122.836 0.477661L132.151 0.47766L139.949 26.5227ZM125.522 3.90692L122.056 15.6706L132.887 15.6706L129.421 3.90692L125.522 3.90692Z" fill="#00D0EC"/>
<path d="M110.649 12.849C112.007 13.2252 113.104 13.9777 113.942 15.1063C114.809 16.2349 115.242 17.5805 115.242 19.1433C115.242 20.5034 114.881 21.7478 114.159 22.8764C113.437 24.005 112.397 24.9021 111.039 25.5677C109.682 26.2043 108.079 26.5227 106.23 26.5227L94.7922 26.5227L94.7922 0.477661L106.23 0.47766C108.685 0.47766 110.649 1.09985 112.122 2.34422C113.624 3.55965 114.375 5.15129 114.375 7.11914C114.375 8.39245 114.043 9.52107 113.379 10.505C112.714 11.4889 111.805 12.2124 110.649 12.6754L110.649 12.849ZM98.5182 3.77669L98.5182 11.46L105.927 11.46C107.371 11.46 108.483 11.1127 109.263 10.4182C110.072 9.72364 110.476 8.78313 110.476 7.59663C110.476 6.43907 110.072 5.51303 109.263 4.8185C108.483 4.12396 107.371 3.77669 105.927 3.77669L98.5182 3.77669ZM106.1 23.2236C107.775 23.2236 109.061 22.833 109.956 22.0516C110.88 21.2703 111.343 20.214 111.343 18.8828C111.343 17.5806 110.895 16.5387 109.999 15.7574C109.104 14.976 107.833 14.5854 106.187 14.5854L98.5182 14.5854L98.5182 23.2236L106.1 23.2236Z" fill="#00D0EC"/>
<path d="M78.7303 27C76.2174 27 73.9356 26.4212 71.8849 25.2637C69.8341 24.0772 68.2167 22.4566 67.0324 20.4019C65.8482 18.3473 65.2561 16.0466 65.2561 13.5C65.2561 10.9534 65.8482 8.65273 67.0324 6.59807C68.2167 4.54341 69.8341 2.9373 71.8849 1.77974C73.9356 0.593246 76.2174 -7.56325e-07 78.7303 -9.29712e-07C81.2431 -1.1031e-06 83.525 0.593246 85.5757 1.77974C87.6264 2.9373 89.2439 4.5434 90.4281 6.59807C91.6123 8.65273 92.2045 10.9534 92.2045 13.5C92.2045 16.0466 91.6123 18.3473 90.4281 20.4019C89.2439 22.4566 87.6264 24.0772 85.5757 25.2637C83.525 26.4212 81.2431 27 78.7303 27ZM78.7303 23.3971C80.5499 23.3971 82.1819 22.9775 83.626 22.1383C85.0702 21.299 86.2111 20.127 87.0487 18.6222C87.8864 17.1174 88.3052 15.41 88.3052 13.5C88.3052 11.59 87.8864 9.88263 87.0487 8.37781C86.2111 6.87299 85.0702 5.70096 83.626 4.86173C82.1819 4.02251 80.5499 3.60289 78.7303 3.60289C76.9106 3.60289 75.2787 4.02251 73.8345 4.86173C72.3903 5.70096 71.2494 6.87299 70.4118 8.37781C69.5742 9.88263 69.1554 11.59 69.1554 13.5C69.1554 15.41 69.5742 17.1174 70.4118 18.6222C71.2494 20.127 72.3903 21.299 73.8345 22.1383C75.2787 22.9775 76.9106 23.3971 78.7303 23.3971Z" fill="#00D0EC"/>
<path d="M60.607 26.5227L53.9783 16.886L47.7394 16.886L47.7394 26.5227L44.0134 26.5227L44.0134 0.477661L54.8014 0.47766C57.8053 0.47766 60.1449 1.23007 61.8201 2.73489C63.5243 4.21078 64.3763 6.19309 64.3763 8.68184C64.3763 10.6786 63.8131 12.3715 62.6866 13.7606C61.5891 15.1497 60.0149 16.0757 57.9642 16.5388L64.9396 26.5227L60.607 26.5227ZM47.7394 3.90692L47.7394 13.4568L54.6715 13.4568C56.5778 13.4568 58.022 13.0516 59.004 12.2413C59.986 11.4021 60.4771 10.2156 60.4771 8.68184C60.4771 7.17702 59.986 6.00499 59.004 5.16576C58.022 4.32653 56.5778 3.90692 54.6715 3.90692L47.7394 3.90692Z" fill="#00D0EC"/>
<path d="M26.6657 15.1497L26.6657 22.9198L41.5263 22.9198L41.5263 26.5227L22.9397 26.5227L22.9397 0.477661L41.3096 0.47766L41.3096 4.08055L26.6657 4.08055L26.6657 11.5468L39.1434 11.5468L39.1434 15.1497L26.6657 15.1497Z" fill="#00D0EC"/>
<path d="M20.7528 26.5227L1.77488e-06 26.5227L1.43173e-06 21.4873L16.2903 4.8619L16.2903 4.08055L0.606555 4.08056L0.606555 0.477661L20.4929 0.47766L20.4929 5.51303L4.20256 22.1384L4.20256 22.9198L20.7528 22.9198L20.7528 26.5227Z" fill="#00D0EC"/>
<path fill-rule="evenodd" clip-rule="evenodd" d="M73.3384 16.8339L78.5634 7.71228L83.7884 16.8339L73.3384 16.8339Z" fill="#00D0EC"/>
</svg>
