<svg width="94" height="59" viewBox="0 0 94 59" fill="none" xmlns="http://www.w3.org/2000/svg">
<path d="M82.25 29.4682V23.5745H64.625V11.7872H58.75V5.89355H35.25V11.7872H29.375V17.6809H23.5V23.5745H11.75V29.4682H5.875V47.1491H11.75V53.0428H82.25V47.1491H88.125V29.4682H82.25ZM29.375 35.3618H35.25V41.2555H29.375V35.3618ZM41.125 35.3618H47V41.2555H41.125V35.3618ZM52.875 35.3618H58.75V41.2555H52.875V35.3618Z" fill="white"/>
<path fill-rule="evenodd" clip-rule="evenodd" d="M52.875 5.89365H47H41.125H35.25V11.7872H29.375V5.89358H35.25V0H41.125H47H52.875H58.75V5.89358H64.625V11.7872H58.75V5.89365H52.875ZM23.5 11.7873H29.375V17.681H23.5V23.5746H17.625H11.75V17.6809H17.625H23.5V11.7873ZM70.5 23.5746H64.625V17.681V11.7873H70.5V17.681H76.375H82.25V23.5746H76.375H70.5ZM11.75 23.5747H5.875L5.875 29.4683H0V35.3619V41.2556V47.1492H5.875L5.875 53.0428H11.75V47.1492H5.875L5.875 41.2556V35.3619L5.875 29.4683H11.75V23.5747ZM82.25 23.5747H88.125V29.4683H94V35.3619V41.2556V47.1492H88.125V41.2556V35.3619V29.4683H82.25V23.5747ZM88.125 47.1492V53.0428H82.25V47.1492L88.125 47.1492ZM35.25 35.3618H29.375V41.2555H35.25V35.3618ZM41.125 35.3618H47V41.2555H41.125V35.3618ZM58.75 35.3618H52.875V41.2555H58.75V35.3618ZM64.625 53.0429H70.5H76.375H82.25V58.9366H76.375H70.5H64.625H58.75H52.875H47H41.125H35.25H29.375H23.5H17.625H11.75V53.0429H17.625H23.5H29.375H35.25H41.125H47H52.875H58.75H64.625Z" fill="black"/>
</svg>
