<svg width="71" height="21" viewBox="0 0 71 21" fill="none" xmlns="http://www.w3.org/2000/svg">
<mask id="mask0_271_1218" style="mask-type:luminance" maskUnits="userSpaceOnUse" x="0" y="0" width="71" height="21">
<path d="M71 0H0V20.3219H71V0Z" fill="white"/>
</mask>
<g mask="url(#mask0_271_1218)">
<path d="M63.6091 1.84668L67.3066 3.69338L69.1533 7.39087V12.931L67.3066 16.6285L63.6091 18.4752H7.39087L3.69338 16.6285L1.84668 12.931V7.39087L3.69338 3.69338L7.39087 1.84668H63.6091Z" fill="#00EDFF"/>
<path d="M71 9.55615H69.1533V11.4029H71V9.55615Z" fill="#00C3FF"/>
<path d="M1.8467 9.55615H0V11.4029H1.8467V9.55615Z" fill="#00C3FF"/>
<path d="M67.3066 13.2495H65.4599H63.6091V15.0962H9.23757H7.39087V13.2495H5.54416H3.69338V11.4028H1.84668V13.2495V15.0962H3.69338V16.9429H5.54416H7.39087V18.7937H9.23757H63.6091V16.9429H65.4599H67.3066V15.0962H69.1533V13.2495V11.4028H67.3066V13.2495Z" fill="#00C3FF"/>
<path opacity="0.32" d="M65.4598 3.70559H63.609V3.68516V1.85889H61.7623H7.39083V3.70559H5.54413H3.69336V5.55229V7.39899H5.54413V5.55229H7.39083H9.23754V3.70559H61.7623V5.53186H63.609V5.55229H65.4598V7.39899H67.3065V5.55229V3.70559H65.4598Z" fill="white"/>
<path d="M63.6091 0H9.23755V1.8467H63.6091V0Z" fill="#000600"/>
<path d="M65.4599 1.84668H63.6091V3.69338H65.4599H67.3066V1.84668H65.4599Z" fill="#000600"/>
<path d="M63.6091 16.6284V18.4751H65.4599H67.3066V16.6284H65.4599H63.6091Z" fill="#000600"/>
<path d="M69.1533 3.69336H67.3066V5.54413V7.39083H69.1533V5.54413V3.69336Z" fill="#000600"/>
<path d="M67.3066 14.7819V16.6286H69.1533V14.7819V12.9312H67.3066V14.7819Z" fill="#000600"/>
<path d="M69.1533 7.39062V9.23733V11.084V12.9307H71V11.084V9.23733V7.39062H69.1533Z" fill="#000600"/>
<path d="M7.39087 18.4751V20.3218H9.23757H63.6092V18.4751H9.23757H7.39087Z" fill="#000600"/>
<path d="M9.23757 0H7.39087V1.8467H9.23757V0Z" fill="#000600"/>
<path d="M5.54413 16.6284H3.69336V18.4751H5.54413H7.39083V16.6284H5.54413Z" fill="#000600"/>
<path d="M7.39083 3.69338V1.84668H5.54413H3.69336V3.69338H5.54413H7.39083Z" fill="#000600"/>
<path d="M3.69338 12.9312H1.84668V14.7819V16.6286H3.69338V14.7819V12.9312Z" fill="#000600"/>
<path d="M3.69338 5.54413V3.69336H1.84668V5.54413V7.39083H3.69338V5.54413Z" fill="#000600"/>
<path d="M1.8467 9.23733V7.39062H0V9.23733V11.084V12.9307H1.8467V11.084V9.23733Z" fill="#000600"/>
<path d="M11.0842 3.95898H9.23746V5.79341H7.39893V7.64012H9.24971V5.80567H11.0842V3.95898Z" fill="white"/>
<path d="M7.39089 5.79346H5.54419V7.64016H7.39089V5.79346Z" fill="white"/>
<path fill-rule="evenodd" clip-rule="evenodd" d="M62.1675 5.05127V5.40127H62.5199V5.75185V6.10126V6.45184H62.1675V6.80184H61.8157V7.15184V7.50242H61.464H61.1116V7.15184V6.80184H61.464V6.45184H61.8157V6.10126V5.75185H61.464H61.1116H60.7592V6.10126H60.4075V5.75185V5.40127H60.7592V5.05127H61.1116H61.464H61.8157H62.1675ZM61.1117 8.20262V7.85203H61.4641H61.8158V8.20262H61.4641H61.1117Z" fill="#7D423F"/>
<path fill-rule="evenodd" clip-rule="evenodd" d="M63.2754 4.35059V4.70058V5.05117V5.40117V5.75175V6.10116V6.45174H63.2233V6.80174H63.2754V7.15174V7.50232V7.85232V8.20291V8.5529H63.6278V8.20291V7.85232V7.50232V7.15174V6.80174H63.5757V6.45174H63.6278V6.10116V5.75175V5.40117V5.05117V4.70058V4.35059H63.2754ZM62.8716 8.20282H62.5198H62.2195V8.55282H62.5719H62.8716H63.2233V8.20282V7.85223H62.8716V8.20282ZM61.1118 8.20268H61.4641H61.8159H62.1677V8.55267H61.8159H61.4641H61.1118H60.7594H60.4076H60.0559H59.7041V8.20268H60.0559H60.4076H60.7594H61.1118Z" fill="#C47A41"/>
<path d="M62.8719 4.70068H60.056V5.05127H59.7036V8.20301H61.1113V7.85301H61.8154V8.20301H62.8713V7.85301H63.2237V4.70068H62.8713H62.8719ZM61.4643 7.50243H61.1119V6.80184H61.4643V6.45125H61.816V5.75126H60.7601V6.10126H60.4078V5.40127H60.7601V5.05127H62.1684V5.40127H62.5208V6.45185H62.1684V6.80243H61.816V7.50302H61.4643V7.50243Z" fill="#F2BF33"/>
<path d="M62.8718 4.35059H62.52H62.1677H61.8159H61.4641H61.1117H60.7594H60.4076H60.0558H59.7041H59.3523V4.70058V5.05117V5.40117V5.75175V6.10116V6.45174V6.80174V7.15174V7.50232V7.85232V8.20291V8.5529H59.7041V8.20291V7.85232V7.50232V7.15174V6.80174V6.45174V6.10116V5.75175V5.40117V5.05117H60.0558V4.70058H60.4076H60.7594H61.1117H61.4641H61.8159H62.1677H62.52H62.8718H63.2236V4.35059H62.8718Z" fill="#F2D072"/>
<path fill-rule="evenodd" clip-rule="evenodd" d="M60.0561 4.35059H60.4078H60.7596H61.112H61.4643H61.8161H62.1679H62.5203H62.872H63.2238H63.5761V4.70044V5.05103V5.40102V5.75161V6.10101V6.4516V6.8016V7.15159V7.50218V7.85218V8.20276V8.55276H63.9278V8.20276V7.85218V7.50218V7.15159V6.8016V6.4516V6.10101V5.75161V5.40102V5.05103V4.70044V4.35044H63.5762V4H63.2238H62.872H62.5203H62.1679H61.8161H61.4643H61.112H60.7596H60.4078H60.0561H59.7043H59.3525V4.35059H59.7043H60.0561ZM62.5203 8.55298H62.872H63.2238H63.5762V8.90356H63.2238H62.872H62.5203H62.1679H61.8161H61.4643H61.112H60.7596H60.4078H60.0561H59.7043H59.3525V8.55298H59.7043H60.0561H60.4078H60.7596H61.112H61.4643H61.8161H62.1679H62.5203ZM59.3524 7.50218V7.85218V8.20276V8.55276H59V8.20276V7.85218V7.50218V7.15159V6.8016V6.4516V6.10101V5.75161V5.40102V5.05103V4.70044V4.35044H59.3524V4.70044V5.05103V5.40102V5.75161V6.10101V6.4516V6.8016V7.15159V7.50218Z" fill="#202126"/>
<path d="M17.375 15H16.5H15.625H14.75H13.875H13V14.125V13.25H13.875H14.75V12.375V11.5V10.625V9.75V8.875V8H13.875H13V7.125V6.25H13.875H14.75V5.375V4.5H15.625H16.5V5.375V6.25V7.125V8V8.875V9.75V10.625V11.5V12.375V13.25H17.375H18.25V14.125V15H17.375ZM23.5 15H22.625H21.75H20.875V14.125V13.25H21.75H22.625H23.5H24.375V14.125V15H23.5ZM24.375 13.25V12.375V11.5V10.625V9.75V8.875H23.5V9.75V10.625H22.625H21.75V11.5V12.375H20.875V13.25H20H19.125V12.375V11.5V10.625V9.75V8.875V8V7.125V6.25H20H20.875V7.125V8V8.875V9.75V10.625H21.75V9.75V8.875H22.625H23.5V8V7.125H24.375V6.25H25.25H26.125V7.125V8V8.875V9.75V10.625V11.5V12.375V13.25H25.25H24.375ZM24.375 6.25H23.5H22.625H21.75H20.875V5.375V4.5H21.75H22.625H23.5H24.375V5.375V6.25ZM31.375 15H30.5H29.625H28.75V14.125V13.25H29.625H30.5H31.375H32.25V14.125V15H31.375ZM32.25 13.25V12.375V11.5V10.625V9.75V8.875H31.375V9.75V10.625H30.5H29.625V11.5V12.375H28.75V13.25H27.875H27V12.375V11.5V10.625V9.75V8.875V8V7.125V6.25H27.875H28.75V7.125V8V8.875V9.75V10.625H29.625V9.75V8.875H30.5H31.375V8V7.125H32.25V6.25H33.125H34V7.125V8V8.875V9.75V10.625V11.5V12.375V13.25H33.125H32.25ZM32.25 6.25H31.375H30.5H29.625H28.75V5.375V4.5H29.625H30.5H31.375H32.25V5.375V6.25ZM47.125 15H46.25V14.125V13.25V12.375V11.5H47.125H48V12.375V13.25V14.125V15H47.125ZM40.125 15H39.25V14.125V13.25V12.375V11.5H40.125H41V12.375V13.25V14.125V15H40.125ZM46.25 11.5H45.375H44.5V10.625V9.75H45.375H46.25V10.625V11.5ZM41 11.5V10.625V9.75H41.875H42.75V10.625V11.5H41.875H41ZM44.5 9.75H43.625H42.75V8.875V8H43.625H44.5V8.875V9.75ZM44.5 8V7.125V6.25H45.375H46.25V7.125V8H45.375H44.5ZM42.75 8H41.875H41V7.125V6.25H41.875H42.75V7.125V8ZM46.25 6.25V5.375V4.5H47.125H48V5.375V6.25H47.125H46.25ZM41 6.25H40.125H39.25V5.375V4.5H40.125H41V5.375V6.25ZM49.75 15H48.875V14.125V13.25V12.375V11.5V10.625V9.75V8.875V8V7.125V6.25V5.375V4.5H49.75H50.625H51.5H52.375H53.25H54.125H55H55.875V5.375V6.25H56.75H57.625V7.125V8H56.75H55.875V7.125V6.25H55H54.125H53.25H52.375H51.5H50.625V7.125V8H51.5H52.375H53.25H54.125H55H55.875V8.875V9.75H55H54.125H53.25H52.375H51.5H50.625V10.625V11.5V12.375V13.25V14.125V15H49.75Z" fill="black"/>
</g>
</svg>
