<svg width="71" height="22" viewBox="0 0 71 22" fill="none" xmlns="http://www.w3.org/2000/svg">
<path d="M63.6091 1.84668L67.3066 3.69338L69.1533 7.39087V12.931L67.3066 16.6285L63.6091 18.4752H7.39087L3.69338 16.6285L1.84668 12.931V7.39087L3.69338 3.69338L7.39087 1.84668H63.6091Z" fill="#00EDFF"/>
<path d="M71 9.55615H69.1533V11.4029H71V9.55615Z" fill="#00C3FF"/>
<path d="M1.8467 9.55615H0V11.4029H1.8467V9.55615Z" fill="#00C3FF"/>
<path d="M67.3066 13.2495H65.4599H63.6091V15.0962H9.23757H7.39087V13.2495H5.54416H3.69338V11.4028H1.84668V13.2495V15.0962H3.69338V16.9429H5.54416H7.39087V18.7937H9.23757H63.6091V16.9429H65.4599H67.3066V15.0962H69.1533V13.2495V11.4028H67.3066V13.2495Z" fill="#00C3FF"/>
<path opacity="0.32" d="M65.4598 3.70559H63.609V3.68516V1.85889H61.7623H7.39083V3.70559H5.54413H3.69336V5.55229V7.39899H5.54413V5.55229H7.39083H9.23754V3.70559H61.7623V5.53186H63.609V5.55229H65.4598V7.39899H67.3065V5.55229V3.70559H65.4598Z" fill="white"/>
<path d="M63.6091 0H9.23755V1.8467H63.6091V0Z" fill="#000600"/>
<path d="M65.4599 1.84668H63.6091V3.69338H65.4599H67.3066V1.84668H65.4599Z" fill="#000600"/>
<path d="M63.6091 16.6284V18.4751H65.4599H67.3066V16.6284H65.4599H63.6091Z" fill="#000600"/>
<path d="M69.1533 3.69336H67.3066V5.54413V7.39083H69.1533V5.54413V3.69336Z" fill="#000600"/>
<path d="M67.3066 14.7819V16.6286H69.1533V14.7819V12.9312H67.3066V14.7819Z" fill="#000600"/>
<path d="M69.1533 7.39062V9.23733V11.084V12.9307H71V11.084V9.23733V7.39062H69.1533Z" fill="#000600"/>
<path d="M7.39087 18.4751V20.3218H9.23757H63.6092V18.4751H9.23757H7.39087Z" fill="#000600"/>
<path d="M9.23757 0H7.39087V1.8467H9.23757V0Z" fill="#000600"/>
<path d="M5.54413 16.6284H3.69336V18.4751H5.54413H7.39083V16.6284H5.54413Z" fill="#000600"/>
<path d="M7.39083 3.69338V1.84668H5.54413H3.69336V3.69338H5.54413H7.39083Z" fill="#000600"/>
<path d="M3.69338 12.9312H1.84668V14.7819V16.6286H3.69338V14.7819V12.9312Z" fill="#000600"/>
<path d="M3.69338 5.54413V3.69336H1.84668V5.54413V7.39083H3.69338V5.54413Z" fill="#000600"/>
<path d="M1.8467 9.23733V7.39062H0V9.23733V11.084V12.9307H1.8467V11.084V9.23733Z" fill="#000600"/>
<path d="M11.0842 3.95898H9.23746V5.79341H7.39893V7.64012H9.24971V5.80567H11.0842V3.95898Z" fill="white"/>
<path d="M7.39089 5.79346H5.54419V7.64016H7.39089V5.79346Z" fill="white"/>
<path d="M14.375 15H13.5H12.625H11.75H10.875H10V14.125V13.25H10.875H11.75V12.375V11.5V10.625V9.75V8.875V8H10.875H10V7.125V6.25H10.875H11.75V5.375V4.5H12.625H13.5V5.375V6.25V7.125V8V8.875V9.75V10.625V11.5V12.375V13.25H14.375H15.25V14.125V15H14.375ZM20.5 15H19.625H18.75H17.875H17H16.125V14.125V13.25H17H17.875V12.375V11.5V10.625V9.75V8.875V8H17H16.125V7.125V6.25H17H17.875V5.375V4.5H18.75H19.625V5.375V6.25V7.125V8V8.875V9.75V10.625V11.5V12.375V13.25H20.5H21.375V14.125V15H20.5ZM26.625 15H25.75H24.875H24V14.125V13.25H24.875H25.75H26.625H27.5V14.125V15H26.625ZM27.5 13.25V12.375V11.5V10.625V9.75V8.875H26.625V9.75V10.625H25.75H24.875V11.5V12.375H24V13.25H23.125H22.25V12.375V11.5V10.625V9.75V8.875V8V7.125V6.25H23.125H24V7.125V8V8.875V9.75V10.625H24.875V9.75V8.875H25.75H26.625V8V7.125H27.5V6.25H28.375H29.25V7.125V8V8.875V9.75V10.625V11.5V12.375V13.25H28.375H27.5ZM27.5 6.25H26.625H25.75H24.875H24V5.375V4.5H24.875H25.75H26.625H27.5V5.375V6.25ZM34.5 15H33.625H32.75H31.875V14.125V13.25H32.75H33.625H34.5H35.375V14.125V15H34.5ZM35.375 13.25V12.375V11.5V10.625V9.75V8.875H34.5V9.75V10.625H33.625H32.75V11.5V12.375H31.875V13.25H31H30.125V12.375V11.5V10.625V9.75V8.875V8V7.125V6.25H31H31.875V7.125V8V8.875V9.75V10.625H32.75V9.75V8.875H33.625H34.5V8V7.125H35.375V6.25H36.25H37.125V7.125V8V8.875V9.75V10.625V11.5V12.375V13.25H36.25H35.375ZM35.375 6.25H34.5H33.625H32.75H31.875V5.375V4.5H32.75H33.625H34.5H35.375V5.375V6.25ZM50.25 15H49.375V14.125V13.25V12.375V11.5H50.25H51.125V12.375V13.25V14.125V15H50.25ZM43.25 15H42.375V14.125V13.25V12.375V11.5H43.25H44.125V12.375V13.25V14.125V15H43.25ZM49.375 11.5H48.5H47.625V10.625V9.75H48.5H49.375V10.625V11.5ZM44.125 11.5V10.625V9.75H45H45.875V10.625V11.5H45H44.125ZM47.625 9.75H46.75H45.875V8.875V8H46.75H47.625V8.875V9.75ZM47.625 8V7.125V6.25H48.5H49.375V7.125V8H48.5H47.625ZM45.875 8H45H44.125V7.125V6.25H45H45.875V7.125V8ZM49.375 6.25V5.375V4.5H50.25H51.125V5.375V6.25H50.25H49.375ZM44.125 6.25H43.25H42.375V5.375V4.5H43.25H44.125V5.375V6.25ZM52.875 15H52V14.125V13.25V12.375V11.5V10.625V9.75V8.875V8V7.125V6.25V5.375V4.5H52.875H53.75H54.625H55.5H56.375H57.25H58.125H59V5.375V6.25H59.875H60.75V7.125V8H59.875H59V7.125V6.25H58.125H57.25H56.375H55.5H54.625H53.75V7.125V8H54.625H55.5H56.375H57.25H58.125H59V8.875V9.75H58.125H57.25H56.375H55.5H54.625H53.75V10.625V11.5V12.375V13.25V14.125V15H52.875Z" fill="black"/>
<path fill-rule="evenodd" clip-rule="evenodd" d="M65.1675 5.05127V5.40127H65.5199V5.75185V6.10126V6.45184H65.1675V6.80184H64.8157V7.15184V7.50242H64.464H64.1116V7.15184V6.80184H64.464V6.45184H64.8157V6.10126V5.75185H64.464H64.1116H63.7592V6.10126H63.4075V5.75185V5.40127H63.7592V5.05127H64.1116H64.464H64.8157H65.1675ZM64.1117 8.20262V7.85203H64.4641H64.8158V8.20262H64.4641H64.1117Z" fill="#7D423F"/>
<path fill-rule="evenodd" clip-rule="evenodd" d="M66.2754 4.35059V4.70058V5.05117V5.40117V5.75175V6.10116V6.45174H66.2233V6.80174H66.2754V7.15174V7.50232V7.85232V8.20291V8.5529H66.6278V8.20291V7.85232V7.50232V7.15174V6.80174H66.5757V6.45174H66.6278V6.10116V5.75175V5.40117V5.05117V4.70058V4.35059H66.2754ZM65.8716 8.20282H65.5198H65.2195V8.55282H65.5719H65.8716H66.2233V8.20282V7.85223H65.8716V8.20282ZM64.1118 8.20268H64.4641H64.8159H65.1677V8.55267H64.8159H64.4641H64.1118H63.7594H63.4076H63.0559H62.7041V8.20268H63.0559H63.4076H63.7594H64.1118Z" fill="#C47A41"/>
<path d="M65.8719 4.70068H63.056V5.05127H62.7036V8.20301H64.1113V7.85301H64.8154V8.20301H65.8713V7.85301H66.2237V4.70068H65.8713H65.8719ZM64.4643 7.50243H64.1119V6.80184H64.4643V6.45125H64.816V5.75126H63.7601V6.10126H63.4078V5.40127H63.7601V5.05127H65.1684V5.40127H65.5208V6.45185H65.1684V6.80243H64.816V7.50302H64.4643V7.50243Z" fill="#F2BF33"/>
<path d="M65.8718 4.35059H65.52H65.1677H64.8159H64.4641H64.1117H63.7594H63.4076H63.0558H62.7041H62.3523V4.70058V5.05117V5.40117V5.75175V6.10116V6.45174V6.80174V7.15174V7.50232V7.85232V8.20291V8.5529H62.7041V8.20291V7.85232V7.50232V7.15174V6.80174V6.45174V6.10116V5.75175V5.40117V5.05117H63.0558V4.70058H63.4076H63.7594H64.1117H64.4641H64.8159H65.1677H65.52H65.8718H66.2236V4.35059H65.8718Z" fill="#F2D072"/>
<path fill-rule="evenodd" clip-rule="evenodd" d="M63.0561 4.35059H63.4078H63.7596H64.112H64.4643H64.8161H65.1679H65.5203H65.872H66.2238H66.5761V4.70044V5.05103V5.40102V5.75161V6.10101V6.4516V6.8016V7.15159V7.50218V7.85218V8.20276V8.55276H66.9278V8.20276V7.85218V7.50218V7.15159V6.8016V6.4516V6.10101V5.75161V5.40102V5.05103V4.70044V4.35044H66.5762V4H66.2238H65.872H65.5203H65.1679H64.8161H64.4643H64.112H63.7596H63.4078H63.0561H62.7043H62.3525V4.35059H62.7043H63.0561ZM65.5203 8.55298H65.872H66.2238H66.5762V8.90356H66.2238H65.872H65.5203H65.1679H64.8161H64.4643H64.112H63.7596H63.4078H63.0561H62.7043H62.3525V8.55298H62.7043H63.0561H63.4078H63.7596H64.112H64.4643H64.8161H65.1679H65.5203ZM62.3524 7.50218V7.85218V8.20276V8.55276H62V8.20276V7.85218V7.50218V7.15159V6.8016V6.4516V6.10101V5.75161V5.40102V5.05103V4.70044V4.35044H62.3524V4.70044V5.05103V5.40102V5.75161V6.10101V6.4516V6.8016V7.15159V7.50218Z" fill="#202126"/>
</svg>
