<svg width="71" height="22" viewBox="0 0 71 22" fill="none" xmlns="http://www.w3.org/2000/svg">
<path d="M63.6091 1.84668L67.3066 3.69338L69.1533 7.39087V12.931L67.3066 16.6285L63.6091 18.4752H7.39087L3.69338 16.6285L1.84668 12.931V7.39087L3.69338 3.69338L7.39087 1.84668H63.6091Z" fill="#00EDFF"/>
<path d="M71 9.55615H69.1533V11.4029H71V9.55615Z" fill="#00C3FF"/>
<path d="M1.8467 9.55615H0V11.4029H1.8467V9.55615Z" fill="#00C3FF"/>
<path d="M67.3066 13.2495H65.4599H63.6091V15.0962H9.23757H7.39087V13.2495H5.54416H3.69338V11.4028H1.84668V13.2495V15.0962H3.69338V16.9429H5.54416H7.39087V18.7937H9.23757H63.6091V16.9429H65.4599H67.3066V15.0962H69.1533V13.2495V11.4028H67.3066V13.2495Z" fill="#00C3FF"/>
<path opacity="0.32" d="M65.4598 3.70559H63.609V3.68516V1.85889H61.7623H7.39083V3.70559H5.54413H3.69336V5.55229V7.39899H5.54413V5.55229H7.39083H9.23754V3.70559H61.7623V5.53186H63.609V5.55229H65.4598V7.39899H67.3065V5.55229V3.70559H65.4598Z" fill="white"/>
<path d="M63.6091 0H9.23755V1.8467H63.6091V0Z" fill="#000600"/>
<path d="M65.4599 1.84668H63.6091V3.69338H65.4599H67.3066V1.84668H65.4599Z" fill="#000600"/>
<path d="M63.6091 16.6284V18.4751H65.4599H67.3066V16.6284H65.4599H63.6091Z" fill="#000600"/>
<path d="M69.1533 3.69336H67.3066V5.54413V7.39083H69.1533V5.54413V3.69336Z" fill="#000600"/>
<path d="M67.3066 14.7819V16.6286H69.1533V14.7819V12.9312H67.3066V14.7819Z" fill="#000600"/>
<path d="M69.1533 7.39062V9.23733V11.084V12.9307H71V11.084V9.23733V7.39062H69.1533Z" fill="#000600"/>
<path d="M7.39087 18.4751V20.3218H9.23757H63.6092V18.4751H9.23757H7.39087Z" fill="#000600"/>
<path d="M9.23757 0H7.39087V1.8467H9.23757V0Z" fill="#000600"/>
<path d="M5.54413 16.6284H3.69336V18.4751H5.54413H7.39083V16.6284H5.54413Z" fill="#000600"/>
<path d="M7.39083 3.69338V1.84668H5.54413H3.69336V3.69338H5.54413H7.39083Z" fill="#000600"/>
<path d="M3.69338 12.9312H1.84668V14.7819V16.6286H3.69338V14.7819V12.9312Z" fill="#000600"/>
<path d="M3.69338 5.54413V3.69336H1.84668V5.54413V7.39083H3.69338V5.54413Z" fill="#000600"/>
<path d="M1.8467 9.23733V7.39062H0V9.23733V11.084V12.9307H1.8467V11.084V9.23733Z" fill="#000600"/>
<path d="M11.0842 3.95898H9.23746V5.79341H7.39893V7.64012H9.24971V5.80567H11.0842V3.95898Z" fill="white"/>
<path d="M7.39089 5.79346H5.54419V7.64016H7.39089V5.79346Z" fill="white"/>
<path d="M18.375 15H17.5H16.625H15.75H14.875H14V14.125V13.25H14.875H15.75V12.375V11.5V10.625V9.75V8.875V8H14.875H14V7.125V6.25H14.875H15.75V5.375V4.5H16.625H17.5V5.375V6.25V7.125V8V8.875V9.75V10.625V11.5V12.375V13.25H18.375H19.25V14.125V15H18.375ZM24.5 15H23.625H22.75H21.875H21H20.125V14.125V13.25H21H21.875V12.375V11.5V10.625V9.75V8.875V8H21H20.125V7.125V6.25H21H21.875V5.375V4.5H22.75H23.625V5.375V6.25V7.125V8V8.875V9.75V10.625V11.5V12.375V13.25H24.5H25.375V14.125V15H24.5ZM30.625 15H29.75H28.875H28V14.125V13.25H28.875H29.75H30.625H31.5V14.125V15H30.625ZM31.5 13.25V12.375V11.5V10.625V9.75V8.875H30.625V9.75V10.625H29.75H28.875V11.5V12.375H28V13.25H27.125H26.25V12.375V11.5V10.625V9.75V8.875V8V7.125V6.25H27.125H28V7.125V8V8.875V9.75V10.625H28.875V9.75V8.875H29.75H30.625V8V7.125H31.5V6.25H32.375H33.25V7.125V8V8.875V9.75V10.625V11.5V12.375V13.25H32.375H31.5ZM31.5 6.25H30.625H29.75H28.875H28V5.375V4.5H28.875H29.75H30.625H31.5V5.375V6.25ZM46.375 15H45.5V14.125V13.25V12.375V11.5H46.375H47.25V12.375V13.25V14.125V15H46.375ZM39.375 15H38.5V14.125V13.25V12.375V11.5H39.375H40.25V12.375V13.25V14.125V15H39.375ZM45.5 11.5H44.625H43.75V10.625V9.75H44.625H45.5V10.625V11.5ZM40.25 11.5V10.625V9.75H41.125H42V10.625V11.5H41.125H40.25ZM43.75 9.75H42.875H42V8.875V8H42.875H43.75V8.875V9.75ZM43.75 8V7.125V6.25H44.625H45.5V7.125V8H44.625H43.75ZM42 8H41.125H40.25V7.125V6.25H41.125H42V7.125V8ZM45.5 6.25V5.375V4.5H46.375H47.25V5.375V6.25H46.375H45.5ZM40.25 6.25H39.375H38.5V5.375V4.5H39.375H40.25V5.375V6.25ZM49 15H48.125V14.125V13.25V12.375V11.5V10.625V9.75V8.875V8V7.125V6.25V5.375V4.5H49H49.875H50.75H51.625H52.5H53.375H54.25H55.125V5.375V6.25H56H56.875V7.125V8H56H55.125V7.125V6.25H54.25H53.375H52.5H51.625H50.75H49.875V7.125V8H50.75H51.625H52.5H53.375H54.25H55.125V8.875V9.75H54.25H53.375H52.5H51.625H50.75H49.875V10.625V11.5V12.375V13.25V14.125V15H49Z" fill="black"/>
<path fill-rule="evenodd" clip-rule="evenodd" d="M61.1675 5.05127V5.40127H61.5199V5.75185V6.10126V6.45184H61.1675V6.80184H60.8157V7.15184V7.50242H60.464H60.1116V7.15184V6.80184H60.464V6.45184H60.8157V6.10126V5.75185H60.464H60.1116H59.7592V6.10126H59.4075V5.75185V5.40127H59.7592V5.05127H60.1116H60.464H60.8157H61.1675ZM60.1117 8.20262V7.85203H60.4641H60.8158V8.20262H60.4641H60.1117Z" fill="#7D423F"/>
<path fill-rule="evenodd" clip-rule="evenodd" d="M62.2754 4.35059V4.70058V5.05117V5.40117V5.75175V6.10116V6.45174H62.2233V6.80174H62.2754V7.15174V7.50232V7.85232V8.20291V8.5529H62.6278V8.20291V7.85232V7.50232V7.15174V6.80174H62.5757V6.45174H62.6278V6.10116V5.75175V5.40117V5.05117V4.70058V4.35059H62.2754ZM61.8716 8.20282H61.5198H61.2195V8.55282H61.5719H61.8716H62.2233V8.20282V7.85223H61.8716V8.20282ZM60.1118 8.20268H60.4641H60.8159H61.1677V8.55267H60.8159H60.4641H60.1118H59.7594H59.4076H59.0559H58.7041V8.20268H59.0559H59.4076H59.7594H60.1118Z" fill="#C47A41"/>
<path d="M61.8719 4.70068H59.056V5.05127H58.7036V8.20301H60.1113V7.85301H60.8154V8.20301H61.8713V7.85301H62.2237V4.70068H61.8713H61.8719ZM60.4643 7.50243H60.1119V6.80184H60.4643V6.45125H60.816V5.75126H59.7601V6.10126H59.4078V5.40127H59.7601V5.05127H61.1684V5.40127H61.5208V6.45185H61.1684V6.80243H60.816V7.50302H60.4643V7.50243Z" fill="#F2BF33"/>
<path d="M61.8718 4.35059H61.52H61.1677H60.8159H60.4641H60.1117H59.7594H59.4076H59.0558H58.7041H58.3523V4.70058V5.05117V5.40117V5.75175V6.10116V6.45174V6.80174V7.15174V7.50232V7.85232V8.20291V8.5529H58.7041V8.20291V7.85232V7.50232V7.15174V6.80174V6.45174V6.10116V5.75175V5.40117V5.05117H59.0558V4.70058H59.4076H59.7594H60.1117H60.4641H60.8159H61.1677H61.52H61.8718H62.2236V4.35059H61.8718Z" fill="#F2D072"/>
<path fill-rule="evenodd" clip-rule="evenodd" d="M59.0561 4.35059H59.4078H59.7596H60.112H60.4643H60.8161H61.1679H61.5203H61.872H62.2238H62.5761V4.70044V5.05103V5.40102V5.75161V6.10101V6.4516V6.8016V7.15159V7.50218V7.85218V8.20276V8.55276H62.9278V8.20276V7.85218V7.50218V7.15159V6.8016V6.4516V6.10101V5.75161V5.40102V5.05103V4.70044V4.35044H62.5762V4H62.2238H61.872H61.5203H61.1679H60.8161H60.4643H60.112H59.7596H59.4078H59.0561H58.7043H58.3525V4.35059H58.7043H59.0561ZM61.5203 8.55298H61.872H62.2238H62.5762V8.90356H62.2238H61.872H61.5203H61.1679H60.8161H60.4643H60.112H59.7596H59.4078H59.0561H58.7043H58.3525V8.55298H58.7043H59.0561H59.4078H59.7596H60.112H60.4643H60.8161H61.1679H61.5203ZM58.3524 7.50218V7.85218V8.20276V8.55276H58V8.20276V7.85218V7.50218V7.15159V6.8016V6.4516V6.10101V5.75161V5.40102V5.05103V4.70044V4.35044H58.3524V4.70044V5.05103V5.40102V5.75161V6.10101V6.4516V6.8016V7.15159V7.50218Z" fill="#202126"/>
</svg>
