<svg width="71" height="21" viewBox="0 0 71 21" fill="none" xmlns="http://www.w3.org/2000/svg">
<mask id="mask0_271_1268" style="mask-type:luminance" maskUnits="userSpaceOnUse" x="0" y="0" width="71" height="21">
<path d="M71 0H0V20.3219H71V0Z" fill="white"/>
</mask>
<g mask="url(#mask0_271_1268)">
<path d="M63.6091 1.84668L67.3066 3.69338L69.1533 7.39087V12.931L67.3066 16.6285L63.6091 18.4752H7.39087L3.69338 16.6285L1.84668 12.931V7.39087L3.69338 3.69338L7.39087 1.84668H63.6091Z" fill="#00EDFF"/>
<path d="M71 9.55615H69.1533V11.4029H71V9.55615Z" fill="#00C3FF"/>
<path d="M1.8467 9.55615H0V11.4029H1.8467V9.55615Z" fill="#00C3FF"/>
<path d="M67.3066 13.2495H65.4599H63.6091V15.0962H9.23757H7.39087V13.2495H5.54416H3.69338V11.4028H1.84668V13.2495V15.0962H3.69338V16.9429H5.54416H7.39087V18.7937H9.23757H63.6091V16.9429H65.4599H67.3066V15.0962H69.1533V13.2495V11.4028H67.3066V13.2495Z" fill="#00C3FF"/>
<path opacity="0.32" d="M65.4598 3.70559H63.609V3.68516V1.85889H61.7623H7.39083V3.70559H5.54413H3.69336V5.55229V7.39899H5.54413V5.55229H7.39083H9.23754V3.70559H61.7623V5.53186H63.609V5.55229H65.4598V7.39899H67.3065V5.55229V3.70559H65.4598Z" fill="white"/>
<path d="M63.6091 0H9.23755V1.8467H63.6091V0Z" fill="#000600"/>
<path d="M65.4599 1.84668H63.6091V3.69338H65.4599H67.3066V1.84668H65.4599Z" fill="#000600"/>
<path d="M63.6091 16.6284V18.4751H65.4599H67.3066V16.6284H65.4599H63.6091Z" fill="#000600"/>
<path d="M69.1533 3.69336H67.3066V5.54413V7.39083H69.1533V5.54413V3.69336Z" fill="#000600"/>
<path d="M67.3066 14.7819V16.6286H69.1533V14.7819V12.9312H67.3066V14.7819Z" fill="#000600"/>
<path d="M69.1533 7.39062V9.23733V11.084V12.9307H71V11.084V9.23733V7.39062H69.1533Z" fill="#000600"/>
<path d="M7.39087 18.4751V20.3218H9.23757H63.6092V18.4751H9.23757H7.39087Z" fill="#000600"/>
<path d="M9.23757 0H7.39087V1.8467H9.23757V0Z" fill="#000600"/>
<path d="M5.54413 16.6284H3.69336V18.4751H5.54413H7.39083V16.6284H5.54413Z" fill="#000600"/>
<path d="M7.39083 3.69338V1.84668H5.54413H3.69336V3.69338H5.54413H7.39083Z" fill="#000600"/>
<path d="M3.69338 12.9312H1.84668V14.7819V16.6286H3.69338V14.7819V12.9312Z" fill="#000600"/>
<path d="M3.69338 5.54413V3.69336H1.84668V5.54413V7.39083H3.69338V5.54413Z" fill="#000600"/>
<path d="M1.8467 9.23733V7.39062H0V9.23733V11.084V12.9307H1.8467V11.084V9.23733Z" fill="#000600"/>
<path d="M11.0842 3.95898H9.23746V5.79341H7.39893V7.64012H9.24971V5.80567H11.0842V3.95898Z" fill="white"/>
<path d="M7.39089 5.79346H5.54419V7.64016H7.39089V5.79346Z" fill="white"/>
<path d="M21.375 15H20.5H19.625H18.75V14.125V13.25H19.625H20.5H21.375H22.25V14.125V15H21.375ZM22.25 13.25V12.375V11.5V10.625H23.125H24V11.5V12.375V13.25H23.125H22.25ZM18.75 13.25H17.875H17V12.375V11.5H17.875H18.75V12.375V13.25ZM22.25 10.625H21.375H20.5V9.75V8.875H21.375H22.25V9.75V10.625ZM22.25 8.875V8V7.125V6.25H23.125H24V7.125V8V8.875H23.125H22.25ZM17.875 8H17V7.125V6.25H17.875H18.75V7.125V8H17.875ZM22.25 6.25H21.375H20.5H19.625H18.75V5.375V4.5H19.625H20.5H21.375H22.25V5.375V6.25ZM27.5 15H26.625V14.125V13.25V12.375V11.5V10.625V9.75H27.5H28.375V10.625V11.5V12.375V13.25V14.125V15H27.5ZM28.375 9.75V8.875V8H29.25H30.125V8.875V9.75H29.25H28.375ZM30.125 8V7.125V6.25H29.25H28.375H27.5H26.625V7.125V8H25.75H24.875V7.125V6.25V5.375V4.5H25.75H26.625H27.5H28.375H29.25H30.125H31H31.875V5.375V6.25V7.125V8H31H30.125ZM45 15H44.125V14.125V13.25V12.375V11.5H45H45.875V12.375V13.25V14.125V15H45ZM38 15H37.125V14.125V13.25V12.375V11.5H38H38.875V12.375V13.25V14.125V15H38ZM44.125 11.5H43.25H42.375V10.625V9.75H43.25H44.125V10.625V11.5ZM38.875 11.5V10.625V9.75H39.75H40.625V10.625V11.5H39.75H38.875ZM42.375 9.75H41.5H40.625V8.875V8H41.5H42.375V8.875V9.75ZM42.375 8V7.125V6.25H43.25H44.125V7.125V8H43.25H42.375ZM40.625 8H39.75H38.875V7.125V6.25H39.75H40.625V7.125V8ZM44.125 6.25V5.375V4.5H45H45.875V5.375V6.25H45H44.125ZM38.875 6.25H38H37.125V5.375V4.5H38H38.875V5.375V6.25ZM47.625 15H46.75V14.125V13.25V12.375V11.5V10.625V9.75V8.875V8V7.125V6.25V5.375V4.5H47.625H48.5H49.375H50.25H51.125H52H52.875H53.75V5.375V6.25H54.625H55.5V7.125V8H54.625H53.75V7.125V6.25H52.875H52H51.125H50.25H49.375H48.5V7.125V8H49.375H50.25H51.125H52H52.875H53.75V8.875V9.75H52.875H52H51.125H50.25H49.375H48.5V10.625V11.5V12.375V13.25V14.125V15H47.625Z" fill="black"/>
<path fill-rule="evenodd" clip-rule="evenodd" d="M60.1675 5.05127V5.40127H60.5199V5.75185V6.10126V6.45184H60.1675V6.80184H59.8157V7.15184V7.50242H59.464H59.1116V7.15184V6.80184H59.464V6.45184H59.8157V6.10126V5.75185H59.464H59.1116H58.7592V6.10126H58.4075V5.75185V5.40127H58.7592V5.05127H59.1116H59.464H59.8157H60.1675ZM59.1117 8.20262V7.85203H59.4641H59.8158V8.20262H59.4641H59.1117Z" fill="#7D423F"/>
<path fill-rule="evenodd" clip-rule="evenodd" d="M61.2754 4.35059V4.70058V5.05117V5.40117V5.75175V6.10116V6.45174H61.2233V6.80174H61.2754V7.15174V7.50232V7.85232V8.20291V8.5529H61.6278V8.20291V7.85232V7.50232V7.15174V6.80174H61.5757V6.45174H61.6278V6.10116V5.75175V5.40117V5.05117V4.70058V4.35059H61.2754ZM60.8716 8.20282H60.5198H60.2195V8.55282H60.5719H60.8716H61.2233V8.20282V7.85223H60.8716V8.20282ZM59.1118 8.20268H59.4641H59.8159H60.1677V8.55267H59.8159H59.4641H59.1118H58.7594H58.4076H58.0559H57.7041V8.20268H58.0559H58.4076H58.7594H59.1118Z" fill="#C47A41"/>
<path d="M60.8719 4.70068H58.056V5.05127H57.7036V8.20301H59.1113V7.85301H59.8154V8.20301H60.8713V7.85301H61.2237V4.70068H60.8713H60.8719ZM59.4643 7.50243H59.1119V6.80184H59.4643V6.45125H59.816V5.75126H58.7601V6.10126H58.4078V5.40127H58.7601V5.05127H60.1684V5.40127H60.5208V6.45185H60.1684V6.80243H59.816V7.50302H59.4643V7.50243Z" fill="#F2BF33"/>
<path d="M60.8718 4.35059H60.52H60.1677H59.8159H59.4641H59.1117H58.7594H58.4076H58.0558H57.7041H57.3523V4.70058V5.05117V5.40117V5.75175V6.10116V6.45174V6.80174V7.15174V7.50232V7.85232V8.20291V8.5529H57.7041V8.20291V7.85232V7.50232V7.15174V6.80174V6.45174V6.10116V5.75175V5.40117V5.05117H58.0558V4.70058H58.4076H58.7594H59.1117H59.4641H59.8159H60.1677H60.52H60.8718H61.2236V4.35059H60.8718Z" fill="#F2D072"/>
<path fill-rule="evenodd" clip-rule="evenodd" d="M58.0561 4.35059H58.4078H58.7596H59.112H59.4643H59.8161H60.1679H60.5203H60.872H61.2238H61.5761V4.70044V5.05103V5.40102V5.75161V6.10101V6.4516V6.8016V7.15159V7.50218V7.85218V8.20276V8.55276H61.9278V8.20276V7.85218V7.50218V7.15159V6.8016V6.4516V6.10101V5.75161V5.40102V5.05103V4.70044V4.35044H61.5762V4H61.2238H60.872H60.5203H60.1679H59.8161H59.4643H59.112H58.7596H58.4078H58.0561H57.7043H57.3525V4.35059H57.7043H58.0561ZM60.5203 8.55298H60.872H61.2238H61.5762V8.90356H61.2238H60.872H60.5203H60.1679H59.8161H59.4643H59.112H58.7596H58.4078H58.0561H57.7043H57.3525V8.55298H57.7043H58.0561H58.4078H58.7596H59.112H59.4643H59.8161H60.1679H60.5203ZM57.3524 7.50218V7.85218V8.20276V8.55276H57V8.20276V7.85218V7.50218V7.15159V6.8016V6.4516V6.10101V5.75161V5.40102V5.05103V4.70044V4.35044H57.3524V4.70044V5.05103V5.40102V5.75161V6.10101V6.4516V6.8016V7.15159V7.50218Z" fill="#202126"/>
</g>
</svg>
