<svg width="22" height="22" viewBox="0 0 22 22" fill="none" xmlns="http://www.w3.org/2000/svg">
<g clip-path="url(#clip0_272_1556)">
<path d="M6.76931 1.69238L3.38469 3.38469L1.69238 6.76931V15.2308L3.38469 18.6155L6.76931 20.3078H15.2308L18.6155 18.6155L20.3078 15.2308V6.76931L18.6155 3.38469L15.2308 1.69238H6.76931Z" fill="#00FF8C"/>
<path d="M15.2307 18.6152V20.3075H16.923H18.6153V18.6152H16.923H15.2307Z" fill="#000600"/>
<path d="M10.1539 20.3076H8.46159H6.76929V21.9999H8.46159H10.1539H11.8462V20.3076H10.1539Z" fill="#000600"/>
<path d="M11.8462 20.3076V21.9999H13.5385H15.2308V20.3076H13.5385H11.8462Z" fill="#000600"/>
<path d="M5.07683 18.6152H3.38452V20.3075H5.07683H6.76914V18.6152H5.07683Z" fill="#000600"/>
<path d="M3.38469 15.231H1.69238V16.9233V18.6156H3.38469V16.9233V15.231Z" fill="#000600"/>
<path d="M1.69231 11.8461V10.1538H0V11.8461V13.5384V15.2307H1.69231V13.5384V11.8461Z" fill="#000600"/>
<path d="M20.3076 6.76904V8.46135V10.1537H21.9999V8.46135V6.76904H20.3076Z" fill="#000600"/>
<path d="M6.76914 3.38469V1.69238H5.07683H3.38452V3.38469H5.07683H6.76914Z" fill="#000600"/>
<path d="M10.1539 1.69231V0H8.46159H6.76929V1.69231H8.46159H10.1539Z" fill="#000600"/>
<path d="M13.5384 0H11.8461H10.1538V1.69231H11.8461H13.5384H15.2307V0H13.5384Z" fill="#000600"/>
<path d="M16.923 1.69238H15.2307V3.38469H16.923H18.6153V1.69238H16.923Z" fill="#000600"/>
<path d="M3.38469 5.07707V3.38477H1.69238V5.07707V6.76938H3.38469V5.07707Z" fill="#000600"/>
<path d="M20.3078 3.38477H18.6155V5.07707V6.76938H20.3078V5.07707V3.38477Z" fill="#000600"/>
<path d="M20.3076 11.8461V13.5384V15.2307H21.9999V13.5384V11.8461V10.1538H20.3076V11.8461Z" fill="#000600"/>
<path d="M1.69231 8.46135V6.76904H0V8.46135V10.1537H1.69231V8.46135Z" fill="#000600"/>
<path d="M18.6155 16.9233V18.6156H20.3078V16.9233V15.231H18.6155V16.9233Z" fill="#000600"/>
<path fill-rule="evenodd" clip-rule="evenodd" d="M17.3611 6H15.566V7.82128H17.3611V6ZM11.9757 9.71487H13.7708V7.90834H15.566V9.72962H13.7708V11.5362H11.9757V9.71487ZM10.1806 13.3574H11.9757V11.5362H10.1806V13.3574ZM8.38542 15.1787H10.1806V13.3574L8.38542 13.3574V15.1787ZM6.59028 15.1787V17H8.38542V15.1787H6.59028ZM4.79514 13.3574L6.59028 13.3574V15.1787H4.79514V13.3574ZM4.79514 13.3574H3V11.5362H4.79514V13.3574Z" fill="white"/>
</g>
<defs>
<clipPath id="clip0_272_1556">
<rect width="22" height="22" fill="white"/>
</clipPath>
</defs>
</svg>
