<svg width="104" height="34" viewBox="0 0 104 34" fill="none" xmlns="http://www.w3.org/2000/svg">
<g clip-path="url(#clip0_270_355)">
<mask id="mask0_270_355" style="mask-type:luminance" maskUnits="userSpaceOnUse" x="0" y="0" width="104" height="34">
<path d="M103.762 0H0V33.954H103.762V0Z" fill="white"/>
</mask>
<g mask="url(#mask0_270_355)">
<path d="M10.6346 1.54395L7.58464 3.08811L4.53117 4.62875L3.00794 7.71708L1.4812 10.8019V23.1517L3.00794 26.2365L4.53117 29.3248L7.58464 30.8654L10.6346 32.4096H93.0362L96.0897 30.8654L99.1397 29.3248L100.666 26.2365L102.193 23.1517V10.8019L100.666 7.71708L99.1397 4.62875L96.0897 3.08811L93.0362 1.54395H10.6346Z" fill="#737EF8"/>
<path d="M18.4117 3.08838H16.885V4.63254H18.4117V3.08838Z" fill="white"/>
<path d="M16.8817 3.08838H15.355V4.63254H16.8817V3.08838Z" fill="white"/>
<path d="M12.2979 3.08838V4.629H13.8246H15.3513V3.08838H13.8246H12.2979Z" fill="white"/>
<path d="M9.24805 4.62891V6.17307H10.7713H12.298V4.62891H10.7713H9.24805Z" fill="white"/>
<path d="M6.19458 6.17334V7.71751V9.26167H7.72131V7.71751H9.24805V6.17334H7.72131H6.19458Z" fill="white"/>
<path d="M6.19446 9.26172H4.66772V10.8059H6.19446V9.26172Z" fill="white"/>
<path d="M100.68 18.5195V20.0637V21.6079H99.1537V23.152V24.6927H97.6305H96.1038V26.2368H94.577H93.0503V27.781V29.3252H94.577H96.1038V27.781H97.6305H99.1537V26.2368H100.68V24.6927V23.152H102.207V21.6079V20.0637V18.5195H100.68Z" fill="#5361F6"/>
<path d="M93.0501 27.781H91.5269H90.0002H88.4734H86.9467H85.42H83.8967H82.37H80.8433H79.3165H77.7933H76.2666H74.7398H73.2131H71.6899H70.1631H68.6364H67.1096H65.5829H64.0597H62.533H61.0062H59.4795H57.9563H56.4295H54.9028H53.376H51.8528H50.3261H48.7994H47.2726H45.7459H44.2227H42.6959H41.1692H39.6424H38.1192H36.5925H35.0658H33.539H32.0158H30.489H28.9623H27.4356H25.9088H24.3856H22.8589H21.3321H19.8054H18.2822H16.7554H15.2287H13.702H12.1787H10.652V26.2368H9.12528H7.59855V24.6927H6.07181H4.54858V23.152V21.6079H3.02185V20.0637V18.5195H1.49512V20.0637V21.6079V23.152H3.02185V24.6927V26.2368H4.54858V27.781H6.07181H7.59855V29.3252H9.12528H10.652V30.8658H12.1787H13.702H15.2287H16.7554H18.2822H19.8054H21.3321H22.8589H24.3856H25.9088H27.4356H28.9623H30.489H32.0158H33.539H35.0658H36.5925H38.1192H39.6424H41.1692H42.6959H44.2227H45.7459H47.2726H48.7994H50.3261H51.8528H53.376H54.9028H56.4295H57.9563H59.4795H61.0062H62.533H64.0597H65.5829H67.1096H68.6364H70.1631H71.6899H73.2131H74.7398H76.2666H77.7933H79.3165H80.8433H82.37H83.8967H85.42H86.9467H88.4734H90.0002H91.5269H93.0501V29.3252V27.781Z" fill="#5361F6"/>
<path d="M3.00794 21.6074H1.4812V23.1516V24.6922H3.00794V23.1516V21.6074Z" fill="#737EF8"/>
<path d="M100.667 21.6074V23.1516V24.6922H102.193V23.1516V21.6074H100.667Z" fill="#737EF8"/>
<path d="M4.53129 24.6924H3.00806V26.2365V27.7807H4.53129V26.2365V24.6924Z" fill="#737EF8"/>
<path d="M6.05798 27.7808H4.53125V29.3249H6.05798H7.58472V27.7808H6.05798Z" fill="#737EF8"/>
<path d="M9.11145 29.3247H7.58472V30.8653H9.11145H10.6347V29.3247H9.11145Z" fill="#737EF8"/>
<path d="M99.1396 26.2365V27.7807H100.666V26.2365V24.6924H99.1396V26.2365Z" fill="#737EF8"/>
<path d="M96.0896 27.7808V29.3249H97.6128H99.1396V27.7808H97.6128H96.0896Z" fill="#737EF8"/>
<path d="M93.0361 29.3247V30.8653H94.5629H96.0896V29.3247H94.5629H93.0361Z" fill="#737EF8"/>
<path d="M89.9827 30.8657H88.4595H86.9327H85.406H83.8793H82.356H80.8293H79.3026H77.7758H76.2526H74.7259H73.1991H71.6724H70.1457H68.6224H67.0957H65.569H64.0422H62.519H60.9923H59.4655H57.9388H56.4156H54.8888H53.3621H51.8354H50.3086H48.7854H47.2587H45.7319H44.2052H42.682H41.1552H39.6285H38.1018H36.5785H35.0518H33.525H31.9983H30.4716H28.9483H27.4216H25.8949H24.3681H22.8449H21.3182H19.7914H18.2647H16.7415H15.2147H13.688H12.1613H10.6345V32.4099H12.1613H13.688H15.2147H16.7415H18.2647H19.7914H21.3182H22.8449H24.3681H25.8949H27.4216H28.9483H30.4716H31.9983H33.525H35.0518H36.5785H38.1018H39.6285H41.1552H42.682H44.2052H45.7319H47.2587H48.7854H50.3086H51.8354H53.3621H54.8888H56.4156H57.9388H59.4655H60.9923H62.519H64.0422H65.569H67.0957H68.6224H70.1457H71.6724H73.1991H74.7259H76.2526H77.7758H79.3026H80.8293H82.356H83.8793H85.406H86.9327H88.4595H89.9827H91.5094H93.0362V30.8657H91.5094H89.9827Z" fill="#737EF8"/>
<path d="M102.239 10.8022V12.3464V13.8906V15.4347V16.9754H100.712V18.5195V20.0637H102.239V21.6079V23.152H103.762V21.6079V20.0637V18.5195V16.9754V15.4347V13.8906V12.3464V10.8022H102.239Z" fill="#000600"/>
<path d="M100.712 24.6925V26.2366H102.239V24.6925V23.1519H100.712V24.6925Z" fill="#000600"/>
<path d="M99.1853 27.781V29.3252H100.712V27.781V26.2368H99.1853V27.781Z" fill="#000600"/>
<path d="M96.1353 29.3247V30.8653H97.6585H99.1852V29.3247H97.6585H96.1353Z" fill="#000600"/>
<path d="M93.0818 30.8657V32.4099H94.6085H96.1353V30.8657H94.6085H93.0818Z" fill="#000600"/>
<path d="M90.0282 32.4097H88.505H86.9783H85.4515H83.9248H82.4016H80.8748H79.3481H77.8214H76.2981H74.7714H73.2447H71.7179H70.1912H68.668H67.1412H65.6145H64.0878H62.5645H61.0378H59.5111H57.9843H56.4576H54.9344H53.4076H51.8809H50.3542H48.8309H47.3042H45.7775H44.2507H42.7275H41.2008H39.674H38.1473H36.6206H35.0973H33.5706H32.0439H30.5172H28.9939H27.4672H25.9405H24.4137H22.9115H22.8905H21.3848V33.9538H22.8905H22.9115H24.4137H25.9405H27.4672H28.9939H30.5172H32.0439H33.5706H35.0973H36.6206H38.1473H39.674H41.2008H42.7275H44.2507H45.7775H47.3042H48.8309H50.3542H51.8809H53.4076H54.9344H56.4576H57.9843H59.5111H61.0378H62.5645H64.0878H65.6145H67.1412H68.668H70.1912H71.7179H73.2447H74.7714H76.2981H77.8214H79.3481H80.8748H82.4016H83.9248H85.4515H86.9783H88.505H90.0282H91.555H93.0817V32.4097H91.555H90.0282Z" fill="#000600"/>
<path d="M100.712 10.8021H102.239V9.26145V7.71729H100.712V9.26145V10.8021Z" fill="#000600"/>
<path d="M3.05359 9.26145V7.71729H1.52686V9.26145V10.8021H3.05359V9.26145Z" fill="#000600"/>
<path d="M99.1853 7.71724H100.712V6.17307V4.62891H99.1853V6.17307V7.71724Z" fill="#000600"/>
<path d="M97.6585 4.629H99.1852V3.08838H97.6585H96.1353V4.629H97.6585Z" fill="#000600"/>
<path d="M94.6085 3.08811H96.1353V1.54395H94.6085H93.0818V3.08811H94.6085Z" fill="#000600"/>
<path d="M4.57671 6.17307V4.62891H3.05347V6.17307V7.71724H4.57671V6.17307Z" fill="#000600"/>
<path d="M7.63013 4.629V3.08838H6.10339H4.57666V4.629H6.10339H7.63013Z" fill="#000600"/>
<path d="M10.6801 3.08811V1.54395H9.15686H7.63013V3.08811H9.15686H10.6801Z" fill="#000600"/>
<path d="M13.7336 1.54417H15.2604H16.7836H18.3103H19.8371H21.3638H22.8905H24.4138H25.9405H27.4672H28.994H30.5172H32.0439H33.5707H35.0974H36.6206H38.1474H39.6741H41.2008H42.7276H44.2508H45.7775H47.3043H48.831H50.3543H51.881H53.4077H54.9345H56.4577H57.9844H59.5112H61.0379H62.5646H64.0879H65.6146H67.1413H68.6681H70.1913H71.718H73.2448H74.7715H76.2982H77.8215H79.3482H80.8749H82.4017H83.9249H85.4516H86.9784H88.5051H90.0283H91.5551H93.0818V0H91.5551H90.0283H88.5051H86.9784H85.4516H83.9249H82.4017H80.8749H79.3482H77.8215H76.2982H74.7715H73.2448H71.718H70.1913H68.6681H67.1413H65.6146H64.0879H62.5646H61.0379H59.5112H57.9844H56.4577H54.9345H53.4077H51.881H50.3543H48.831H47.3043H45.7775H44.2508H42.7276H41.2008H39.6741H38.1474H36.6206H35.0974H33.5707H32.0439H30.5172H28.994H27.4672H25.9405H24.4138H22.8905H21.3638H19.8371H18.3103H16.7836H15.2604H13.7336H12.2069H10.6802V1.54417H12.2069H13.7336Z" fill="#000600"/>
<path d="M4.57671 20.0635H3.05347V21.6076V23.1518H4.57671V21.6076V20.0635Z" fill="#000600"/>
<path d="M6.10339 23.1519H4.57666V24.6925H6.10339H7.63013V23.1519H6.10339Z" fill="#000600"/>
<path d="M9.15686 24.6924H7.63013V26.2365H9.15686H10.6801V24.6924H9.15686Z" fill="#000600"/>
<path d="M100.712 20.0635H99.1853V21.6076V23.1518H100.712V21.6076V20.0635Z" fill="#000600"/>
<path d="M96.1353 23.1519V24.6925H97.6585H99.1852V23.1519H97.6585H96.1353Z" fill="#000600"/>
<path d="M93.0818 24.6924V26.2365H94.6085H96.1353V24.6924H94.6085H93.0818Z" fill="#000600"/>
<path d="M90.0283 26.2368H88.5051H86.9784H85.4516H83.9249H82.4017H80.8749H79.3482H77.8215H76.2982H74.7715H73.2448H71.718H70.1913H68.6681H67.1413H65.6146H64.0879H62.5646H61.0379H59.5112H57.9844H56.4577H54.9345H53.4077H51.881H50.3543H48.831H47.3043H45.7775H44.2508H42.7276H41.2008H39.6741H38.1474H36.6206H35.0974H33.5707H32.0439H30.5172H28.994H27.4672H25.9405H24.4138H22.8905H21.3638H19.8371H18.3103H16.7836H15.2604H13.7336H12.2069H10.6802V27.781H12.2069H13.7336H15.2604H16.7836H18.3103H19.8371H21.3638H22.8905H24.4138H25.9405H27.4672H28.994H30.5172H32.0439H33.5707H35.0974H36.6206H38.1474H39.6741H41.2008H42.7276H44.2508H45.7775H47.3043H48.831H50.3543H51.881H53.4077H54.9345H56.4577H57.9844H59.5112H61.0379H62.5646H64.0879H65.6146H67.1413H68.6681H70.1913H71.718H73.2448H74.7715H76.2982H77.8215H79.3482H80.8749H82.4017H83.9249H85.4516H86.9784H88.5051H90.0283H91.5551H93.0818V26.2368H91.5551H90.0283Z" fill="#000600"/>
<path d="M1.52686 24.6925V26.2366H3.05359V24.6925V23.1519H1.52686V24.6925Z" fill="#000600"/>
<path d="M6.10339 30.8653H7.63013V29.3247H6.10339H4.57666V30.8653H6.10339Z" fill="#000600"/>
<path d="M9.15686 32.4099H10.6801V30.8657H9.15686H7.63013V32.4099H9.15686Z" fill="#000600"/>
<path d="M12.2069 33.9538H13.7336H15.2604V32.4097H13.7336H12.2069H10.6802V33.9538H12.2069Z" fill="#000600"/>
<path d="M16.7907 32.4097H15.2639V33.9538H16.7907V32.4097Z" fill="#000600"/>
<path d="M18.3209 32.4097H16.7942V33.9538H18.3209V32.4097Z" fill="#000600"/>
<path d="M19.8512 32.4097H18.3245V33.9538H19.8512V32.4097Z" fill="#000600"/>
<path d="M21.3812 32.4097H19.8545V33.9538H21.3812V32.4097Z" fill="#000600"/>
<path d="M1.52673 20.0637H3.05347V18.5195V16.9754H1.52673V15.4347V13.8906V12.3464V10.8022H0V12.3464V13.8906V15.4347V16.9754V18.5195V20.0637V21.6079V23.152H1.52673V21.6079V20.0637Z" fill="#000600"/>
<path d="M3.05347 29.3252H4.57671V27.781V26.2368H3.05347V27.781V29.3252Z" fill="#000600"/>
<g opacity="0.52">
<path d="M100.74 7.71729H99.2166V9.26145V10.8021H100.74V9.26145V7.71729Z" fill="white"/>
<path d="M100.74 10.8018V12.3459V13.8901V15.4343V16.9749H102.267V15.4343V13.8901V12.3459V10.8018H100.74Z" fill="white"/>
<path d="M99.2166 4.62891H97.6898H96.1631V6.17307H97.6898V7.71724H99.2166V6.17307V4.62891Z" fill="white"/>
<path d="M94.6365 3.08789H93.1133V4.6285H94.6365H96.1632V3.08789H94.6365Z" fill="white"/>
<path d="M91.5865 1.54395H90.0598H88.533H87.0098H85.4831H83.9563H82.4296H80.9029H79.3796H77.8529H76.3262H74.7994H73.2762H71.7495H70.2227H68.696H67.1728H65.646H64.1193H62.5926H61.0658H59.5426H58.0159H56.4891H54.9624H53.4392H51.9124H50.3857H48.859H47.3357H45.809H44.2823H42.7555H41.2288H39.7056H38.1788H36.6521H35.1254H33.6021H32.0754H30.5486H29.0219H27.4987H25.9719H24.4452H22.9185H21.3917H19.8685H18.3418H16.815H15.2883H13.7651H12.2383H10.7116V3.08811H9.18485H7.66162V4.62875H7.66862V6.17292H9.19536V4.62875H10.7116H12.2383V3.08811H13.7651H15.2883H16.815H18.3418H19.8685H21.3917H22.9185H24.4452H25.9719H27.4987H29.0219H30.5486H32.0754H33.6021H35.1254H36.6521H38.1788H39.7056H41.2288H42.7555H44.2823H45.809H47.3357H48.859H50.3857H51.9124H53.4392H54.9624H56.4891H58.0159H59.5426H61.0658H62.5926H64.1193H65.646H67.1728H68.696H70.2227H71.7495H73.2762H74.7994H76.3262H77.8529H79.3796H80.9029H82.4296H83.9563H85.4831H87.0098H88.533H90.0598H91.5865H93.1132V1.54395H91.5865Z" fill="white"/>
<path d="M4.60814 4.62891V6.17307V7.71724H3.08142V9.26141V10.802H1.55469V12.3462V13.8904V15.4345V16.9752H3.08142V15.4345V13.8904V12.3462H4.60814V10.802V9.26141H6.13488V7.71724V6.17307H7.66161V4.62891H6.13488H4.60814Z" fill="white"/>
</g>
<path d="M4.66786 18.5195H3.14111V20.0637H4.66786V18.5195Z" fill="#737EF8"/>
<path d="M6.19446 21.6076V20.0635H4.66772V21.6076V23.1518H6.19446H7.72119V21.6076H6.19446Z" fill="#737EF8"/>
<path d="M9.24793 23.1519H7.72119V24.6925H9.24793H10.7712V23.1519H9.24793Z" fill="#737EF8"/>
<path d="M100.803 18.5195H99.2761V20.0637H100.803V18.5195Z" fill="#737EF8"/>
<path d="M97.7494 21.6076H96.2227V23.1518H97.7494H99.2761V21.6076V20.0635H97.7494V21.6076Z" fill="#737EF8"/>
<path d="M93.1729 23.1519V24.6925H94.6996H96.2228V23.1519H94.6996H93.1729Z" fill="#737EF8"/>
<path d="M90.1194 24.6924H88.5962H87.0694H85.5427H84.016H82.4927H80.966H79.4393H77.9125H76.3858H74.8625H73.3358H71.8091H70.2824H68.7591H67.2324H65.7057H64.1789H62.6557H61.129H59.6022H58.0755H56.5488H55.0255H53.4988H51.972H50.4453H48.9221H47.3953H45.8686H44.3419H42.8186H41.2919H39.7652H38.2384H36.7117H35.1885H33.6617H32.135H30.6083H29.085H27.5583H26.0316H24.5048H22.9781H21.4549H19.9281H18.4014H16.8747H15.3514H13.8247H12.298H10.7712V26.2365H12.298H13.8247H15.3514H16.8747H18.4014H19.9281H21.4549H22.9781H24.5048H26.0316H27.5583H29.085H30.6083H32.135H33.6617H35.1885H36.7117H38.2384H39.7652H41.2919H42.8186H44.3419H45.8686H47.3953H48.9221H50.4453H51.972H53.4988H55.0255H56.5488H58.0755H59.6022H61.129H62.6557H64.1789H65.7057H67.2324H68.7591H70.2824H71.8091H73.3358H74.8625H76.3858H77.9125H79.4393H80.966H82.4927H84.016H85.5427H87.0694H88.5962H90.1194H91.6461H93.1729V24.6924H91.6461H90.1194Z" fill="#737EF8"/>
<g opacity="0.34">
<path d="M100.803 16.9751H99.2764V18.5193H100.803V16.9751Z" fill="white"/>
<path d="M99.2763 18.519H97.7495V20.0632H99.2763V18.519Z" fill="white"/>
<path d="M97.7496 20.0635H96.2229V21.6076H97.7496V20.0635Z" fill="white"/>
<path d="M93.1729 21.6074V23.1516H94.6996H96.2228V21.6074H94.6996H93.1729Z" fill="white"/>
<path d="M90.1194 23.1519H88.5962H87.0695H85.5427V24.6925H87.0695H88.5962H90.1194H91.6462H93.1729V23.1519H91.6462H90.1194Z" fill="white"/>
</g>
</g>
<path d="M35.375 19H34.5H33.625H32.75H31.875V18.125V17.25H32.75H33.625H34.5H35.375H36.25V18.125V19H35.375ZM36.25 17.25V16.375V15.5V14.625V13.75V12.875V12V11.125V10.25V9.375V8.5H37.125H38V9.375V10.25V11.125V12V12.875V13.75V14.625V15.5V16.375V17.25H37.125H36.25ZM31.875 17.25H31H30.125V16.375V15.5V14.625V13.75V12.875V12V11.125V10.25V9.375V8.5H31H31.875V9.375V10.25V11.125V12V12.875V13.75V14.625V15.5V16.375V17.25ZM39.75 21.625H38.875V20.75V19.875V19V18.125V17.25V16.375V15.5V14.625V13.75V12.875V12V11.125H39.75H40.625V12V12.875H41.5H42.375V13.75V14.625H41.5H40.625V15.5V16.375H41.5H42.375H43.25H44.125H45V17.25V18.125H44.125H43.25H42.375H41.5H40.625V19V19.875V20.75V21.625H39.75ZM45 16.375V15.5V14.625V13.75V12.875H45.875H46.75V13.75V14.625V15.5V16.375H45.875H45ZM45 12.875H44.125H43.25H42.375V12V11.125H43.25H44.125H45V12V12.875ZM48.5 19H47.625V18.125V17.25V16.375V15.5V14.625V13.75V12.875V12V11.125V10.25V9.375V8.5H48.5H49.375V9.375V10.25V11.125V12V12.875V13.75V14.625V15.5V16.375V17.25V18.125V19H48.5ZM54.625 19H53.75H52.875H52V18.125V17.25H52.875H53.75H54.625H55.5V18.125V19H54.625ZM55.5 17.25V16.375V15.5V14.625V13.75V12.875H56.375H57.25V13.75V14.625V15.5V16.375V17.25H56.375H55.5ZM52 17.25H51.125H50.25V16.375V15.5V14.625V13.75V12.875H51.125H52V13.75V14.625V15.5V16.375V17.25ZM55.5 12.875H54.625H53.75H52.875H52V12V11.125H52.875H53.75H54.625H55.5V12V12.875ZM65.125 19H64.25H63.375H62.5H61.625H60.75H59.875V18.125V17.25H59H58.125V16.375V15.5H59H59.875V14.625V13.75H60.75H61.625H62.5H63.375H64.25V12.875H65.125H66V13.75V14.625V15.5V16.375V17.25V18.125V19H65.125ZM63.375 17.25H64.25V16.375V15.5H63.375H62.5H61.625H60.75H59.875V16.375V17.25H60.75H61.625H62.5H63.375ZM64.25 12.875H63.375H62.5H61.625H60.75H59.875H59H58.125V12V11.125H59H59.875H60.75H61.625H62.5H63.375H64.25V12V12.875ZM73 19H72.125H71.25H70.375H69.5H68.625H67.75H66.875V18.125V17.25V16.375V15.5V14.625V13.75V12.875H67.75H68.625V12V11.125H69.5H70.375H71.25H72.125V10.25V9.375V8.5H73H73.875V9.375V10.25V11.125V12V12.875V13.75V14.625V15.5V16.375V17.25V18.125V19H73ZM71.25 17.25H72.125V16.375V15.5V14.625V13.75V12.875H71.25H70.375H69.5H68.625V13.75V14.625V15.5V16.375V17.25H69.5H70.375H71.25Z" fill="white"/>
</g>
<defs>
<clipPath id="clip0_270_355">
<rect width="104" height="34" fill="white"/>
</clipPath>
</defs>
</svg>
