<svg width="22" height="22" viewBox="0 0 22 22" fill="none" xmlns="http://www.w3.org/2000/svg">
<g clip-path="url(#clip0_295_429)">
<path d="M6.76931 1.69238L3.38469 3.38469L1.69238 6.76931V15.2308L3.38469 18.6155L6.76931 20.3078H15.2308L18.6155 18.6155L20.3078 15.2308V6.76931L18.6155 3.38469L15.2308 1.69238H6.76931Z" fill="#00D0EC"/>
<path d="M15.2307 18.6152V20.3075H16.923H18.6153V18.6152H16.923H15.2307Z" fill="#000600"/>
<path d="M10.1539 20.3076H8.46159H6.76929V21.9999H8.46159H10.1539H11.8462V20.3076H10.1539Z" fill="#000600"/>
<path d="M11.8462 20.3076V21.9999H13.5385H15.2308V20.3076H13.5385H11.8462Z" fill="#000600"/>
<path d="M5.07683 18.6152H3.38452V20.3075H5.07683H6.76914V18.6152H5.07683Z" fill="#000600"/>
<path d="M3.38469 15.231H1.69238V16.9233V18.6156H3.38469V16.9233V15.231Z" fill="#000600"/>
<path d="M1.69231 11.8461V10.1538H0V11.8461V13.5384V15.2307H1.69231V13.5384V11.8461Z" fill="#000600"/>
<path d="M20.3076 6.76904V8.46135V10.1537H21.9999V8.46135V6.76904H20.3076Z" fill="#000600"/>
<path d="M6.76914 3.38469V1.69238H5.07683H3.38452V3.38469H5.07683H6.76914Z" fill="#000600"/>
<path d="M10.1539 1.69231V0H8.46159H6.76929V1.69231H8.46159H10.1539Z" fill="#000600"/>
<path d="M13.5384 0H11.8461H10.1538V1.69231H11.8461H13.5384H15.2307V0H13.5384Z" fill="#000600"/>
<path d="M16.923 1.69238H15.2307V3.38469H16.923H18.6153V1.69238H16.923Z" fill="#000600"/>
<path d="M3.38469 5.07707V3.38477H1.69238V5.07707V6.76938H3.38469V5.07707Z" fill="#000600"/>
<path d="M20.3078 3.38477H18.6155V5.07707V6.76938H20.3078V5.07707V3.38477Z" fill="#000600"/>
<path d="M20.3076 11.8461V13.5384V15.2307H21.9999V13.5384V11.8461V10.1538H20.3076V11.8461Z" fill="#000600"/>
<path d="M1.69231 8.46135V6.76904H0V8.46135V10.1537H1.69231V8.46135Z" fill="#000600"/>
<path d="M18.6155 16.9233V18.6156H20.3078V16.9233V15.231H18.6155V16.9233Z" fill="#000600"/>
<path d="M15.9927 11.4044C15.8595 13.856 13.7772 15.8646 11.2357 15.9931C8.64937 16.1236 6.46054 14.371 6.01403 12.0293C5.92665 11.5698 6.28044 11.1433 6.76531 11.1433C7.14042 11.1433 7.45158 11.4074 7.51979 11.7641C7.83202 13.3852 9.34204 14.6002 11.1313 14.5211C12.9162 14.4419 14.3847 13.0254 14.4667 11.3036C14.5573 9.40706 13.0249 7.83842 11.0961 7.76955V8.1797C11.0961 8.79338 10.4077 9.1768 9.85674 8.87048L7.72013 7.68012C7.16919 7.37379 7.16919 6.60592 7.72013 6.29959L9.85568 5.10821C10.4066 4.80188 11.095 5.18531 11.095 5.79899V6.29034C13.9051 6.35922 16.1419 8.64741 15.9927 11.4054V11.4044Z" fill="white"/>
</g>
<defs>
<clipPath id="clip0_295_429">
<rect width="22" height="22" fill="white"/>
</clipPath>
</defs>
</svg>
