<svg width="22" height="22" viewBox="0 0 22 22" fill="none" xmlns="http://www.w3.org/2000/svg">
<g clip-path="url(#clip0_272_1534)">
<path d="M6.76931 1.69238L3.38469 3.38469L1.69238 6.76931V15.2308L3.38469 18.6155L6.76931 20.3078H15.2308L18.6155 18.6155L20.3078 15.2308V6.76931L18.6155 3.38469L15.2308 1.69238H6.76931Z" fill="#FF0000"/>
<path d="M15.2307 18.6152V20.3075H16.923H18.6153V18.6152H16.923H15.2307Z" fill="#000600"/>
<path d="M10.1539 20.3076H8.46159H6.76929V21.9999H8.46159H10.1539H11.8462V20.3076H10.1539Z" fill="#000600"/>
<path d="M11.8462 20.3076V21.9999H13.5385H15.2308V20.3076H13.5385H11.8462Z" fill="#000600"/>
<path d="M5.07683 18.6152H3.38452V20.3075H5.07683H6.76914V18.6152H5.07683Z" fill="#000600"/>
<path d="M3.38469 15.231H1.69238V16.9233V18.6156H3.38469V16.9233V15.231Z" fill="#000600"/>
<path d="M1.69231 11.8461V10.1538H0V11.8461V13.5384V15.2307H1.69231V13.5384V11.8461Z" fill="#000600"/>
<path d="M20.3076 6.76904V8.46135V10.1537H21.9999V8.46135V6.76904H20.3076Z" fill="#000600"/>
<path d="M6.76914 3.38469V1.69238H5.07683H3.38452V3.38469H5.07683H6.76914Z" fill="#000600"/>
<path d="M10.1539 1.69231V0H8.46159H6.76929V1.69231H8.46159H10.1539Z" fill="#000600"/>
<path d="M13.5384 0H11.8461H10.1538V1.69231H11.8461H13.5384H15.2307V0H13.5384Z" fill="#000600"/>
<path d="M16.923 1.69238H15.2307V3.38469H16.923H18.6153V1.69238H16.923Z" fill="#000600"/>
<path d="M3.38469 5.07707V3.38477H1.69238V5.07707V6.76938H3.38469V5.07707Z" fill="#000600"/>
<path d="M20.3078 3.38477H18.6155V5.07707V6.76938H20.3078V5.07707V3.38477Z" fill="#000600"/>
<path d="M20.3076 11.8461V13.5384V15.2307H21.9999V13.5384V11.8461V10.1538H20.3076V11.8461Z" fill="#000600"/>
<path d="M1.69231 8.46135V6.76904H0V8.46135V10.1537H1.69231V8.46135Z" fill="#000600"/>
<path d="M18.6155 16.9233V18.6156H20.3078V16.9233V15.231H18.6155V16.9233Z" fill="#000600"/>
<path d="M14.4728 15.3149H13.6304V14.4725V13.6302H14.4728H15.3151V14.4725V15.3149H14.4728ZM7.73417 15.3149H6.89185V14.4725V13.6302H7.73417H8.5765V14.4725V15.3149H7.73417ZM13.6304 13.6302H12.7881H11.9458V12.7879V11.9456H12.7881H13.6304V12.7879V13.6302ZM8.5765 13.6302V12.7879V11.9456H9.41882H10.2611V12.7879V13.6302H9.41882H8.5765ZM11.9458 11.9456H11.1035H10.2611V11.1032V10.2609H11.1035H11.9458V11.1032V11.9456ZM11.9458 10.2609V9.41858V8.57625H12.7881H13.6304V9.41858V10.2609H12.7881H11.9458ZM10.2611 10.2609H9.41882H8.5765V9.41858V8.57625H9.41882H10.2611V9.41858V10.2609ZM13.6304 8.57625V7.73393V6.8916H14.4728H15.3151V7.73393V8.57625H14.4728H13.6304ZM8.5765 8.57625H7.73417H6.89185V7.73393V6.8916H7.73417H8.5765V7.73393V8.57625Z" fill="white"/>
</g>
<defs>
<clipPath id="clip0_272_1534">
<rect width="22" height="22" fill="white"/>
</clipPath>
</defs>
</svg>
