<svg width="121" height="34" viewBox="0 0 121 34" fill="none" xmlns="http://www.w3.org/2000/svg">
<g clip-path="url(#clip0_271_888)">
<mask id="mask0_271_888" style="mask-type:luminance" maskUnits="userSpaceOnUse" x="0" y="0" width="121" height="34">
<path d="M120.308 0H0V33.9622H120.308V0Z" fill="white"/>
</mask>
<g mask="url(#mask0_271_888)">
<path d="M12.3853 1.54297L8.84583 3.08606L5.30634 4.63204L3.53951 7.71819L1.76978 10.8073V23.1548L3.53951 26.2438L5.30634 29.33L8.84583 30.8759L12.3853 32.419H107.922L111.462 30.8759L115.001 29.33L116.768 26.2438L118.538 23.1548V10.8073L116.768 7.71819L115.001 4.63204L111.462 3.08606L107.922 1.54297H12.3853Z" fill="#737EF8"/>
<path d="M15.2885 3.08643H14.0215V4.6295H15.2885V3.08643Z" fill="white"/>
<path d="M14.0155 3.08643H12.7485V4.6295H14.0155V3.08643Z" fill="white"/>
<path d="M10.2146 3.08643V4.63241H11.4787H12.7457V3.08643H11.4787H10.2146Z" fill="white"/>
<path d="M7.68042 4.63232V6.1754H8.94743H10.2144V4.63232H8.94743H7.68042Z" fill="white"/>
<path d="M5.14648 6.17529V7.71837V9.26145H6.41349V7.71837H7.6805V6.17529H6.41349H5.14648Z" fill="white"/>
<path d="M5.14933 9.26123H3.88232V10.8043H5.14933V9.26123Z" fill="white"/>
<path d="M116.768 18.5259V20.069V21.612H115.001V23.1551V24.7011H113.232H111.462V26.2442H109.692H107.922V27.7872V29.3303H109.692H111.462V27.7872H113.232H115.001V26.2442H116.768V24.7011V23.1551H118.538V21.612V20.069V18.5259H116.768Z" fill="#737EF8"/>
<path d="M107.922 27.7872H106.153H104.386H102.616H100.846H99.0767H97.3069H95.5401H93.7703H92.0006H90.2308H88.4611H86.6914H84.9245H83.1548H81.385H79.6153H77.8455H76.0758H74.309H72.5392H70.7695H68.9997H67.23H65.4632H63.6934H61.9237H60.1539H58.3842H56.6144H54.8476H53.0779H51.3081H49.5384H47.7686H45.9989H44.232H42.4623H40.6926H38.9228H37.1531H35.3862H33.6165H31.8467H30.077H28.3072H26.5375H24.7706H23.0009H21.2311H19.4614H17.6916H15.9219H14.1551H12.3853V26.2442H10.6156H8.84583V24.7011H7.07609H5.30634V23.1551V21.612H3.53951V20.069V18.5259H1.76978V20.069V21.612V23.1551H3.53951V24.7011V26.2442H5.30634V27.7872H7.07609H8.84583V29.3303H10.6156H12.3853V30.8763H14.1551H15.9219H17.6916H19.4614H21.2311H23.0009H24.7706H26.5375H28.3072H30.077H31.8467H33.6165H35.3862H37.1531H38.9228H40.6926H42.4623H44.232H45.9989H47.7686H49.5384H51.3081H53.0779H54.8476H56.6144H58.3842H60.1539H61.9237H63.6934H65.4632H67.23H68.9997H70.7695H72.5392H74.309H76.0758H77.8455H79.6153H81.385H83.1548H84.9245H86.6914H88.4611H90.2308H92.0006H93.7703H95.5401H97.3069H99.0767H100.846H102.616H104.386H106.153H107.922V29.3303V27.7872Z" fill="#737EF8"/>
<path d="M3.53951 21.6118H1.76978V23.1549V24.7009H3.53951V23.1549V21.6118Z" fill="#5361F6"/>
<path d="M116.768 21.6118V23.1549V24.7009H118.538V23.1549V21.6118H116.768Z" fill="#5361F6"/>
<path d="M5.30614 24.7007H3.53931V26.2438V27.7868H5.30614V26.2438V24.7007Z" fill="#5361F6"/>
<path d="M7.0759 27.7871H5.30615V29.3302H7.0759H8.84564V27.7871H7.0759Z" fill="#5361F6"/>
<path d="M10.6154 29.3301H8.8457V30.8761H10.6154H12.3852V29.3301H10.6154Z" fill="#5361F6"/>
<path d="M115.001 26.2438V27.7868H116.768V26.2438V24.7007H115.001V26.2438Z" fill="#5361F6"/>
<path d="M111.462 27.7871V29.3302H113.232H115.001V27.7871H113.232H111.462Z" fill="#5361F6"/>
<path d="M107.922 29.3301V30.8761H109.692H111.462V29.3301H109.692H107.922Z" fill="#5361F6"/>
<path d="M104.386 30.876H102.616H100.846H99.0766H97.3069H95.5401H93.7703H92.0006H90.2308H88.4611H86.6914H84.9245H83.1548H81.385H79.6153H77.8455H76.0758H74.309H72.5392H70.7695H68.9997H67.23H65.4631H63.6934H61.9237H60.1539H58.3842H56.6144H54.8476H53.0778H51.3081H49.5384H47.7686H45.9989H44.232H42.4623H40.6925H38.9228H37.1531H35.3862H33.6165H31.8467H30.077H28.3071H26.5374H24.7706H23.0008H21.2311H19.4613H17.6916H15.9218H14.155H12.3853V32.4191H14.155H15.9218H17.6916H19.4613H21.2311H23.0008H24.7706H26.5374H28.3071H30.077H31.8467H33.6165H35.3862H37.1531H38.9228H40.6925H42.4623H44.232H45.9989H47.7686H49.5384H51.3081H53.0778H54.8476H56.6144H58.3842H60.1539H61.9237H63.6934H65.4631H67.23H68.9997H70.7695H72.5392H74.309H76.0758H77.8455H79.6153H81.385H83.1548H84.9245H86.6914H88.4611H90.2308H92.0006H93.7703H95.5401H97.3069H99.0766H100.846H102.616H104.386H106.153H107.922V30.876H106.153H104.386Z" fill="#5361F6"/>
<path d="M118.538 10.8071V12.3502V13.8933V15.4364V16.9794H116.768V18.5254V20.0685H118.538V21.6116V23.1547H120.308V21.6116V20.0685V18.5254V16.9794V15.4364V13.8933V12.3502V10.8071H118.538Z" fill="#000600"/>
<path d="M116.768 24.7008V26.2438H118.538V24.7008V23.1548H116.768V24.7008Z" fill="#000600"/>
<path d="M115.001 27.7872V29.3303H116.768V27.7872V26.2441H115.001V27.7872Z" fill="#000600"/>
<path d="M111.462 29.3301V30.8761H113.232H115.001V29.3301H113.232H111.462Z" fill="#000600"/>
<path d="M107.922 30.876V32.4191H109.692H111.462V30.876H109.692H107.922Z" fill="#000600"/>
<path d="M104.386 32.4189H102.616H100.846H99.0767H97.3069H95.5401H93.7703H92.0006H90.2309H88.4611H86.6914H84.9245H83.1548H81.385H79.6153H77.8456H76.0758H74.309H72.5392H70.7695H68.9997H67.23H65.4632H63.6934H61.9237H60.1539H58.3842H56.6145H54.8476H53.0779H51.3081H49.5384H47.7686H45.9989H44.2321H42.4623H40.6926H38.9228H37.1531H35.3862H33.6165H31.8468H30.077H28.3073H26.5666H26.5376H24.7969V33.962H26.5376H26.5666H28.3073H30.077H31.8468H33.6165H35.3862H37.1531H38.9228H40.6926H42.4623H44.2321H45.9989H47.7686H49.5384H51.3081H53.0779H54.8476H56.6145H58.3842H60.1539H61.9237H63.6934H65.4632H67.23H68.9997H70.7695H72.5392H74.309H76.0758H77.8456H79.6153H81.385H83.1548H84.9245H86.6914H88.4611H90.2309H92.0006H93.7703H95.5401H97.3069H99.0767H100.846H102.616H104.386H106.153H107.922V32.4189H106.153H104.386Z" fill="#000600"/>
<path d="M116.768 10.8073H118.538V9.26134V7.71826H116.768V9.26134V10.8073Z" fill="#000600"/>
<path d="M3.53951 9.26134V7.71826H1.76978V9.26134V10.8073H3.53951V9.26134Z" fill="#000600"/>
<path d="M115.001 7.71848H116.768V6.1754V4.63232H115.001V6.1754V7.71848Z" fill="#000600"/>
<path d="M113.232 4.63241H115.001V3.08643H113.232H111.462V4.63241H113.232Z" fill="#000600"/>
<path d="M109.692 3.08606H111.462V1.54297H109.692H107.922V3.08606H109.692Z" fill="#000600"/>
<path d="M5.30639 6.1754V4.63232H3.53955V6.1754V7.71848H5.30639V6.1754Z" fill="#000600"/>
<path d="M8.84564 4.63241V3.08643H7.0759H5.30615V4.63241H7.0759H8.84564Z" fill="#000600"/>
<path d="M12.3852 3.08606V1.54297H10.6154H8.8457V3.08606H10.6154H12.3852Z" fill="#000600"/>
<path d="M15.9218 1.54308H17.6916H19.4613H21.2311H23.0008H24.7706H26.5374H28.3071H30.0769H31.8466H33.6163H35.3861H37.1529H38.9227H40.6924H42.4621H44.2319H45.9987H47.7685H49.5382H51.308H53.0777H54.8475H56.6143H58.384H60.1538H61.9235H63.6933H65.463H67.2298H68.9996H70.7693H72.5391H74.3088H76.0757H77.8454H79.6151H81.3849H83.1546H84.9244H86.6912H88.461H90.2307H92.0004H93.7702H95.5399H97.3068H99.0765H100.846H102.616H104.386H106.153H107.922V0H106.153H104.386H102.616H100.846H99.0765H97.3068H95.5399H93.7702H92.0004H90.2307H88.461H86.6912H84.9244H83.1546H81.3849H79.6151H77.8454H76.0757H74.3088H72.5391H70.7693H68.9996H67.2298H65.463H63.6933H61.9235H60.1538H58.384H56.6143H54.8475H53.0777H51.308H49.5382H47.7685H45.9987H44.2319H42.4621H40.6924H38.9227H37.1529H35.3861H33.6163H31.8466H30.0769H28.3071H26.5374H24.7706H23.0008H21.2311H19.4613H17.6916H15.9218H14.155H12.3853V1.54308H14.155H15.9218Z" fill="#000600"/>
<path d="M5.30639 20.0688H3.53955V21.6119V23.155H5.30639V21.6119V20.0688Z" fill="#000600"/>
<path d="M7.0759 23.1548H5.30615V24.7008H7.0759H8.84564V23.1548H7.0759Z" fill="#000600"/>
<path d="M10.6154 24.7007H8.8457V26.2438H10.6154H12.3852V24.7007H10.6154Z" fill="#000600"/>
<path d="M116.768 20.0688H115.001V21.6119V23.155H116.768V21.6119V20.0688Z" fill="#000600"/>
<path d="M111.462 23.1548V24.7008H113.232H115.001V23.1548H113.232H111.462Z" fill="#000600"/>
<path d="M107.922 24.7007V26.2438H109.692H111.462V24.7007H109.692H107.922Z" fill="#000600"/>
<path d="M104.386 26.2441H102.616H100.846H99.0765H97.3068H95.5399H93.7702H92.0004H90.2307H88.461H86.6912H84.9244H83.1546H81.3849H79.6151H77.8454H76.0757H74.3088H72.5391H70.7693H68.9996H67.2298H65.463H63.6933H61.9235H60.1538H58.384H56.6143H54.8475H53.0777H51.308H49.5382H47.7685H45.9987H44.2319H42.4621H40.6924H38.9227H37.1529H35.3861H33.6163H31.8466H30.0769H28.3071H26.5374H24.7706H23.0008H21.2311H19.4613H17.6916H15.9218H14.155H12.3853V27.7872H14.155H15.9218H17.6916H19.4613H21.2311H23.0008H24.7706H26.5374H28.3071H30.0769H31.8466H33.6163H35.3861H37.1529H38.9227H40.6924H42.4621H44.2319H45.9987H47.7685H49.5382H51.308H53.0777H54.8475H56.6143H58.384H60.1538H61.9235H63.6933H65.463H67.2298H68.9996H70.7693H72.5391H74.3088H76.0757H77.8454H79.6151H81.3849H83.1546H84.9244H86.6912H88.461H90.2307H92.0004H93.7702H95.5399H97.3068H99.0765H100.846H102.616H104.386H106.153H107.922V26.2441H106.153H104.386Z" fill="#000600"/>
<path d="M1.76978 24.7008V26.2438H3.53951V24.7008V23.1548H1.76978V24.7008Z" fill="#000600"/>
<path d="M7.0759 30.8761H8.84564V29.3301H7.0759H5.30615V30.8761H7.0759Z" fill="#000600"/>
<path d="M10.6154 32.4191H12.3852V30.876H10.6154H8.8457V32.4191H10.6154Z" fill="#000600"/>
<path d="M14.155 33.962H15.9218H17.6916V32.4189H15.9218H14.155H12.3853V33.962H14.155Z" fill="#000600"/>
<path d="M19.4673 32.4189H17.6975V33.962H19.4673V32.4189Z" fill="#000600"/>
<path d="M21.2426 32.4189H19.4729V33.962H21.2426V32.4189Z" fill="#000600"/>
<path d="M23.0153 32.4189H21.2456V33.962H23.0153V32.4189Z" fill="#000600"/>
<path d="M24.791 32.4189H23.0212V33.962H24.791V32.4189Z" fill="#000600"/>
<path d="M1.76974 20.0685H3.53949V18.5254V16.9794H1.76974V15.4364V13.8933V12.3502V10.8071H0V12.3502V13.8933V15.4364V16.9794V18.5254V20.0685V21.6116V23.1547H1.76974V21.6116V20.0685Z" fill="#000600"/>
<path d="M3.53955 29.3303H5.30639V27.7872V26.2441H3.53955V27.7872V29.3303Z" fill="#000600"/>
<g opacity="0.52">
<path d="M116.812 7.71826H115.042V9.26134V10.8073H116.812V9.26134V7.71826Z" fill="white"/>
<path d="M116.812 10.8071V12.3502V13.8933V15.4364V16.9794H118.582V15.4364V13.8933V12.3502V10.8071H116.812Z" fill="white"/>
<path d="M115.042 4.63184H113.272H111.502V6.17491H113.272V7.71799H115.042V6.17491V4.63184Z" fill="white"/>
<path d="M109.736 3.08594H107.966V4.63192H109.736H111.502V3.08594H109.736Z" fill="white"/>
<path d="M106.196 1.54297H104.426H102.657H100.89H99.12H97.3502H95.5805H93.8108H92.041H90.2742H88.5044H86.7347H84.9649H83.1952H81.4255H79.6586H77.8889H76.1191H74.3494H72.5796H70.8128H69.0431H67.2733H65.5036H63.7338H61.9641H60.1972H58.4275H56.6578H54.888H53.1183H51.3485H49.5817H47.812H46.0422H44.2725H42.5027H40.733H38.9661H37.1964H35.4267H33.6569H31.8872H30.1203H28.3505H26.5808H24.811H23.0413H21.2716H19.5047H17.735H15.9652H14.1955H12.4257V3.08606H10.656H8.88916V4.63204H8.89788V6.17512H10.6676V4.63204H12.4257H14.1955V3.08606H15.9652H17.735H19.5047H21.2716H23.0413H24.811H26.5808H28.3505H30.1203H31.8872H33.6569H35.4267H37.1964H38.9661H40.733H42.5027H44.2725H46.0422H47.812H49.5817H51.3485H53.1183H54.888H56.6578H58.4275H60.1972H61.9641H63.7338H65.5036H67.2733H69.0431H70.8128H72.5796H74.3494H76.1191H77.8889H79.6586H81.4255H83.1952H84.9649H86.7347H88.5044H90.2742H92.041H93.8108H95.5805H97.3502H99.12H100.89H102.657H104.426H106.196H107.966V1.54297H106.196Z" fill="white"/>
<path d="M5.3498 4.63184V6.17491V7.71799H3.58005V9.26107V10.807H1.8103V12.3501V13.8932V15.4363V16.9794H3.58005V15.4363V13.8932V12.3501H5.3498V10.807V9.26107H7.11954V7.71799V6.17491H8.88928V4.63184H7.11954H5.3498Z" fill="white"/>
</g>
<path d="M5.30929 18.5259H3.53955V20.069H5.30929V18.5259Z" fill="#737EF8"/>
<path d="M7.07614 21.6119V20.0688H5.3064V21.6119V23.155H7.07614H8.84588V21.6119H7.07614Z" fill="#737EF8"/>
<path d="M10.6154 23.1548H8.8457V24.7008H10.6154H12.3852V23.1548H10.6154Z" fill="#737EF8"/>
<path d="M116.771 18.5259H115.001V20.069H116.771V18.5259Z" fill="#737EF8"/>
<path d="M113.232 21.6119H111.462V23.155H113.232H115.001V21.6119V20.0688H113.232V21.6119Z" fill="#737EF8"/>
<path d="M107.922 23.1548V24.7008H109.692H111.462V23.1548H109.692H107.922Z" fill="#737EF8"/>
<path d="M104.386 24.7007H102.616H100.846H99.0765H97.3068H95.5399H93.7702H92.0004H90.2307H88.461H86.6912H84.9244H83.1546H81.3849H79.6151H77.8454H76.0757H74.3088H72.5391H70.7693H68.9996H67.2298H65.463H63.6933H61.9235H60.1538H58.384H56.6143H54.8475H53.0777H51.308H49.5382H47.7685H45.9987H44.2319H42.4621H40.6924H38.9227H37.1529H35.3832H33.6163H31.8466H30.0769H28.3071H26.5374H24.7706H23.0008H21.2311H19.4613H17.6916H15.9218H14.155H12.3853V26.2438H14.155H15.9218H17.6916H19.4613H21.2311H23.0008H24.7706H26.5374H28.3071H30.0769H31.8466H33.6163H35.3832H37.1529H38.9227H40.6924H42.4621H44.2319H45.9987H47.7685H49.5382H51.308H53.0777H54.8475H56.6143H58.384H60.1538H61.9235H63.6933H65.463H67.2298H68.9996H70.7693H72.5391H74.3088H76.0757H77.8454H79.6151H81.3849H83.1546H84.9244H86.6912H88.461H90.2307H92.0004H93.7702H95.5399H97.3068H99.0765H100.846H102.616H104.386H106.153H107.922V24.7007H106.153H104.386Z" fill="#737EF8"/>
<g opacity="0.34">
<path d="M116.882 16.9795H115.112V18.5226H116.882V16.9795Z" fill="white"/>
<path d="M115.112 18.5254H113.342V20.0685H115.112V18.5254Z" fill="white"/>
<path d="M113.345 20.0684H111.575V21.6114H113.345V20.0684Z" fill="white"/>
<path d="M108.036 21.6118V23.1549H109.805H111.575V21.6118H109.805H108.036Z" fill="white"/>
<path d="M104.496 23.1548H102.729H100.96H99.1899V24.7008H100.96H102.729H104.496H106.266H108.036V23.1548H106.266H104.496Z" fill="white"/>
</g>
</g>
<path d="M16.279 20H15.529H14.779H14.029H13.279H12.529H11.779H11.029H10.279H9.52896V19.25V18.5V17.75V17V16.25V15.5V14.75V14V13.25V12.5V11.75V11H10.279H11.029H11.779H12.529H13.279H14.029H14.779H15.529H16.279H17.029V11.75V12.5H16.279H15.529H14.779H14.029H13.279H12.529H11.779H11.029V13.25V14H11.779H12.529H13.279V14.75V15.5H12.529H11.779H11.029V16.25V17V17.75V18.5H11.779H12.529H13.279H14.029H14.779H15.529H16.279H17.029V19.25V20H16.279ZM24.529 20H23.779V19.25V18.5H24.529H25.279V19.25V20H24.529ZM18.529 20H17.779V19.25V18.5H18.529H19.279V19.25V20H18.529ZM23.779 18.5H23.029H22.279V17.75V17H23.029H23.779V17.75V18.5ZM19.279 18.5V17.75V17H20.029H20.779V17.75V18.5H20.029H19.279ZM22.279 17H21.529H20.779V16.25V15.5H21.529H22.279V16.25V17ZM22.279 15.5V14.75V14H23.029H23.779V14.75V15.5H23.029H22.279ZM20.779 15.5H20.029H19.279V14.75V14H20.029H20.779V14.75V15.5ZM23.779 14V13.25V12.5H24.529H25.279V13.25V14H24.529H23.779ZM19.279 14H18.529H17.779V13.25V12.5H18.529H19.279V13.25V14ZM26.779 22.25H26.029V21.5V20.75V20V19.25V18.5V17.75V17V16.25V15.5V14.75V14V13.25H26.779H27.529V14V14.75H28.279H29.029V15.5V16.25H28.279H27.529V17V17.75H28.279H29.029H29.779H30.529H31.279V18.5V19.25H30.529H29.779H29.029H28.279H27.529V20V20.75V21.5V22.25H26.779ZM31.279 17.75V17V16.25V15.5V14.75H32.029H32.779V15.5V16.25V17V17.75H32.029H31.279ZM31.279 14.75H30.529H29.779H29.029V14V13.25H29.779H30.529H31.279V14V14.75ZM34.279 20H33.529V19.25V18.5V17.75V17V16.25V15.5V14.75V14V13.25V12.5V11.75V11H34.279H35.029V11.75V12.5V13.25V14V14.75V15.5V16.25V17V17.75V18.5V19.25V20H34.279ZM39.529 20H38.779H38.029H37.279V19.25V18.5H38.029H38.779H39.529H40.279V19.25V20H39.529ZM40.279 18.5V17.75V17V16.25V15.5V14.75H41.029H41.779V15.5V16.25V17V17.75V18.5H41.029H40.279ZM37.279 18.5H36.529H35.779V17.75V17V16.25V15.5V14.75H36.529H37.279V15.5V16.25V17V17.75V18.5ZM40.279 14.75H39.529H38.779H38.029H37.279V14V13.25H38.029H38.779H39.529H40.279V14V14.75ZM47.029 15.5V14.75H46.279H45.529H44.779V15.5H44.029V16.25V17V17.75V18.5V19.25V20H43.279H42.529V19.25V18.5V17.75V17V16.25V15.5V14.75V14V13.25H43.279H44.029V14H44.779V13.25H45.529H46.279H47.029V14H47.779V14.75V15.5H47.029ZM53.779 20H53.029H52.279H51.529H50.779H50.029V19.25V18.5H50.779H51.529H52.279H53.029V17.75H53.779H54.529V18.5V19.25V20H53.779ZM50.029 18.5H49.279H48.529V17.75V17V16.25V15.5V14.75H49.279H50.029V14V13.25H50.779H51.529H52.279H53.029H53.779H54.529V14V14.75V15.5V16.25H53.779H53.029V17H52.279H51.529H50.779H50.029V17.75V18.5ZM52.279 15.5H53.029V14.75H52.279H51.529H50.779H50.029V15.5H50.779H51.529H52.279ZM62.779 20H62.029H61.279H60.529V19.25V18.5H61.279H62.029H62.779H63.529V19.25V20H62.779ZM63.529 18.5V17.75V17V16.25V15.5V14.75H64.279H65.029V15.5V16.25V17V17.75V18.5H64.279H63.529ZM60.529 18.5H59.779H59.029V17.75V17V16.25V15.5V14.75H59.779H60.529V15.5V16.25V17V17.75V18.5ZM63.529 14.75H62.779H62.029H61.279H60.529V14V13.25H61.279H62.029H62.779H63.529V14V14.75ZM71.779 20H71.029V19.25V18.5V17.75V17V16.25V15.5V14.75H71.779H72.529V15.5V16.25V17V17.75V18.5V19.25V20H71.779ZM66.529 20H65.779V19.25V18.5V17.75V17V16.25V15.5V14.75V14V13.25H66.529H67.279H68.029H68.779H69.529H70.279H71.029V14V14.75H70.279H69.529H68.779H68.029H67.279V15.5V16.25V17V17.75V18.5V19.25V20H66.529ZM83.029 20H82.279H81.529H80.779H80.029H79.279H78.529V19.25V18.5H79.279H80.029H80.779H81.529H82.279H83.029H83.779V19.25V20H83.029ZM83.779 18.5V17.75V17V16.25V15.5H83.029H82.279V14.75V14H83.029H83.779H84.529H85.279V14.75V15.5V16.25V17V17.75V18.5H84.529H83.779ZM78.529 18.5H77.779H77.029V17.75V17V16.25V15.5V14.75V14V13.25V12.5H77.779H78.529V13.25V14V14.75V15.5V16.25V17V17.75V18.5ZM84.529 12.5H83.779H83.029H82.279H81.529H80.779H80.029H79.279H78.529V11.75V11H79.279H80.029H80.779H81.529H82.279H83.029H83.779H84.529H85.279V11.75V12.5H84.529ZM92.029 20H91.279H90.529H89.779H89.029H88.279H87.529V19.25V18.5H86.779H86.029V17.75V17H86.779H87.529V16.25V15.5H88.279H89.029H89.779H90.529H91.279V14.75H92.029H92.779V15.5V16.25V17V17.75V18.5V19.25V20H92.029ZM90.529 18.5H91.279V17.75V17H90.529H89.779H89.029H88.279H87.529V17.75V18.5H88.279H89.029H89.779H90.529ZM91.279 14.75H90.529H89.779H89.029H88.279H87.529H86.779H86.029V14V13.25H86.779H87.529H88.279H89.029H89.779H90.529H91.279V14V14.75ZM94.279 20H93.529V19.25V18.5V17.75V17V16.25V15.5V14.75V14V13.25V12.5V11.75V11H94.279H95.029V11.75V12.5V13.25V14V14.75V15.5V16.25V17V17.75V18.5V19.25V20H94.279ZM102.529 20H101.779V19.25V18.5H102.529H103.279V19.25V20H102.529ZM96.529 20H95.779V19.25V18.5H96.529H97.279V19.25V20H96.529ZM101.779 18.5H101.029H100.279V17.75V17H101.029H101.779V17.75V18.5ZM97.279 18.5V17.75V17H98.029H98.779V17.75V18.5H98.029H97.279ZM100.279 17H99.529H98.779V16.25V15.5H99.529H100.279V16.25V17ZM100.279 15.5V14.75V14H101.029H101.779V14.75V15.5H101.029H100.279ZM98.779 15.5H98.029H97.279V14.75V14H98.029H98.779V14.75V15.5ZM101.779 14V13.25V12.5H102.529H103.279V13.25V14H102.529H101.779ZM97.279 14H96.529H95.779V13.25V12.5H96.529H97.279V13.25V14ZM109.279 20H108.529H107.779H107.029H106.279H105.529V19.25V18.5H106.279H107.029H107.779H108.529V17.75H109.279H110.029V18.5V19.25V20H109.279ZM105.529 18.5H104.779H104.029V17.75V17V16.25V15.5V14.75H104.779H105.529V14V13.25H106.279H107.029H107.779H108.529H109.279H110.029V14V14.75V15.5V16.25H109.279H108.529V17H107.779H107.029H106.279H105.529V17.75V18.5ZM107.779 15.5H108.529V14.75H107.779H107.029H106.279H105.529V15.5H106.279H107.029H107.779Z" fill="white"/>
</g>
<defs>
<clipPath id="clip0_271_888">
<rect width="120.308" height="34" fill="white"/>
</clipPath>
</defs>
</svg>
