<svg width="112" height="23" viewBox="0 0 112 23" fill="none" xmlns="http://www.w3.org/2000/svg">
<path opacity="0.21" d="M49.097 22.4023C47.0657 22.4023 45.322 21.9224 43.8641 20.9627C42.4062 20.0031 41.2855 18.7116 40.5013 17.0875C39.717 15.4643 39.3248 13.661 39.3248 11.6786C39.3248 9.69618 39.7266 7.89381 40.5309 6.26968C41.3352 4.64646 42.4759 3.3541 43.9538 2.39442C45.4318 1.43475 47.1659 0.954912 49.1563 0.954912C51.3078 0.954912 53.1727 1.50878 54.7508 2.6156C56.329 3.72243 57.4906 5.15189 58.2339 6.90215H55.7608C55.1578 5.78436 54.3177 4.89871 53.2424 4.24522C52.1662 3.59173 50.8643 3.26453 49.3366 3.26453C47.728 3.26453 46.3407 3.63926 45.1747 4.3878C44.0087 5.13635 43.1181 6.14354 42.5055 7.40849C41.8921 8.67343 41.5853 10.0974 41.5853 11.6786C41.5853 13.2598 41.8868 14.6572 42.4898 15.9331C43.0929 17.2091 43.9721 18.2217 45.1285 18.9703C46.2849 19.7188 47.667 20.0936 49.2756 20.0936C50.4817 20.0936 51.6233 19.8194 52.6986 19.271C53.7739 18.7226 54.6489 17.932 55.3225 16.8983C55.9961 15.8655 56.3333 14.6207 56.3333 13.1656H49.0343V11.0141H58.4143V22.1491H56.3333V18.4484C55.9107 19.1238 55.3678 19.7609 54.7046 20.3623C54.0406 20.9637 53.2415 21.4536 52.3065 21.8329C51.3714 22.2122 50.3004 22.4023 49.0944 22.4023H49.097ZM68.1333 22.4023C66.6649 22.4023 65.3839 22.0385 64.2877 21.311C63.1914 20.5835 62.3427 19.5982 61.7396 18.3534C61.1366 17.1094 60.8351 15.7385 60.8351 14.2414C60.8351 12.7443 61.1366 11.3468 61.7396 10.113C62.3427 8.87908 63.1923 7.89838 64.2877 7.17086C65.3831 6.44333 66.6649 6.07957 68.1333 6.07957C69.3794 6.07957 70.4504 6.33274 71.3454 6.83908C72.2395 7.34543 72.9688 8.03091 73.5318 8.89553V6.33366H75.794V22.15H73.5318V19.6192C72.9688 20.4628 72.2395 21.1373 71.3454 21.6437C70.4504 22.15 69.3794 22.4032 68.1333 22.4032V22.4023ZM68.4348 20.2508C69.5607 20.2508 70.5106 19.9766 71.2852 19.4282C72.0591 18.8798 72.6473 18.1468 73.0499 17.2301C73.4516 16.3124 73.6529 15.3162 73.6529 14.2405C73.6529 13.1647 73.4516 12.142 73.0499 11.2353C72.6473 10.3286 72.0591 9.60113 71.2852 9.05273C70.5106 8.50435 69.5607 8.23015 68.4348 8.23015C67.3089 8.23015 66.3739 8.50435 65.5696 9.05273C64.7652 9.60113 64.1518 10.3286 63.73 11.2353C63.3073 12.142 63.0965 13.1437 63.0965 14.2405C63.0965 15.3372 63.3073 16.3124 63.73 17.2301C64.1526 18.1477 64.7652 18.8807 65.5696 19.4282C66.373 19.9766 67.329 20.2508 68.4348 20.2508ZM79.0627 22.1491V0.00620192H81.3249V22.1491H79.0627ZM82.8804 22.1491L88.7016 13.9882L83.243 6.33274H86.1387L90.0296 12.3111L93.89 6.33274H96.7849L91.3263 13.9882L97.177 22.1491H94.2813L90.0287 15.6964L85.7457 22.1491H82.8804ZM104.671 22.4023C103.143 22.4023 101.806 22.0385 100.66 21.311C99.5142 20.5835 98.6245 19.5982 97.991 18.3534C97.3574 17.1094 97.0411 15.7385 97.0411 14.2414C97.0411 12.7443 97.3426 11.3468 97.9456 10.113C98.5487 8.87908 99.4131 7.89838 100.539 7.17086C101.665 6.44333 102.992 6.07957 104.521 6.07957C106.049 6.07957 107.401 6.44333 108.517 7.17086C109.633 7.89838 110.492 8.87908 111.095 10.113C111.698 11.3468 112 12.7224 112 14.2414V15.1901H99.3626C99.4828 16.1187 99.7695 16.9669 100.223 17.7364C100.675 18.5069 101.283 19.1183 102.047 19.5708C102.812 20.0241 103.696 20.2508 104.702 20.2508C105.768 20.2508 106.663 20.0031 107.386 19.5077C108.11 19.0123 108.672 18.3744 109.075 17.5938H111.548C111.025 19.0068 110.195 20.1612 109.06 21.0578C107.923 21.9544 106.461 22.4023 104.671 22.4023ZM99.3931 12.9755H109.647C109.446 11.6265 108.903 10.4977 108.018 9.59107C107.133 8.6844 105.967 8.23107 104.52 8.23107C103.072 8.23107 101.911 8.6844 101.037 9.59107C100.162 10.4977 99.6135 11.6265 99.3931 12.9755ZM23.7368 2.7198L2.29969 15.701L22.2161 0.284965C22.8836 -0.231431 23.8309 -0.0239592 24.2448 0.729156C24.6282 1.42652 24.4008 2.31765 23.7359 2.72071L23.7368 2.7198ZM26.7998 13.9553C26.5123 13.4325 25.8752 13.2543 25.3768 13.5559L11.1848 22.1491L26.2996 15.5091C26.8783 15.255 27.1127 14.5256 26.799 13.9553H26.7998ZM33.9603 2.43555C33.3599 1.34518 32.0083 1.00792 31.0045 1.69797L0 23L33.0915 5.48914C34.1634 4.92156 34.5607 3.52592 33.9603 2.43555Z" fill="white"/>
</svg>
