<svg width="113" height="35" viewBox="0 0 113 35" fill="none" xmlns="http://www.w3.org/2000/svg">
<g clip-path="url(#clip0_272_1458)">
<mask id="mask0_272_1458" style="mask-type:luminance" maskUnits="userSpaceOnUse" x="0" y="0" width="113" height="35">
<path d="M112.628 0H0V35H112.628V0Z" fill="white"/>
</mask>
<g mask="url(#mask0_272_1458)">
<mask id="mask1_272_1458" style="mask-type:alpha" maskUnits="userSpaceOnUse" x="6" y="6" width="6" height="6">
<path d="M11.2352 11.3434C11.2352 11.4014 11.188 11.4484 11.1299 11.4484H6.53007C6.47191 11.4484 6.4248 11.4014 6.4248 11.3434V6.7549C6.4248 6.6969 6.47191 6.6499 6.53007 6.6499H11.1299C11.188 6.6499 11.2352 6.6969 11.2352 6.7549V11.3434Z" fill="#0072E5"/>
</mask>
<g mask="url(#mask1_272_1458)">
<path d="M6.4248 6.6499H11.2352L6.4248 11.4484V6.6499Z" fill="#CC52A3"/>
<path d="M11.2352 11.4484H6.4248L11.2352 6.6499V11.4484Z" fill="#BF2E8E"/>
</g>
<mask id="mask2_272_1458" style="mask-type:alpha" maskUnits="userSpaceOnUse" x="69" y="9" width="12" height="9">
<path d="M72.2098 9.84821C72.1623 9.8006 72.0849 9.8006 72.0374 9.84821L69.5478 12.3318C69.5003 12.3793 69.5003 12.4565 69.5478 12.5041L74.751 17.6942C74.7737 17.717 74.8051 17.7299 74.8371 17.7299L79.934 17.7303C79.9995 17.7303 80.032 17.6515 79.9856 17.6054L72.2098 9.84821Z" fill="white"/>
</mask>
<g mask="url(#mask2_272_1458)">
<path d="M74.7861 12.4179L72.1232 9.76221L69.4607 12.4179H74.7861Z" fill="#661F4E"/>
<path d="M69.4607 12.418L72.1232 15.0739L74.7861 12.418H69.4607Z" fill="#992572"/>
<path d="M77.448 15.0739L74.7861 12.418L72.1226 15.0739H77.448Z" fill="#BF2E8E"/>
<path d="M72.1226 15.0742L74.7861 17.7302L77.448 15.0742H72.1226Z" fill="#CC52A3"/>
<path d="M74.7866 17.7305H80.1115L77.4491 15.0742L74.7866 17.7305Z" fill="#E573BF"/>
</g>
<path d="M4.92492 1.03433L0.358875 0.00305978C0.282445 -0.014202 0.209717 0.0437566 0.209717 0.121926V18.0922C0.209717 18.1694 0.280735 18.2272 0.356524 18.2116L4.92261 17.2741C4.97937 17.2624 5.02015 17.2125 5.02015 17.1547V1.1532C5.02015 1.09626 4.9806 1.04691 4.92492 1.03433Z" fill="black"/>
<path d="M12.7317 1.03433L17.2977 0.00305978C17.3742 -0.014202 17.4469 0.0437566 17.4469 0.121926V18.0922C17.4469 18.1694 17.3758 18.2272 17.3001 18.2116L12.734 17.2741C12.6772 17.2624 12.6365 17.2125 12.6365 17.1547V1.1532C12.6365 1.09626 12.6759 1.04691 12.7317 1.03433Z" fill="black"/>
<path d="M64.7113 0.426758C64.6438 0.426758 64.5891 0.481323 64.5891 0.548633V7.15181C64.5891 7.21913 64.5344 7.27374 64.4668 7.27374H57.6734C57.6058 7.27374 57.5511 7.21913 57.5511 7.15181V0.548633C57.5511 0.481323 57.4964 0.426758 57.4293 0.426758H53.8566C53.7896 0.426758 53.7349 0.481323 53.7349 0.548633V17.6083C53.7349 17.6755 53.7896 17.7301 53.8566 17.7301H57.4293C57.4964 17.7301 57.5511 17.6755 57.5511 17.6083V10.9061C57.5511 10.8388 57.6058 10.7842 57.6734 10.7842H64.4668C64.5344 10.7842 64.5891 10.8388 64.5891 10.9061V17.6083C64.5891 17.6755 64.6438 17.7301 64.7113 17.7301H68.2825C68.35 17.7301 68.4047 17.6755 68.4047 17.6083V0.548633C68.4047 0.481323 68.35 0.426758 68.2825 0.426758H64.7113Z" fill="black"/>
<path d="M28.2284 5.0416C28.2532 4.98105 28.3392 4.98105 28.364 5.0416L30.5589 10.3866C30.5787 10.4347 30.5432 10.4874 30.4911 10.4874H26.101C26.0489 10.4874 26.0134 10.4347 26.0332 10.3866L28.2284 5.0416ZM26.6672 0.303711C26.6182 0.303711 26.5739 0.332899 26.5548 0.377864L19.2247 17.5603C19.1905 17.6407 19.2496 17.7299 19.3371 17.7299H22.9608C23.0105 17.7299 23.0552 17.6999 23.0739 17.6541L24.5977 13.9252C24.6164 13.8793 24.6612 13.8493 24.7108 13.8493H31.8813C31.931 13.8493 31.9757 13.8793 31.9944 13.9252L33.5185 17.6541C33.5373 17.7 33.582 17.7299 33.6316 17.7299H37.3549C37.4423 17.7299 37.5016 17.6407 37.4672 17.5603L30.1366 0.37786C30.1174 0.332897 30.0731 0.303711 30.0242 0.303711H26.6672Z" fill="black"/>
<path d="M37.8764 15.2869C37.8266 15.2437 37.821 15.1687 37.8634 15.1183L39.9651 12.607C40.0079 12.5554 40.0847 12.5485 40.1371 12.5908C41.6693 13.8319 43.2791 14.6156 45.2218 14.6156C46.7828 14.6156 47.7245 13.998 47.7245 12.9842V12.9349C47.7245 11.9707 47.1298 11.4765 44.2302 10.7351C40.7363 9.84504 38.4813 8.88084 38.4813 5.44544V5.39551C38.4813 2.2557 41.009 0.179688 44.5524 0.179688C47.0372 0.179688 49.1638 0.944701 50.9066 2.30931C50.9567 2.34875 50.9673 2.4205 50.9308 2.47308L49.0827 5.1463C49.0441 5.20183 48.968 5.21557 48.9122 5.17759C47.4098 4.15619 45.9327 3.54127 44.5029 3.54127C43.0408 3.54127 42.2731 4.20823 42.2731 5.0496V5.0986C42.2731 6.23587 43.0162 6.60662 46.0151 7.37255C49.5333 8.2877 51.516 9.54816 51.516 12.5635V12.6125C51.516 16.0489 48.8894 17.9772 45.1474 17.9772C42.5584 17.9775 39.9437 17.0884 37.8764 15.2869Z" fill="black"/>
<path d="M81.7358 0.426758C81.6677 0.426758 81.613 0.481323 81.613 0.548633V17.6083C81.613 17.6755 81.6677 17.7301 81.7358 17.7301H94.6989C94.7659 17.7301 94.8206 17.6755 94.8206 17.6083V14.4653C94.8206 14.398 94.7659 14.3434 94.6989 14.3434H85.5257C85.4581 14.3434 85.4034 14.2888 85.4034 14.2216V10.8316C85.4034 10.7643 85.4581 10.7098 85.5257 10.7098H93.46C93.5276 10.7098 93.5823 10.6552 93.5823 10.5879V7.44524C93.5823 7.37792 93.5276 7.32336 93.46 7.32336H85.5257C85.4581 7.32336 85.4034 7.2688 85.4034 7.20148V3.93535C85.4034 3.86805 85.4581 3.81348 85.5257 3.81348H94.575C94.6426 3.81348 94.6973 3.75892 94.6973 3.69161V0.548633C94.6973 0.481323 94.6426 0.426758 94.575 0.426758H81.7358Z" fill="black"/>
<path d="M108.32 0.426758C108.278 0.426758 108.238 0.449053 108.216 0.485548L104.145 7.1988C104.097 7.2775 103.982 7.27709 103.935 7.19793L99.936 0.486363C99.9138 0.449406 99.8746 0.426758 99.8313 0.426758H95.6621C95.5662 0.426758 95.5073 0.532775 95.5589 0.613919L102.086 10.8778C102.098 10.8973 102.105 10.92 102.105 10.9431V17.6083C102.105 17.6755 102.16 17.7301 102.227 17.7301H105.8C105.868 17.7301 105.922 17.6755 105.922 17.6083V10.8694C105.922 10.8462 105.929 10.8234 105.941 10.8039L112.468 0.614248C112.52 0.533125 112.461 0.426758 112.365 0.426758H108.32Z" fill="black"/>
<path d="M74.8355 0.427246C74.8035 0.427246 74.772 0.440084 74.7493 0.462932L69.4775 5.72085C69.43 5.76846 69.43 5.84562 69.4775 5.89323L72.0017 8.41076C72.0491 8.45837 72.1271 8.45837 72.1745 8.41076L80.0536 0.552085C80.0995 0.506021 80.0665 0.427246 80.0015 0.427246H74.8355Z" fill="black"/>
<path d="M48.2434 26.1116C48.2434 26.0182 48.3564 25.9712 48.4227 26.0371L52.5745 30.1508C52.6157 30.1917 52.6157 30.2581 52.575 30.2993L48.4234 34.4683C48.3571 34.5348 48.2434 34.488 48.2434 34.3943V26.1116Z" fill="black"/>
<path d="M99.8514 34.8272C99.7523 34.8272 99.6904 34.7655 99.6904 34.6667V25.9271C99.6904 25.8283 99.7523 25.7666 99.8514 25.7666H101.2C101.299 25.7666 101.361 25.8283 101.361 25.9271V33.2348H105.742C105.841 33.2348 105.903 33.2965 105.903 33.3953V34.6667C105.903 34.7655 105.841 34.8272 105.742 34.8272H99.8514Z" fill="#BF2E8E"/>
<path d="M89.7788 34.8272C89.6678 34.8272 89.6059 34.7532 89.6555 34.642L93.2813 25.89C93.3184 25.8036 93.3803 25.7666 93.4665 25.7666H94.6176C94.7043 25.7666 94.7662 25.8036 94.8034 25.89L98.4292 34.642C98.4782 34.7532 98.4168 34.8272 98.3054 34.8272H96.7461C96.6594 34.8272 96.5975 34.7902 96.5603 34.7037L95.9169 33.0126H92.1425L91.4991 34.7037C91.4619 34.7902 91.4 34.8272 91.3133 34.8272H89.7788ZM92.724 31.4696H95.323L94.0238 28.0379L92.724 31.4696Z" fill="#BF2E8E"/>
<path d="M82.4251 34.8272C82.3261 34.8272 82.2642 34.7655 82.2642 34.6667V25.9271C82.2642 25.8283 82.3261 25.7666 82.4251 25.7666H85.5437C87.7217 25.7666 88.699 26.7541 88.699 28.0997C88.699 28.9884 88.2661 29.7414 87.4493 30.0747C88.588 30.3833 89.1572 31.198 89.1572 32.235C89.1572 33.8274 88.1175 34.8272 85.6676 34.8272H82.4251ZM85.4818 27.3219H83.9349V29.4204H85.4818C86.4348 29.4204 86.9916 29.0625 86.9916 28.3712C86.9916 27.6923 86.4348 27.3219 85.4818 27.3219ZM85.7171 30.9265H83.9349V33.2718H85.7171C86.8306 33.2718 87.4245 32.8521 87.4245 32.0868C87.4245 31.3338 86.8306 30.9265 85.7171 30.9265Z" fill="#BF2E8E"/>
<path d="M76.0078 35.0005C73.3597 35.0005 71.4294 33.1365 71.4294 30.2974C71.4294 27.4582 73.3597 25.5942 76.0078 25.5942C78.6563 25.5942 80.5866 27.4582 80.5866 30.2974C80.5866 33.1365 78.6563 35.0005 76.0078 35.0005ZM76.0078 33.3711C77.7528 33.3711 78.8539 32.0873 78.8539 30.2974C78.8539 28.5075 77.7528 27.2237 76.0078 27.2237C74.2632 27.2237 73.1616 28.5075 73.1616 30.2974C73.1616 32.0873 74.2632 33.3711 76.0078 33.3711Z" fill="#BF2E8E"/>
<path d="M64.9266 34.8272C64.8275 34.8272 64.7656 34.7655 64.7656 34.6667V25.9271C64.7656 25.8283 64.8275 25.7666 64.9266 25.7666H66.2754C66.3745 25.7666 66.4364 25.8283 66.4364 25.9271V33.2348H70.8171C70.9156 33.2348 70.9775 33.2965 70.9775 33.3953V34.6667C70.9775 34.7655 70.9156 34.8272 70.8171 34.8272H64.9266Z" fill="#BF2E8E"/>
<path fill-rule="evenodd" clip-rule="evenodd" d="M61.5623 28.131C61.6056 28.1678 61.6707 28.1623 61.7068 28.1189L62.7031 26.9312C62.7393 26.8882 62.7336 26.824 62.6907 26.7876C61.7537 25.9936 60.7599 25.5503 59.1893 25.5503C56.4216 25.5503 54.4763 27.7193 54.4763 30.2752V30.3008C54.4763 31.6277 54.9448 32.8035 55.775 33.648C56.6047 34.4927 57.791 35.0003 59.2146 35.0003C60.8275 35.0003 62.1015 34.3496 63.0101 33.5843C63.0328 33.5649 63.0463 33.5363 63.0463 33.5062V29.7546C63.0463 29.6966 62.9993 29.6496 62.941 29.6496H59.1408C59.083 29.6496 59.0355 29.6966 59.0355 29.7546V31.1281C59.0355 31.1861 59.083 31.2331 59.1408 31.2331H61.2171C61.2749 31.2331 61.3218 31.2801 61.3218 31.3381V32.6853C61.3218 32.7191 61.3059 32.7509 61.278 32.7702C60.7553 33.1308 60.0567 33.3657 59.2657 33.3657C58.3792 33.3657 57.647 33.0378 57.1357 32.4914C56.6238 31.9444 56.3282 31.1722 56.3282 30.2752V30.2498C56.3282 28.5857 57.5557 27.2104 59.1253 27.2104C60.2202 27.2104 60.8869 27.5559 61.5623 28.131Z" fill="#BF2E8E"/>
</g>
</g>
<defs>
<clipPath id="clip0_272_1458">
<rect width="113" height="35" fill="white"/>
</clipPath>
</defs>
</svg>
