<svg width="71" height="21" viewBox="0 0 71 21" fill="none" xmlns="http://www.w3.org/2000/svg">
<mask id="mask0_314_1732" style="mask-type:luminance" maskUnits="userSpaceOnUse" x="0" y="0" width="71" height="21">
<path d="M71 0H0V20.3219H71V0Z" fill="white"/>
</mask>
<g mask="url(#mask0_314_1732)">
<path d="M63.6091 1.84668L67.3066 3.69338L69.1533 7.39087V12.931L67.3066 16.6285L63.6091 18.4752H7.39087L3.69338 16.6285L1.84668 12.931V7.39087L3.69338 3.69338L7.39087 1.84668H63.6091Z" fill="#00EDFF"/>
<path d="M71 9.55615H69.1533V11.4029H71V9.55615Z" fill="#00C3FF"/>
<path d="M1.8467 9.55615H0V11.4029H1.8467V9.55615Z" fill="#00C3FF"/>
<path d="M67.3066 13.2495H65.4599H63.6091V15.0962H9.23757H7.39087V13.2495H5.54416H3.69338V11.4028H1.84668V13.2495V15.0962H3.69338V16.9429H5.54416H7.39087V18.7937H9.23757H63.6091V16.9429H65.4599H67.3066V15.0962H69.1533V13.2495V11.4028H67.3066V13.2495Z" fill="#00C3FF"/>
<path opacity="0.32" d="M65.4598 3.70559H63.609V3.68516V1.85889H61.7623H7.39083V3.70559H5.54413H3.69336V5.55229V7.39899H5.54413V5.55229H7.39083H9.23754V3.70559H61.7623V5.53186H63.609V5.55229H65.4598V7.39899H67.3065V5.55229V3.70559H65.4598Z" fill="white"/>
<path d="M63.6091 0H9.23755V1.8467H63.6091V0Z" fill="#000600"/>
<path d="M65.4599 1.84668H63.6091V3.69338H65.4599H67.3066V1.84668H65.4599Z" fill="#000600"/>
<path d="M63.6091 16.6284V18.4751H65.4599H67.3066V16.6284H65.4599H63.6091Z" fill="#000600"/>
<path d="M69.1533 3.69336H67.3066V5.54413V7.39083H69.1533V5.54413V3.69336Z" fill="#000600"/>
<path d="M67.3066 14.7819V16.6286H69.1533V14.7819V12.9312H67.3066V14.7819Z" fill="#000600"/>
<path d="M69.1533 7.39062V9.23733V11.084V12.9307H71V11.084V9.23733V7.39062H69.1533Z" fill="#000600"/>
<path d="M7.39087 18.4751V20.3218H9.23757H63.6092V18.4751H9.23757H7.39087Z" fill="#000600"/>
<path d="M9.23757 0H7.39087V1.8467H9.23757V0Z" fill="#000600"/>
<path d="M5.54413 16.6284H3.69336V18.4751H5.54413H7.39083V16.6284H5.54413Z" fill="#000600"/>
<path d="M7.39083 3.69338V1.84668H5.54413H3.69336V3.69338H5.54413H7.39083Z" fill="#000600"/>
<path d="M3.69338 12.9312H1.84668V14.7819V16.6286H3.69338V14.7819V12.9312Z" fill="#000600"/>
<path d="M3.69338 5.54413V3.69336H1.84668V5.54413V7.39083H3.69338V5.54413Z" fill="#000600"/>
<path d="M1.8467 9.23733V7.39062H0V9.23733V11.084V12.9307H1.8467V11.084V9.23733Z" fill="#000600"/>
<path d="M11.0842 3.95898H9.23746V5.79341H7.39893V7.64012H9.24971V5.80567H11.0842V3.95898Z" fill="white"/>
<path d="M7.39089 5.79346H5.54419V7.64016H7.39089V5.79346Z" fill="white"/>
<path d="M28.125 15H27.25H26.375H25.5H24.625H23.75H22.875V14.125V13.25H23.75H24.625H25.5H26.375H27.25H28.125H29V14.125V15H28.125ZM29 13.25V12.375V11.5H29.875H30.75V12.375V13.25H29.875H29ZM22.875 13.25H22V12.375V11.5H22.875V12.375V13.25ZM29 11.5H28.125H27.25H26.375H25.5H24.625H23.75V10.625V9.75H24.625H25.5H26.375H27.25H28.125H29V10.625V11.5ZM23.75 9.75H22.875H22V8.875V8V7.125V6.25V5.375V4.5H22.875H23.75H24.625H25.5H26.375H27.25H28.125H29V5.375V6.25H28.125H27.25H26.375H25.5H24.625H23.75V7.125V8V8.875V9.75ZM43.875 15H43V14.125V13.25V12.375V11.5H43.875H44.75V12.375V13.25V14.125V15H43.875ZM36.875 15H36V14.125V13.25V12.375V11.5H36.875H37.75V12.375V13.25V14.125V15H36.875ZM43 11.5H42.125H41.25V10.625V9.75H42.125H43V10.625V11.5ZM37.75 11.5V10.625V9.75H38.625H39.5V10.625V11.5H38.625H37.75ZM41.25 9.75H40.375H39.5V8.875V8H40.375H41.25V8.875V9.75ZM41.25 8V7.125V6.25H42.125H43V7.125V8H42.125H41.25ZM39.5 8H38.625H37.75V7.125V6.25H38.625H39.5V7.125V8ZM43 6.25V5.375V4.5H43.875H44.75V5.375V6.25H43.875H43ZM37.75 6.25H36.875H36V5.375V4.5H36.875H37.75V5.375V6.25ZM46.5 15H45.625V14.125V13.25V12.375V11.5V10.625V9.75V8.875V8V7.125V6.25V5.375V4.5H46.5H47.375H48.25H49.125H50H50.875H51.75H52.625V5.375V6.25H53.5H54.375V7.125V8H53.5H52.625V7.125V6.25H51.75H50.875H50H49.125H48.25H47.375V7.125V8H48.25H49.125H50H50.875H51.75H52.625V8.875V9.75H51.75H50.875H50H49.125H48.25H47.375V10.625V11.5V12.375V13.25V14.125V15H46.5Z" fill="black"/>
</g>
<path fill-rule="evenodd" clip-rule="evenodd" d="M59.1675 5.05127V5.40127H59.5199V5.75185V6.10126V6.45184H59.1675V6.80184H58.8157V7.15184V7.50242H58.464H58.1116V7.15184V6.80184H58.464V6.45184H58.8157V6.10126V5.75185H58.464H58.1116H57.7592V6.10126H57.4075V5.75185V5.40127H57.7592V5.05127H58.1116H58.464H58.8157H59.1675ZM58.1117 8.20262V7.85203H58.4641H58.8158V8.20262H58.4641H58.1117Z" fill="#7D423F"/>
<path fill-rule="evenodd" clip-rule="evenodd" d="M60.2754 4.35059V4.70058V5.05117V5.40117V5.75175V6.10116V6.45174H60.2233V6.80174H60.2754V7.15174V7.50232V7.85232V8.20291V8.5529H60.6278V8.20291V7.85232V7.50232V7.15174V6.80174H60.5757V6.45174H60.6278V6.10116V5.75175V5.40117V5.05117V4.70058V4.35059H60.2754ZM59.8716 8.20282H59.5198H59.2195V8.55282H59.5719H59.8716H60.2233V8.20282V7.85223H59.8716V8.20282ZM58.1118 8.20268H58.4641H58.8159H59.1677V8.55267H58.8159H58.4641H58.1118H57.7594H57.4076H57.0559H56.7041V8.20268H57.0559H57.4076H57.7594H58.1118Z" fill="#C47A41"/>
<path d="M59.8719 4.70068H57.056V5.05127H56.7036V8.20301H58.1113V7.85301H58.8154V8.20301H59.8713V7.85301H60.2237V4.70068H59.8713H59.8719ZM58.4643 7.50243H58.1119V6.80184H58.4643V6.45125H58.816V5.75126H57.7601V6.10126H57.4078V5.40127H57.7601V5.05127H59.1684V5.40127H59.5208V6.45185H59.1684V6.80243H58.816V7.50302H58.4643V7.50243Z" fill="#F2BF33"/>
<path d="M59.8718 4.35059H59.52H59.1677H58.8159H58.4641H58.1117H57.7594H57.4076H57.0558H56.7041H56.3523V4.70058V5.05117V5.40117V5.75175V6.10116V6.45174V6.80174V7.15174V7.50232V7.85232V8.20291V8.5529H56.7041V8.20291V7.85232V7.50232V7.15174V6.80174V6.45174V6.10116V5.75175V5.40117V5.05117H57.0558V4.70058H57.4076H57.7594H58.1117H58.4641H58.8159H59.1677H59.52H59.8718H60.2236V4.35059H59.8718Z" fill="#F2D072"/>
<path fill-rule="evenodd" clip-rule="evenodd" d="M57.0561 4.35059H57.4078H57.7596H58.112H58.4643H58.8161H59.1679H59.5203H59.872H60.2238H60.5761V4.70044V5.05103V5.40102V5.75161V6.10101V6.4516V6.8016V7.15159V7.50218V7.85218V8.20276V8.55276H60.9278V8.20276V7.85218V7.50218V7.15159V6.8016V6.4516V6.10101V5.75161V5.40102V5.05103V4.70044V4.35044H60.5762V4H60.2238H59.872H59.5203H59.1679H58.8161H58.4643H58.112H57.7596H57.4078H57.0561H56.7043H56.3525V4.35059H56.7043H57.0561ZM59.5203 8.55298H59.872H60.2238H60.5762V8.90356H60.2238H59.872H59.5203H59.1679H58.8161H58.4643H58.112H57.7596H57.4078H57.0561H56.7043H56.3525V8.55298H56.7043H57.0561H57.4078H57.7596H58.112H58.4643H58.8161H59.1679H59.5203ZM56.3524 7.50218V7.85218V8.20276V8.55276H56V8.20276V7.85218V7.50218V7.15159V6.8016V6.4516V6.10101V5.75161V5.40102V5.05103V4.70044V4.35044H56.3524V4.70044V5.05103V5.40102V5.75161V6.10101V6.4516V6.8016V7.15159V7.50218Z" fill="#202126"/>
</svg>
