<svg width="101" height="15" viewBox="0 0 101 15" fill="none" xmlns="http://www.w3.org/2000/svg">
<path d="M92.4453 8.41626L92.4453 12.733L100.714 12.733L100.714 14.7346L90.3721 14.7346L90.3721 0.265137L100.594 0.265136L100.594 2.26674L92.4453 2.26674L92.4453 6.41465L99.3883 6.41465L99.3883 8.41626L92.4453 8.41626Z" fill="#00D0EC"/>
<path d="M83.4468 15C81.5664 15 80.1119 14.6061 79.0833 13.8183C78.0708 13.0145 77.5164 11.873 77.4199 10.3939L79.6137 10.3939C79.7101 12.1945 80.9798 13.0949 83.4227 13.0949C84.4192 13.0949 85.2067 12.91 85.7853 12.5402C86.3799 12.1543 86.6773 11.6158 86.6773 10.9244C86.6773 10.426 86.5165 10.0161 86.1951 9.69453C85.8737 9.35691 85.4638 9.09164 84.9656 8.89871C84.4674 8.70579 83.8004 8.49678 82.9647 8.2717C81.8879 7.96624 81.028 7.67685 80.3852 7.40353C79.7423 7.11415 79.1878 6.69614 78.7217 6.14952C78.2557 5.60289 78.0226 4.87942 78.0226 3.9791C78.0226 3.19132 78.2396 2.5 78.6735 1.90514C79.1075 1.29421 79.7182 0.827973 80.5057 0.50643C81.2932 0.16881 82.2093 -3.29944e-07 83.254 -4.01912e-07C84.8611 -5.12632e-07 86.1469 0.361735 87.1112 1.08521C88.0755 1.7926 88.6139 2.82154 88.7264 4.17202L86.5326 4.17202C86.4201 2.66077 85.3433 1.90514 83.3022 1.90514C82.3379 1.90514 81.5745 2.09003 81.012 2.45981C80.4655 2.82958 80.1923 3.32797 80.1923 3.95498C80.1923 4.4373 80.353 4.83923 80.6745 5.16077C80.9959 5.48231 81.3896 5.73955 81.8557 5.93247C82.3218 6.10932 82.9808 6.31833 83.8326 6.55948C84.8933 6.84887 85.7531 7.13826 86.4121 7.42765C87.0871 7.71704 87.6576 8.14308 88.1237 8.70579C88.6059 9.26849 88.8469 10.008 88.8469 10.9244C88.8469 12.1785 88.3487 13.1752 87.3523 13.9148C86.3558 14.6383 85.054 15 83.4468 15Z" fill="#00D0EC"/>
<path d="M77.8722 14.7346L75.7266 14.7346L74.5453 10.7073L67.3131 10.7073L66.1318 14.7346L64.0344 14.7346L68.3497 0.265136L73.5328 0.265136L77.8722 14.7346ZM69.8444 2.17028L67.9158 8.70565L73.9427 8.70565L72.014 2.17028L69.8444 2.17028Z" fill="#00D0EC"/>
<path d="M61.5687 7.13813C62.3241 7.34713 62.9348 7.76514 63.4009 8.39215C63.8831 9.01915 64.1242 9.76674 64.1242 10.6349C64.1242 11.3905 63.9233 12.0819 63.5215 12.7089C63.1197 13.3359 62.5411 13.8343 61.7857 14.204C61.0303 14.5577 60.1384 14.7346 59.1098 14.7346L52.7454 14.7346L52.7454 0.265137L59.1098 0.265136C60.4759 0.265136 61.5687 0.610795 62.3884 1.30211C63.2241 1.97735 63.642 2.8616 63.642 3.95485C63.642 4.66224 63.4572 5.28925 63.0875 5.83588C62.7179 6.3825 62.2116 6.78443 61.5687 7.04166L61.5687 7.13813ZM54.8186 2.09793L54.8186 6.36642L58.941 6.36642C59.7446 6.36642 60.3634 6.1735 60.7973 5.78764C61.2473 5.40179 61.4723 4.87928 61.4723 4.22012C61.4723 3.57703 61.2473 3.06256 60.7973 2.67671C60.3634 2.29086 59.7446 2.09793 58.941 2.09793L54.8186 2.09793ZM59.0374 12.9018C59.9696 12.9018 60.6848 12.6847 61.183 12.2507C61.6973 11.8166 61.9545 11.2298 61.9545 10.4902C61.9545 9.76674 61.7054 9.18796 61.2071 8.75388C60.7089 8.3198 60.0018 8.10276 59.0857 8.10276L54.8186 8.10276L54.8186 12.9018L59.0374 12.9018Z" fill="#00D0EC"/>
<path d="M43.808 15C42.4098 15 41.1401 14.6785 39.999 14.0354C38.8579 13.3762 37.9579 12.4759 37.299 11.3344C36.64 10.1929 36.3105 8.91479 36.3105 7.5C36.3105 6.08521 36.64 4.80707 37.299 3.66559C37.9579 2.52411 38.8579 1.63183 39.999 0.988744C41.1401 0.329581 42.4098 -4.20181e-07 43.808 -5.16507e-07C45.2063 -6.12833e-07 46.4759 0.329581 47.617 0.988744C48.7581 1.63183 49.6581 2.52411 50.3171 3.66559C50.976 4.80707 51.3055 6.08521 51.3055 7.5C51.3055 8.91479 50.976 10.1929 50.3171 11.3344C49.6581 12.4759 48.7581 13.3762 47.617 14.0354C46.4759 14.6785 45.2063 15 43.808 15ZM43.808 12.9984C44.8205 12.9984 45.7286 12.7653 46.5322 12.299C47.3358 11.8328 47.9706 11.1817 48.4367 10.3457C48.9028 9.50964 49.1358 8.56109 49.1358 7.5C49.1358 6.4389 48.9028 5.49035 48.4367 4.65434C47.9706 3.81833 47.3358 3.1672 46.5322 2.70096C45.7286 2.23473 44.8205 2.00161 43.808 2.00161C42.7955 2.00161 41.8874 2.23473 41.0839 2.70096C40.2803 3.1672 39.6454 3.81833 39.1794 4.65434C38.7133 5.49035 38.4802 6.43891 38.4802 7.5C38.4802 8.56109 38.7133 9.50964 39.1794 10.3457C39.6454 11.1817 40.2803 11.8328 41.0839 12.299C41.8874 12.7653 42.7955 12.9984 43.808 12.9984Z" fill="#00D0EC"/>
<path d="M33.7237 14.7346L30.0352 9.38089L26.5637 9.38089L26.5637 14.7346L24.4905 14.7346L24.4905 0.265137L30.4933 0.265136C32.1647 0.265136 33.4665 0.683142 34.3987 1.51915C35.3469 2.33909 35.8211 3.44038 35.8211 4.82301C35.8211 5.93234 35.5077 6.87285 34.8809 7.64456C34.2701 8.41626 33.3942 8.93073 32.2531 9.18796L36.1345 14.7346L33.7237 14.7346ZM26.5637 2.17028L26.5637 7.47575L30.421 7.47575C31.4817 7.47575 32.2853 7.25067 32.8317 6.8005C33.3782 6.33427 33.6514 5.6751 33.6514 4.82301C33.6514 3.987 33.3782 3.33588 32.8317 2.86964C32.2853 2.4034 31.4817 2.17028 30.421 2.17028L26.5637 2.17028Z" fill="#00D0EC"/>
<path d="M14.8377 8.41626L14.8377 12.733L23.1066 12.733L23.1066 14.7346L12.7644 14.7346L12.7644 0.265137L22.986 0.265136L22.986 2.26674L14.8377 2.26674L14.8377 6.41465L21.7807 6.41465L21.7807 8.41626L14.8377 8.41626Z" fill="#00D0EC"/>
<path d="M11.5476 14.7346L9.87598e-07 14.7346L7.96663e-07 11.9372L9.06446 2.70083L9.06446 2.26674L0.337507 2.26674L0.337507 0.265137L11.4029 0.265136L11.4029 3.06256L2.33844 12.2989L2.33844 12.733L11.5476 12.733L11.5476 14.7346Z" fill="#00D0EC"/>
<path fill-rule="evenodd" clip-rule="evenodd" d="M40.8079 9.35224L43.7152 4.28467L46.6226 9.35224L40.8079 9.35224Z" fill="#00D0EC"/>
</svg>
