<svg width="96" height="12" viewBox="0 0 96 12" fill="none" xmlns="http://www.w3.org/2000/svg">
<path d="M75.4171 6.61084L75.4171 9.48865L81.0001 9.48865L81.0001 10.8231L74.0173 10.8231L74.0173 1.17676L80.9187 1.17676L80.9187 2.51116L75.4171 2.51116L75.4171 5.27644L80.1049 5.27644L80.1049 6.61084L75.4171 6.61084Z" fill="#00D0EC"/>
<path d="M69.3414 11C68.0718 11 67.0898 10.7374 66.3953 10.2122C65.7117 9.67631 65.3373 8.91533 65.2722 7.92926L66.7534 7.92926C66.8185 9.12969 67.6758 9.7299 69.3252 9.7299C69.9979 9.7299 70.5297 9.60664 70.9203 9.36013C71.3218 9.10289 71.5226 8.74384 71.5226 8.28296C71.5226 7.9507 71.414 7.67738 71.197 7.46302C70.98 7.23794 70.7033 7.06109 70.3669 6.93247C70.0305 6.80386 69.5802 6.66452 69.0159 6.51447C68.2889 6.31082 67.7083 6.1179 67.2743 5.93569C66.8402 5.74276 66.4659 5.46409 66.1512 5.09968C65.8365 4.73526 65.6791 4.25295 65.6791 3.65273C65.6791 3.12754 65.8256 2.66667 66.1186 2.2701C66.4116 1.86281 66.824 1.55198 67.3557 1.33762C67.8874 1.11254 68.5059 1 69.2112 1C70.2964 1 71.1645 1.24116 71.8155 1.72347C72.4666 2.19507 72.8301 2.88103 72.9061 3.78135L71.4249 3.78135C71.3489 2.77385 70.6219 2.2701 69.2438 2.2701C68.5927 2.2701 68.0773 2.39335 67.6975 2.63987C67.3285 2.88639 67.1441 3.21865 67.1441 3.63666C67.1441 3.9582 67.2526 4.22615 67.4696 4.44051C67.6866 4.65488 67.9525 4.82637 68.2672 4.95498C68.5819 5.07288 69.0268 5.21222 69.6019 5.37299C70.3181 5.56592 70.8986 5.75884 71.3435 5.95177C71.7993 6.14469 72.1845 6.42872 72.4992 6.80386C72.8247 7.17899 72.9875 7.67202 72.9875 8.28296C72.9875 9.11897 72.6511 9.78349 71.9783 10.2765C71.3055 10.7588 70.4266 11 69.3414 11Z" fill="#00D0EC"/>
<path d="M65.5776 10.8231L64.1289 10.8231L63.3314 8.13817L58.4483 8.13817L57.6507 10.8231L56.2346 10.8231L59.1482 1.17676L62.6477 1.17676L65.5776 10.8231ZM60.1574 2.44685L58.8552 6.80377L62.9244 6.80377L61.6223 2.44685L60.1574 2.44685Z" fill="#00D0EC"/>
<path d="M54.5699 5.75875C55.0799 5.89809 55.4923 6.17676 55.8069 6.59476C56.1325 7.01277 56.2953 7.51116 56.2953 8.08994C56.2953 8.59369 56.1596 9.05457 55.8883 9.47258C55.617 9.89058 55.2264 10.2228 54.7164 10.4694C54.2064 10.7052 53.6041 10.8231 52.9097 10.8231L48.6125 10.8231L48.6125 1.17676L52.9097 1.17676C53.832 1.17676 54.5699 1.4072 55.1233 1.86808C55.6876 2.31824 55.9697 2.90773 55.9697 3.63656C55.9697 4.10816 55.8449 4.52617 55.5953 4.89058C55.3458 5.255 55.004 5.52295 54.5699 5.69444L54.5699 5.75875ZM50.0124 2.39862L50.0124 5.24428L52.7957 5.24428C53.3383 5.24428 53.7561 5.11566 54.049 4.85843C54.3529 4.60119 54.5048 4.25286 54.5048 3.81341C54.5048 3.38469 54.3529 3.04171 54.049 2.78447C53.7561 2.52724 53.3383 2.39862 52.7957 2.39862L50.0124 2.39862ZM52.8608 9.60119C53.4902 9.60119 53.9731 9.4565 54.3095 9.16711C54.6567 8.87772 54.8303 8.48651 54.8303 7.99348C54.8303 7.51116 54.6621 7.12531 54.3257 6.83592C53.9894 6.54653 53.5119 6.40184 52.8934 6.40184L50.0124 6.40184L50.0124 9.60119L52.8608 9.60119Z" fill="#00D0EC"/>
<path d="M42.5782 11C41.6342 11 40.7769 10.7856 40.0065 10.3569C39.236 9.91747 38.6284 9.31725 38.1835 8.55627C37.7386 7.79528 37.5161 6.94319 37.5161 6C37.5161 5.05681 37.7386 4.20472 38.1835 3.44373C38.6284 2.68274 39.236 2.08789 40.0065 1.65916C40.7769 1.21972 41.6342 1 42.5782 1C43.5223 1 44.3795 1.21972 45.15 1.65916C45.9204 2.08789 46.5281 2.68274 46.973 3.44373C47.4179 4.20471 47.6404 5.0568 47.6404 6C47.6404 6.94319 47.4179 7.79528 46.973 8.55627C46.5281 9.31725 45.9204 9.91747 45.15 10.3569C44.3795 10.7856 43.5223 11 42.5782 11ZM42.5782 9.66559C43.2619 9.66559 43.875 9.51018 44.4175 9.19935C44.9601 8.88853 45.3887 8.45445 45.7034 7.8971C46.0181 7.33976 46.1754 6.70739 46.1754 6C46.1754 5.2926 46.0181 4.66023 45.7034 4.10289C45.3887 3.54555 44.9601 3.11147 44.4175 2.80064C43.875 2.48982 43.2619 2.3344 42.5782 2.3344C41.8946 2.3344 41.2815 2.48982 40.7389 2.80064C40.1964 3.11147 39.7678 3.54555 39.4531 4.10289C39.1384 4.66023 38.981 5.2926 38.981 6C38.981 6.70739 39.1384 7.33976 39.4531 7.8971C39.7678 8.45445 40.1964 8.88853 40.7389 9.19935C41.2815 9.51018 41.8946 9.66559 42.5782 9.66559Z" fill="#00D0EC"/>
<path d="M35.7695 10.8231L33.2791 7.25393L30.9352 7.25393L30.9352 10.8231L29.5354 10.8231L29.5354 1.17676L33.5884 1.17676C34.7169 1.17676 35.5958 1.45543 36.2252 2.01277C36.8654 2.55939 37.1856 3.29358 37.1856 4.21534C37.1856 4.95489 36.974 5.5819 36.5508 6.09637C36.1384 6.61084 35.547 6.95382 34.7766 7.12531L37.3972 10.8231L35.7695 10.8231ZM30.9352 2.44685L30.9352 5.98383L33.5395 5.98383C34.2557 5.98383 34.7983 5.83378 35.1672 5.53367C35.5362 5.22284 35.7206 4.7834 35.7206 4.21534C35.7206 3.658 35.5362 3.22392 35.1672 2.91309C34.7983 2.60227 34.2557 2.44685 33.5395 2.44685L30.9352 2.44685Z" fill="#00D0EC"/>
<path d="M23.018 6.61084L23.018 9.48865L28.601 9.48865L28.601 10.8231L21.6182 10.8231L21.6182 1.17676L28.5196 1.17676L28.5196 2.51116L23.018 2.51116L23.018 5.27644L27.7057 5.27644L27.7057 6.61084L23.018 6.61084Z" fill="#00D0EC"/>
<path d="M20.7966 10.8231L13 10.8231L13 8.95811L19.1201 2.80055L19.1201 2.51116L13.2279 2.51116L13.2279 1.17676L20.699 1.17676L20.699 3.04171L14.5789 9.19926L14.5789 9.48865L20.7966 9.48865L20.7966 10.8231Z" fill="#00D0EC"/>
<path fill-rule="evenodd" clip-rule="evenodd" d="M40.5525 7.23482L42.5155 3.85645L44.4785 7.23482L40.5525 7.23482Z" fill="#00D0EC"/>
<path d="M8.25 11.25H7.5H6.75H6H5.25H4.5H3.75H3H2.25H1.5V10.5H0.75V9.75H0V9V8.25V7.5V6.75V6V5.25V4.5V3.75V3V2.25V1.5H0.75V0.75H1.5V0H2.25H3H3.75H4.5H5.25H6H6.75H7.5H8.25H9V0.75H9.75V1.5H10.5V2.25V3V3.75V4.5V5.25V6V6.75V7.5V8.25H9.75H9V9H8.25H7.5H6.75H6H5.25H4.5H3.75H3V8.25V7.5V6.75V6V5.25V4.5H3.75H4.5V3.75V3H5.25H6H6.75H7.5H8.25V3.75V4.5V5.25V6V6.75V7.5H9V6.75V6V5.25V4.5V3.75V3V2.25V1.5H8.25H7.5H6.75H6H5.25H4.5H3.75H3H2.25H1.5V2.25V3V3.75V4.5V5.25V6V6.75V7.5V8.25V9V9.75H2.25H3H3.75H4.5H5.25H6H6.75H7.5H8.25H9V9H9.75H10.5V9.75H9.75V10.5H9V11.25H8.25ZM6 7.5H6.75V6.75V6V5.25V4.5H6H5.25H4.5V5.25V6V6.75V7.5H5.25H6Z" fill="#00D0EC"/>
<path d="M95 10H94.25V9.25V8.5H95H95.75V9.25V10H95ZM90.5 10H89.75V9.25V8.5V7.75V7V6.25V5.5V4.75V4V3.25V2.5V1.75V1H90.5H91.25V1.75V2.5V3.25V4V4.75V5.5H92H92.75V6.25V7H93.5H94.25V7.75V8.5H93.5H92.75V7.75V7H92H91.25V7.75V8.5V9.25V10H90.5ZM92.75 5.5V4.75V4H93.5H94.25V4.75V5.5H93.5H92.75ZM94.25 4V3.25V2.5H95H95.75V3.25V4H95H94.25Z" fill="#00D0EC"/>
<path d="M88.25 10H87.5H86.75H86H85.25H84.5H83.75H83V9.25V8.5H83.75V7.75V7H84.5H85.25V7.75V8.5H86H86.75H87.5H88.25H89V9.25V10H88.25ZM85.25 7V6.25V5.5H86H86.75V6.25V7H86H85.25ZM86.75 5.5V4.75V4H86H85.25H84.5H83.75H83V3.25V2.5H83.75H84.5H85.25H86H86.75H87.5H88.25H89V3.25V4H88.25V4.75V5.5H87.5H86.75Z" fill="#00D0EC"/>
</svg>
